<?xml version="1.0" encoding="UTF-8"?>
<svg width="75px" height="74px" viewBox="0 0 75 74" version="1.1" xmlns="http://www.w3.org/2000/svg" xmlns:xlink="http://www.w3.org/1999/xlink">
    <!-- Generator: Sketch 44.1 (41455) - http://www.bohemiancoding.com/sketch -->
    <title>Icon</title>
    <desc>Created with Sketch.</desc>
    <defs></defs>
    <g id="Welcome" stroke="none" stroke-width="1" fill="none" fill-rule="evenodd">
        <g id="Service-2--Desktop" transform="translate(-681.000000, -791.000000)" fill="#222829">
            <g id="Advantages" transform="translate(90.000000, 791.000000)">
                <g id="Icon" transform="translate(591.000000, 0.000000)">
                    <path d="M37.0541008,74 C36.0783567,74 35.289645,73.2124286 35.289645,72.2380952 L35.289645,1.76190476 C35.289645,0.787571429 36.0783567,0 37.0541008,0 C38.0298448,0 38.8185565,0.787571429 38.8185565,1.76190476 L38.8185565,72.2380952 C38.8185565,73.2124286 38.0298448,74 37.0541008,74" id="Fill-1"></path>
                    <path d="M37.0541008,14.0952381 C36.5300574,14.0952381 36.0342453,13.8626667 35.6972343,13.4627143 L26.8749554,2.89128571 C26.2521025,2.14247619 26.3544409,1.03071429 27.1008057,0.407 C27.8524639,-0.213190476 28.964071,-0.112761905 29.5886884,0.63252381 L37.0541008,9.57947619 L44.5195132,0.63252381 C45.145895,-0.112761905 46.2557377,-0.213190476 47.0073958,0.407 C47.7537606,1.03071429 47.8560991,2.14247619 47.2332462,2.89128571 L38.4109673,13.4627143 C38.0739562,13.8626667 37.5781441,14.0952381 37.0541008,14.0952381" id="Fill-3"></path>
                    <path d="M45.8781441,74 C45.3717453,74 44.8706399,73.7850476 44.5195132,73.3674762 L37.0541008,64.4205238 L29.5886884,73.3674762 C28.964071,74.111 27.8524639,74.2149524 27.1008057,73.593 C26.3544409,72.9692857 26.2521025,71.8575238 26.8749554,71.1087143 L35.6972343,60.5372857 C36.3694919,59.735619 37.7387096,59.735619 38.4109673,60.5372857 L47.2332462,71.1087143 C47.8560991,71.8575238 47.7537606,72.9692857 47.0073958,73.593 C46.6756781,73.8660952 46.2769111,74 45.8781441,74" id="Fill-5"></path>
                    <path d="M72.3432164,38.7619048 L1.76498512,38.7619048 C0.789241071,38.7619048 0.000529336734,37.9743333 0.000529336734,37 C0.000529336734,36.0256667 0.789241071,35.2380952 1.76498512,35.2380952 L72.3432164,35.2380952 C73.3189605,35.2380952 74.1076722,36.0256667 74.1076722,37 C74.1076722,37.9743333 73.3189605,38.7619048 72.3432164,38.7619048" id="Fill-7"></path>
                    <path d="M72.341452,47.5714286 C71.9426849,47.5714286 71.5439179,47.4375238 71.2122003,47.1644286 L60.6254656,38.3549048 C60.2249341,38.018381 59.9920259,37.5232857 59.9920259,37 C59.9920259,36.4767143 60.2249341,35.981619 60.6254656,35.6450952 L71.2122003,26.8355714 C71.9638584,26.213619 73.0754656,26.3158095 73.7000829,27.0610952 C74.3229358,27.8099048 74.2205974,28.9216667 73.4742326,29.545381 L64.5125616,37 L73.4742326,44.454619 C74.2205974,45.0783333 74.3229358,46.1900952 73.7000829,46.9389048 C73.3489562,47.3564762 72.8478508,47.5714286 72.341452,47.5714286" id="Fill-9"></path>
                    <path d="M1.76674957,47.5714286 C1.26035077,47.5714286 0.759245323,47.3564762 0.408118622,46.9389048 C-0.214734269,46.1900952 -0.112395833,45.0783333 0.633968963,44.454619 L9.59563988,37 L0.633968963,29.545381 C-0.112395833,28.9216667 -0.214734269,27.8099048 0.408118622,27.0610952 C1.03450043,26.3158095 2.14434311,26.213619 2.89600128,26.8355714 L13.482736,35.6450952 C13.8832674,35.981619 14.1161756,36.4767143 14.1161756,37 C14.1161756,37.5232857 13.8832674,38.018381 13.482736,38.3549048 L2.89600128,47.1644286 C2.56428359,47.4375238 2.16551658,47.5714286 1.76674957,47.5714286" id="Fill-11"></path>
                    <path d="M12.1001084,63.679819 C11.6484077,63.679819 11.1967071,63.5071524 10.8526382,63.163581 C10.162736,62.4746762 10.162736,61.3611524 10.8526382,60.6722476 L60.76027,10.8367714 C61.4501722,10.1478667 62.5670727,10.1478667 63.2552105,10.8367714 C63.9451127,11.5239143 63.9451127,12.6392 63.2552105,13.3281048 L13.3475787,63.163581 C13.0035098,63.5071524 12.5518091,63.679819 12.1001084,63.679819" id="Fill-13"></path>
                    <path d="M54.5211543,21.3201048 C54.055338,21.3201048 53.6054018,21.1368667 53.2736841,20.8038667 C52.9031484,20.4338667 52.7178805,19.9193905 52.7637564,19.3978667 L54.0112266,5.69377143 C54.1012139,4.72648571 54.9446237,4.00234286 55.9291901,4.09924762 C56.8996407,4.18558095 57.6142453,5.04362857 57.5260225,6.01267619 L56.4691135,17.6130571 L68.0845259,16.5576762 C69.0761501,16.4660571 69.9142666,17.1849143 70.0024894,18.1522 C70.0907122,19.1230095 69.3761076,19.9792952 68.4056569,20.0673905 L54.6817198,21.3130571 C54.6287861,21.3183429 54.574088,21.3201048 54.5211543,21.3201048" id="Fill-15"></path>
                    <path d="M18.341165,69.9083286 C18.2882313,69.9083286 18.2335332,69.9065667 18.178835,69.901281 C17.2083844,69.8131857 16.4937798,68.9569 16.5820026,67.9860905 L17.6389116,56.3874714 L6.02349915,57.4428524 C5.03363946,57.543281 4.1937585,56.8138524 4.10553571,55.8483286 C4.01731293,54.877519 4.73191752,54.0194714 5.7023682,53.9331381 L19.4263053,52.6874714 C19.9450553,52.6328524 20.4638053,52.8266619 20.834341,53.1966619 C21.2048767,53.5666619 21.391909,54.0811381 21.3442687,54.6009 L20.0967985,68.3067571 C20.0121046,69.2194238 19.2445663,69.9083286 18.341165,69.9083286" id="Fill-17"></path>
                    <path d="M62.0080931,63.679819 C61.5563924,63.679819 61.1046918,63.5071524 60.7606229,63.163581 L10.8529911,13.3281048 C10.1630889,12.6392 10.1630889,11.5239143 10.8529911,10.8367714 C11.5411288,10.1478667 12.6580293,10.1478667 13.3479315,10.8367714 L63.2555634,60.6722476 C63.9454656,61.3611524 63.9454656,62.4746762 63.2555634,63.163581 C62.9114945,63.5071524 62.4597938,63.679819 62.0080931,63.679819" id="Fill-19"></path>
                    <path d="M55.7670366,69.9083286 C54.8636352,69.9083286 54.0960969,69.2194238 54.0114031,68.3067571 L52.7639328,54.6009 C52.7162925,54.0811381 52.9033248,53.5666619 53.2738605,53.1966619 C53.6443963,52.8266619 54.1613818,52.6328524 54.6818963,52.6874714 L68.4058333,53.9331381 C69.376284,54.0194714 70.0908886,54.877519 70.0026658,55.8483286 C69.914443,56.8138524 69.0745621,57.5397571 68.0847024,57.4428524 L56.46929,56.3874714 L57.526199,67.9860905 C57.6144218,68.9569 56.8998172,69.8131857 55.9293665,69.901281 C55.8746684,69.9065667 55.8199702,69.9083286 55.7670366,69.9083286" id="Fill-21"></path>
                    <path d="M19.5870472,21.3201048 C19.5341135,21.3201048 19.4794154,21.3183429 19.4264817,21.3130571 L5.70254464,20.0673905 C4.73209396,19.9792952 4.01748937,19.1230095 4.10571216,18.1522 C4.19393495,17.1831524 5.03028699,16.4625333 6.0236756,16.5576762 L17.639088,17.6130571 L16.582179,6.01267619 C16.4939562,5.04362857 17.2085608,4.18558095 18.1790115,4.09924762 C19.1635778,4.00586667 20.0069877,4.72648571 20.0969749,5.69377143 L21.3444452,19.3978667 C21.390321,19.9193905 21.2050531,20.4338667 20.8345174,20.8038667 C20.5027997,21.1368667 20.0528635,21.3201048 19.5870472,21.3201048" id="Fill-23"></path>
                </g>
            </g>
        </g>
    </g>
</svg>