<?xml version="1.0" encoding="UTF-8"?>
<svg width="77px" height="96px" viewBox="0 0 77 96" version="1.1" xmlns="http://www.w3.org/2000/svg" xmlns:xlink="http://www.w3.org/1999/xlink">
    <!-- Generator: Sketch 44.1 (41455) - http://www.bohemiancoding.com/sketch -->
    <title>Icon</title>
    <desc>Created with Sketch.</desc>
    <defs>
        <polygon id="path-1" points="7.09457804e-15 58.2000252 7.09457804e-15 0.0664076923 77 0.0664076923 77 58.2000252 0 58.2000252"></polygon>
        <polygon id="path-3" points="0 95.5076923 77 95.5076923 77 0.0656615385 0 0.0656615385"></polygon>
    </defs>
    <g id="Welcome" stroke="none" stroke-width="1" fill="none" fill-rule="evenodd">
        <g id="Service-2--Desktop" transform="translate(-680.000000, -1342.000000)">
            <g id="Advantages" transform="translate(90.000000, 791.000000)">
                <g id="Icon" transform="translate(590.000000, 551.000000)">
                    <polygon id="Fill-1" fill="#222829" points="25.1730769 33.1669308 51.8269231 33.1669308 51.8269231 30.1823154 25.1730769 30.1823154"></polygon>
                    <g id="Group-19" transform="translate(0.000000, 0.336162)">
                        <path d="M38.5001481,95.5076923 C32.7843788,95.5076923 28.1347635,90.8218462 28.1347635,85.0615385 L28.1347635,31.3384615 L31.0963019,31.3384615 L31.0963019,85.0615385 C31.0963019,89.1758308 34.4176673,92.5230769 38.5001481,92.5230769 C42.5826288,92.5230769 45.9039942,89.1758308 45.9039942,85.0615385 L45.9039942,31.3384615 L48.8655327,31.3384615 L48.8655327,85.0615385 C48.8655327,90.8218462 44.2159173,95.5076923 38.5001481,95.5076923 Z" id="Fill-2" fill="#222829"></path>
                        <g id="Group-6">
                            <mask id="mask-2" fill="white">
                                <use xlink:href="#path-1"></use>
                            </mask>
                            <g id="Clip-5"></g>
                            <path d="M65.1539942,58.2 C64.9792635,58.2 64.8030519,58.1686615 64.6342442,58.1059846 L52.7880904,53.6290615 L53.8275904,50.8324769 L62.1435904,53.9752769 L54.9440904,39.4670615 C54.7575135,39.091 54.7382635,38.6522615 54.8893019,38.2597846 C55.0388596,37.8673077 55.3483404,37.5584 55.7377827,37.4061846 L70.9897058,31.4951538 L55.8340327,26.7958769 C55.3927635,26.6585846 55.0388596,26.3213231 54.8804173,25.8855692 C54.7204942,25.4483231 54.7723212,24.9618308 55.0196096,24.5678615 L63.0690712,11.8220615 L46.4015327,17.8211385 C45.6952058,18.0718462 44.9148404,17.7569692 44.5787058,17.0824462 L38.5001481,4.82910769 L32.4215904,17.0824462 C32.083975,17.7569692 31.3006481,18.0718462 30.5987635,17.8211385 L13.6898596,11.7355077 L22.0103019,26.1094154 C22.247225,26.5198 22.2768404,27.0182308 22.0902635,27.4539846 C21.9036865,27.8882462 21.5231288,28.2090923 21.0640904,28.3165385 L6.52885962,31.6966154 L21.2625135,37.4061846 C21.6519558,37.5584 21.9614365,37.8673077 22.1109942,38.2597846 C22.2620327,38.6522615 22.2427827,39.091 22.0562058,39.4670615 L14.8567058,53.9752769 L23.1727058,50.8324769 L24.2122058,53.6290615 L12.3660519,58.1059846 C11.7974365,58.3193846 11.1533019,58.1626923 10.7460904,57.7060462 C10.3373981,57.2494 10.2500327,56.5883077 10.5210135,56.0406308 L18.6770904,39.6028615 L0.949321154,32.7322769 C0.342205769,32.495 -0.0413134615,31.8876308 0.00310961538,31.234 C0.0490134615,30.5788769 0.513975,30.0326923 1.14774423,29.8834615 L18.4386865,25.8631846 L9.08614808,9.70596923 C8.772225,9.16426154 8.82849423,8.48376923 9.22534038,8.00026154 C9.62514808,7.51675385 10.2766865,7.33767692 10.8630712,7.54809231 L30.3588788,14.5649231 L37.1748596,0.825246154 C37.6768404,-0.186538462 39.3234558,-0.186538462 39.8254365,0.825246154 L46.6414173,14.5649231 L66.137225,7.54809231 C66.7310135,7.3332 67.3973596,7.52421538 67.792725,8.02264615 C68.1866096,8.52107692 68.2236288,9.21649231 67.8845327,9.75521538 L58.5616096,24.5186154 L75.954725,29.9118154 C76.5588788,30.0983538 76.9779365,30.652 77.0001481,31.2877231 C77.0208788,31.9234462 76.6403212,32.5024615 76.050975,32.7322769 L58.3232058,39.6028615 L66.4792827,56.0406308 C66.7502635,56.5883077 66.6628981,57.2494 66.2542058,57.7060462 C65.9684173,58.0268923 65.5656481,58.2 65.1539942,58.2" id="Fill-4" fill="#00BEEA" mask="url(#mask-2)"></path>
                        </g>
                        <mask id="mask-4" fill="white">
                            <use xlink:href="#path-3"></use>
                        </mask>
                        <g id="Clip-8"></g>
                        <polygon id="Fill-7" fill="#222829" mask="url(#mask-4)" points="31.0961538 26.8615385 34.0576923 26.8615385 34.0576923 23.8769231 31.0961538 23.8769231"></polygon>
                        <polygon id="Fill-9" fill="#222829" mask="url(#mask-4)" points="37.0192308 20.8923077 39.9807692 20.8923077 39.9807692 17.9076923 37.0192308 17.9076923"></polygon>
                        <polygon id="Fill-10" fill="#222829" mask="url(#mask-4)" points="37.0192308 26.8615385 39.9807692 26.8615385 39.9807692 23.8769231 37.0192308 23.8769231"></polygon>
                        <polygon id="Fill-11" fill="#222829" mask="url(#mask-4)" points="42.9423077 26.8615385 45.9038462 26.8615385 45.9038462 23.8769231 42.9423077 23.8769231"></polygon>
                        <polygon id="Fill-12" fill="#222829" mask="url(#mask-4)" points="29.6153846 44.7692308 47.3846154 44.7692308 47.3846154 41.7846154 29.6153846 41.7846154"></polygon>
                        <polygon id="Fill-13" fill="#222829" mask="url(#mask-4)" points="29.6153846 53.7230769 34.0576923 53.7230769 34.0576923 50.7384615 29.6153846 50.7384615"></polygon>
                        <polygon id="Fill-14" fill="#222829" mask="url(#mask-4)" points="29.6153846 59.6923077 34.0576923 59.6923077 34.0576923 56.7076923 29.6153846 56.7076923"></polygon>
                        <polygon id="Fill-15" fill="#222829" mask="url(#mask-4)" points="29.6153846 65.6615385 34.0576923 65.6615385 34.0576923 62.6769231 29.6153846 62.6769231"></polygon>
                        <polygon id="Fill-16" fill="#222829" mask="url(#mask-4)" points="29.6153846 71.6307692 34.0576923 71.6307692 34.0576923 68.6461538 29.6153846 68.6461538"></polygon>
                        <polygon id="Fill-17" fill="#222829" mask="url(#mask-4)" points="29.6153846 77.6 34.0576923 77.6 34.0576923 74.6153846 29.6153846 74.6153846"></polygon>
                        <polygon id="Fill-18" fill="#222829" mask="url(#mask-4)" points="29.6153846 83.5692308 34.0576923 83.5692308 34.0576923 80.5846154 29.6153846 80.5846154"></polygon>
                    </g>
                </g>
            </g>
        </g>
    </g>
</svg>