<?xml version="1.0" encoding="UTF-8"?>
<svg width="90px" height="85px" viewBox="0 0 90 85" version="1.1" xmlns="http://www.w3.org/2000/svg" xmlns:xlink="http://www.w3.org/1999/xlink">
    <!-- Generator: Sketch 44.1 (41455) - http://www.bohemiancoding.com/sketch -->
    <title>Icon</title>
    <desc>Created with Sketch.</desc>
    <defs>
        <polygon id="path-1" points="39.375 50.5853659 0 50.5853659 0 25.292964 0 0.000562059621 39.375 0.000562059621"></polygon>
        <polygon id="path-3" points="0 84.3089431 90 84.3089431 90 0 0 0"></polygon>
    </defs>
    <g id="Welcome" stroke="none" stroke-width="1" fill="none" fill-rule="evenodd">
        <g id="Service-2--Desktop" transform="translate(-675.000000, -2001.000000)">
            <g id="Advantages" transform="translate(90.000000, 791.000000)">
                <g id="Icon" transform="translate(585.000000, 1210.000000)">
                    <polygon id="Fill-1" fill="#222829" points="0 84.3550136 90 84.3550136 90 81.5447154 0 81.5447154"></polygon>
                    <g id="Group-29">
                        <g id="Group-4" transform="translate(0.000000, 33.861789)">
                            <mask id="mask-2" fill="white">
                                <use xlink:href="#path-1"></use>
                            </mask>
                            <g id="Clip-3"></g>
                            <path d="M2.8125,3.84223957 L8.4375,13.6782829 L8.4375,40.7498846 C8.4375,44.6224753 11.5917188,47.7756298 15.46875,47.7756298 L29.53125,47.7756298 C33.4082813,47.7756298 36.5625,44.6224753 36.5625,40.7498846 L36.5625,2.81086016 L2.8125,2.81086016 L2.8125,3.84223957 Z M29.53125,50.5859279 L15.46875,50.5859279 C10.040625,50.5859279 5.625,46.1723547 5.625,40.7498846 L5.625,14.4244171 L0,4.58837371 L0,0.000562059621 L39.375,0.000562059621 L39.375,40.7498846 C39.375,46.1723547 34.959375,50.5859279 29.53125,50.5859279 L29.53125,50.5859279 Z" id="Fill-2" fill="#222829" mask="url(#mask-2)"></path>
                        </g>
                        <mask id="mask-4" fill="white">
                            <use xlink:href="#path-3"></use>
                        </mask>
                        <g id="Clip-6"></g>
                        <polygon id="Fill-5" fill="#232C33" mask="url(#mask-4)" points="6.92307692 58.0948509 33.6418269 58.0948509 33.6418269 55.2845528 6.92307692 55.2845528"></polygon>
                        <polygon id="Fill-7" fill="#232C33" mask="url(#mask-4)" points="6.92307692 52.5663957 13.9543269 52.5663957 13.9543269 49.7560976 6.92307692 49.7560976"></polygon>
                        <polygon id="Fill-8" fill="#232C33" mask="url(#mask-4)" points="6.92307692 69.1517615 13.9543269 69.1517615 13.9543269 66.3414634 6.92307692 66.3414634"></polygon>
                        <polygon id="Fill-9" fill="#232C33" mask="url(#mask-4)" points="6.92307692 63.6233062 13.9543269 63.6233062 13.9543269 60.8130081 6.92307692 60.8130081"></polygon>
                        <polygon id="Fill-10" fill="#232C33" mask="url(#mask-4)" points="6.92307692 74.6802168 13.9543269 74.6802168 13.9543269 71.8699187 6.92307692 71.8699187"></polygon>
                        <path d="M59.4086538,84.7926829 L36.9086538,84.7926829 C29.1545913,84.7926829 22.8461538,78.4891843 22.8461538,70.7411924 L22.8461538,70.2985705 L42.5336538,42.1955894 L42.5336538,13.1300813 L45.3461538,13.1300813 L45.3461538,43.0808333 L25.6670913,71.1725732 C25.8949038,77.1711545 30.8491226,81.9823848 36.9086538,81.9823848 L59.4086538,81.9823848 C65.4681851,81.9823848 70.4224038,77.1711545 70.6502163,71.1725732 L50.9711538,43.0808333 L50.9711538,13.1300813 L53.7836538,13.1300813 L53.7836538,42.1955894 L73.4711538,70.2985705 L73.4711538,70.7411924 C73.4711538,78.4891843 67.1627163,84.7926829 59.4086538,84.7926829" id="Fill-11" fill="#232C33" mask="url(#mask-4)"></path>
                        <polygon id="Fill-12" fill="#232C33" mask="url(#mask-4)" points="39.4615385 14.5582656 56.3365385 14.5582656 56.3365385 11.7479675 39.4615385 11.7479675"></polygon>
                        <polygon id="Fill-13" fill="#232C33" mask="url(#mask-4)" points="25.6153846 71.9159892 34.0528846 71.9159892 34.0528846 69.1056911 25.6153846 69.1056911"></polygon>
                        <polygon id="Fill-14" fill="#232C33" mask="url(#mask-4)" points="42.2307692 71.9159892 70.3557692 71.9159892 70.3557692 69.1056911 42.2307692 69.1056911"></polygon>
                        <polygon id="Fill-15" fill="#232C33" mask="url(#mask-4)" points="47.7692308 22.8509485 51.9879808 22.8509485 51.9879808 20.0406504 47.7692308 20.0406504"></polygon>
                        <polygon id="Fill-16" fill="#232C33" mask="url(#mask-4)" points="47.7692308 28.3794038 51.9879808 28.3794038 51.9879808 25.5691057 47.7692308 25.5691057"></polygon>
                        <polygon id="Fill-17" fill="#232C33" mask="url(#mask-4)" points="47.7692308 33.9078591 51.9879808 33.9078591 51.9879808 31.097561 47.7692308 31.097561"></polygon>
                        <polygon id="Fill-18" fill="#232C33" mask="url(#mask-4)" points="47.7692308 39.4363144 51.9879808 39.4363144 51.9879808 36.6260163 47.7692308 36.6260163"></polygon>
                        <path d="M63.0649038,17.3224932 C62.2900601,17.3224932 61.6586538,17.9534051 61.6586538,18.7276423 L61.6586538,35.7735054 L67.9094351,31.6100488 C68.1400601,31.4568875 68.4128726,31.3739837 68.6899038,31.3739837 L85.5649038,31.3739837 C86.3397476,31.3739837 86.9711538,30.7430718 86.9711538,29.9688347 L86.9711538,18.7276423 C86.9711538,17.9534051 86.3397476,17.3224932 85.5649038,17.3224932 L63.0649038,17.3224932 Z M60.2524038,39.804878 C60.0245913,39.804878 59.7967788,39.7500772 59.5886538,39.6390705 C59.1316226,39.3945745 58.8461538,38.918229 58.8461538,38.399729 L58.8461538,18.7276423 C58.8461538,16.4035257 60.7389663,14.5121951 63.0649038,14.5121951 L85.5649038,14.5121951 C87.8908413,14.5121951 89.7836538,16.4035257 89.7836538,18.7276423 L89.7836538,29.9688347 C89.7836538,32.2929512 87.8908413,34.1842818 85.5649038,34.1842818 L69.1159976,34.1842818 L61.0328726,39.568813 C60.7966226,39.7247846 60.5252163,39.804878 60.2524038,39.804878 L60.2524038,39.804878 Z" id="Fill-19" fill="#232C33" mask="url(#mask-4)"></path>
                        <polygon id="Fill-20" fill="#232C33" mask="url(#mask-4)" points="73.3846154 25.6151762 76.1971154 25.6151762 76.1971154 22.804878 73.3846154 22.804878"></polygon>
                        <polygon id="Fill-21" fill="#232C33" mask="url(#mask-4)" points="78.9230769 25.6151762 81.7355769 25.6151762 81.7355769 22.804878 78.9230769 22.804878"></polygon>
                        <polygon id="Fill-22" fill="#232C33" mask="url(#mask-4)" points="67.8461538 25.6151762 70.6586538 25.6151762 70.6586538 22.804878 67.8461538 22.804878"></polygon>
                        <path d="M26.4158654,20.0867209 C24.0899279,20.0867209 22.1971154,21.9780515 22.1971154,24.302168 C22.1971154,26.6262846 24.0899279,28.5176152 26.4158654,28.5176152 C28.7418029,28.5176152 30.6346154,26.6262846 30.6346154,24.302168 C30.6346154,21.9780515 28.7418029,20.0867209 26.4158654,20.0867209 M26.4158654,31.3279133 C22.5388341,31.3279133 19.3846154,28.176164 19.3846154,24.302168 C19.3846154,20.4281721 22.5388341,17.2764228 26.4158654,17.2764228 C30.2928966,17.2764228 33.4471154,20.4281721 33.4471154,24.302168 C33.4471154,28.176164 30.2928966,31.3279133 26.4158654,31.3279133" id="Fill-23" fill="#00BEEA" mask="url(#mask-4)"></path>
                        <path d="M11.1634615,14.5582656 C9.61236779,14.5582656 8.35096154,15.8186843 8.35096154,17.3685637 C8.35096154,18.9184431 9.61236779,20.1788618 11.1634615,20.1788618 C12.7145553,20.1788618 13.9759615,18.9184431 13.9759615,17.3685637 C13.9759615,15.8186843 12.7145553,14.5582656 11.1634615,14.5582656 M11.1634615,22.9891599 C8.06127404,22.9891599 5.53846154,20.4683225 5.53846154,17.3685637 C5.53846154,14.2688049 8.06127404,11.7479675 11.1634615,11.7479675 C14.265649,11.7479675 16.7884615,14.2688049 16.7884615,17.3685637 C16.7884615,20.4683225 14.265649,22.9891599 11.1634615,22.9891599" id="Fill-24" fill="#00BEEA" mask="url(#mask-4)"></path>
                        <path d="M22.2403846,2.8102981 C20.6892909,2.8102981 19.4278846,4.0707168 19.4278846,5.62059621 C19.4278846,7.17047561 20.6892909,8.43089431 22.2403846,8.43089431 C23.7914784,8.43089431 25.0528846,7.17047561 25.0528846,5.62059621 C25.0528846,4.0707168 23.7914784,2.8102981 22.2403846,2.8102981 M22.2403846,11.2411924 C19.1381971,11.2411924 16.6153846,8.72035501 16.6153846,5.62059621 C16.6153846,2.5208374 19.1381971,0 22.2403846,0 C25.3425721,0 27.8653846,2.5208374 27.8653846,5.62059621 C27.8653846,8.72035501 25.3425721,11.2411924 22.2403846,11.2411924" id="Fill-25" fill="#00BEEA" mask="url(#mask-4)"></path>
                        <polygon id="Fill-26" fill="#00BEEA" mask="url(#mask-4)" points="13.8461538 28.3794038 16.6586538 28.3794038 16.6586538 25.5691057 13.8461538 25.5691057"></polygon>
                        <polygon id="Fill-27" fill="#00BEEA" mask="url(#mask-4)" points="8.30769231 9.0298103 11.1201923 9.0298103 11.1201923 6.2195122 8.30769231 6.2195122"></polygon>
                        <polygon id="Fill-28" fill="#00BEEA" mask="url(#mask-4)" points="31.1538462 14.5582656 33.9663462 14.5582656 33.9663462 11.7479675 31.1538462 11.7479675"></polygon>
                    </g>
                </g>
            </g>
        </g>
    </g>
</svg>