<?xml version="1.0" encoding="UTF-8"?>
<svg width="11px" height="24px" viewBox="0 0 11 24" version="1.1" xmlns="http://www.w3.org/2000/svg" xmlns:xlink="http://www.w3.org/1999/xlink">
    <!-- Generator: Sketch 44.1 (41455) - http://www.bohemiancoding.com/sketch -->
    <title>Fill 1</title>
    <desc>Created with Sketch.</desc>
    <defs></defs>
    <g id="Welcome" stroke="none" stroke-width="1" fill="none" fill-rule="evenodd">
        <g id="Single-Product---Desktop" transform="translate(-1322.000000, -863.000000)" fill="#5D5D5D">
            <g id="ADD-TO-CART" transform="translate(903.000000, 687.000000)">
                <g id="Notes" transform="translate(3.000000, 166.000000)">
                    <path d="M426.392614,28.9354708 C426.163345,28.7315771 425.791961,28.7315771 425.562692,28.9354708 L421.869214,32.2187324 L421.869214,11.7811927 L425.269224,14.8035765 C425.383858,14.9054805 425.534009,14.9564754 425.684209,14.9564754 C425.83436,14.9564754 425.984511,14.9054805 426.099146,14.8035765 C426.328463,14.5998111 426.328463,14.2696711 426.099146,14.065863 L421.699283,10.154578 C421.684653,10.1414871 421.669301,10.1290806 421.653227,10.1174014 C421.650629,10.1155191 421.647885,10.113979 421.645287,10.1121394 C421.632918,10.1034549 421.62031,10.0949843 421.607171,10.0872409 C421.601252,10.0836901 421.595092,10.0806954 421.589028,10.0774013 C421.578826,10.0718398 421.568719,10.0661927 421.558084,10.0611874 C421.550961,10.0577649 421.54355,10.0549413 421.536235,10.0518183 C421.526321,10.047583 421.516551,10.0432194 421.506301,10.0394547 C421.498601,10.0366311 421.490756,10.0343637 421.482912,10.0318397 C421.472805,10.0285883 421.462747,10.0251659 421.4524,10.0223423 C421.444026,10.0201177 421.435556,10.018492 421.427086,10.0165669 C421.417076,10.0142995 421.407162,10.0118182 421.396912,10.0100214 C421.386517,10.0081818 421.375977,10.0071123 421.365486,10.0057861 C421.357064,10.0047166 421.348786,10.003262 421.340316,10.0025348 C421.30172,9.99915508 421.262834,9.99915508 421.224286,10.0025348 C421.215816,10.003262 421.207635,10.0047166 421.199261,10.0057433 C421.188721,10.0070695 421.178134,10.0081818 421.167691,10.0100214 C421.157488,10.0118182 421.147574,10.0142995 421.137564,10.0165669 C421.129094,10.0184493 421.120576,10.0200749 421.112202,10.0223423 C421.101807,10.0251659 421.091797,10.0285883 421.081739,10.0318397 C421.073894,10.0343637 421.065953,10.0366311 421.058253,10.0394974 C421.048051,10.0432194 421.038281,10.047583 421.028368,10.0518183 C421.021053,10.0549413 421.013641,10.0577649 421.006471,10.0611874 C420.995883,10.0661927 420.985777,10.0718398 420.975574,10.0774013 C420.96951,10.0806954 420.96335,10.0836901 420.957431,10.0872409 C420.944196,10.095027 420.931587,10.1035404 420.919171,10.1122249 C420.91662,10.1140217 420.913877,10.1155619 420.911375,10.1174014 C420.895301,10.1290806 420.879901,10.1414871 420.865271,10.1546208 L416.465457,14.065863 C416.236139,14.2696711 416.236139,14.5998111 416.465457,14.8035765 C416.694678,15.0074274 417.066109,15.0074274 417.295331,14.8035765 L420.695388,11.7811927 L420.695388,32.2187324 L417.00191,28.9354708 C416.772641,28.7315771 416.401257,28.7315771 416.171988,28.9354708 C415.942671,29.139279 415.942671,29.4693762 416.171988,29.6731844 L420.86734,33.8471439 C420.981975,33.9490052 421.132078,34 421.282277,34 C421.432476,34 421.582627,33.9490052 421.697262,33.8471439 L426.392614,29.6731844 C426.621932,29.4693762 426.621932,29.139279 426.392614,28.9354708" id="Fill-1"></path>
                </g>
            </g>
        </g>
    </g>
</svg>