<?xml version="1.0" encoding="UTF-8"?>
<svg width="126px" height="118px" viewBox="0 0 126 118" version="1.1" xmlns="http://www.w3.org/2000/svg" xmlns:xlink="http://www.w3.org/1999/xlink">
    <!-- Generator: Sketch 44.1 (41455) - http://www.bohemiancoding.com/sketch -->
    <title>Icon</title>
    <desc>Created with Sketch.</desc>
    <defs></defs>
    <g id="Welcome" stroke="none" stroke-width="1" fill="none" fill-rule="evenodd">
        <g id="Service---Desktop" transform="translate(-860.000000, -1605.000000)">
            <g id="Process" transform="translate(101.000000, 1504.000000)">
                <g id="Icon" transform="translate(759.000000, 101.000000)">
                    <path d="M116.71572,113.943504 L17.9051414,113.943504 L9.28423125,113.943504 L9.28423125,105.331471 C9.28423125,104.965425 9.58102031,104.66895 9.94720781,104.66895 L89.4581297,104.66895 C90.5178094,104.66895 91.4431219,103.870238 91.5115359,102.814138 C91.5865945,101.656754 90.669157,100.694071 89.5262977,100.694071 L70.2948094,100.694071 L70.2948094,60.3523292 C70.2948094,59.293525 69.4947586,58.3694375 68.4370477,58.3013417 C67.2781922,58.2266083 66.3157195,59.1433208 66.3157195,60.2844792 L66.3157195,100.694071 L59.6842313,100.694071 L59.6842313,60.8029417 L59.6842313,60.3523292 L59.6842313,40.8525833 C59.6842313,40.5674167 59.8668328,40.3142083 60.137782,40.2239875 L81.3584461,33.1577542 C81.4937977,33.1125208 81.6431766,33.1125208 81.7780359,33.1577542 L102.999192,40.2239875 C103.269895,40.3142083 103.452497,40.5674167 103.452497,40.8525833 L103.452497,42.3981375 L65.7206648,42.3981375 C64.6612313,42.3981375 63.7359188,43.19685 63.6672586,44.2531958 C63.5924461,45.4105792 64.5096375,46.3727708 65.652743,46.3727708 L103.452497,46.3727708 L103.452497,100.694071 L97.5521531,100.694071 C96.4927195,100.694071 95.567407,101.493029 95.498993,102.549129 C95.4239344,103.706513 96.3413719,104.66895 97.4842313,104.66895 L116.052743,104.66895 C116.41893,104.66895 116.71572,104.965425 116.71572,105.331471 L116.71572,113.943504 Z M11.9368758,19.7972042 C11.9368758,19.5120375 12.1194773,19.2588292 12.3904266,19.1688542 L26.4502547,14.4872042 C26.4785555,14.4783542 26.5071023,14.4690125 26.535157,14.4589333 L33.6118289,12.102375 C33.7464422,12.0573875 33.8953289,12.0576333 34.0306805,12.102375 L41.1071063,14.4586875 C41.1349148,14.4690125 41.1634617,14.4783542 41.1922547,14.4869583 L55.2518367,19.1686083 C55.5225398,19.2585833 55.7051414,19.5117917 55.7051414,19.7969583 L55.7051414,21.1994375 L17.9733094,21.1994375 C16.9138758,21.1994375 15.9885633,21.99815 15.9201492,23.0544958 C15.8450906,24.2118792 16.762282,25.1743167 17.9051414,25.1743167 L55.7051414,25.1743167 L55.7051414,60.2844792 L55.7051414,60.7350917 L55.7051414,100.694071 L22.5474539,100.694071 L22.5474539,38.1294875 C20.7913289,36.1362708 18.5683641,37.3516708 18.5683641,39.0857792 L18.5683641,100.694071 L11.9368758,100.694071 L11.9368758,19.7972042 Z M27.8524969,4.6381375 C27.8524969,4.2723375 28.149532,3.97561667 28.5157195,3.97561667 L39.1262977,3.97561667 C39.4924852,3.97561667 39.7895203,4.2723375 39.7895203,4.6381375 L39.7895203,9.8301375 L35.28945,8.33178333 C34.3422352,8.01637917 33.2995359,8.01637917 32.3530594,8.33178333 L27.8524969,9.8301375 L27.8524969,4.6381375 Z M75.6000984,25.8368375 C75.6000984,25.4707917 75.8968875,25.1743167 76.263075,25.1743167 L86.8736531,25.1743167 C87.2400867,25.1743167 87.5368758,25.4707917 87.5368758,25.8368375 L87.5368758,30.8855167 L83.0363133,29.3869167 C82.563075,29.2293375 82.0657195,29.1506708 81.5686102,29.1506708 C81.0710086,29.1506708 80.5741453,29.2293375 80.1004148,29.3869167 L75.6000984,30.8855167 L75.6000984,25.8368375 Z M107.431341,88.7701708 L113.399852,88.7701708 C113.632657,88.7701708 113.855618,88.7301 114.063321,88.6570875 L114.063321,100.694071 L107.431341,100.694071 L107.431341,88.7701708 Z M107.431341,78.170575 L114.063321,78.170575 L114.063321,84.9086208 C113.855618,84.8353625 113.632657,84.7955375 113.399852,84.7955375 L107.431341,84.7955375 L107.431341,78.170575 Z M107.431341,74.1959417 L114.063075,74.1959417 L114.063075,67.5714708 L107.431341,67.5714708 L107.431341,74.1959417 Z M107.431341,63.5965917 L114.063075,63.5965917 L114.063075,56.9721208 L107.431341,56.9721208 L107.431341,63.5965917 Z M107.431341,46.3727708 L113.399852,46.3727708 C113.632657,46.3727708 113.855618,46.3331917 114.063321,46.2596875 L114.063321,52.9974875 L107.431341,52.9974875 L107.431341,46.3727708 Z M79.5789422,21.1994375 L76.263075,21.1994375 C73.6992703,21.1994375 71.6210086,23.2757458 71.6210086,25.8368375 L71.6210086,32.2103125 L59.6842313,36.1849458 L59.6842313,19.7969583 C59.6842313,17.7978417 58.4084813,16.0300542 56.5101141,15.3977708 L43.7683641,11.1551792 L43.7683641,4.6381375 C43.7683641,2.07704583 41.6901023,0.000983333333 39.1262977,0.000983333333 L35.8104305,0 L31.8315867,0 L28.5157195,0.000983333333 C25.9521609,0.000983333333 23.8736531,2.07704583 23.8736531,4.6381375 L23.8736531,11.1551792 L11.1319031,15.3977708 C9.23353594,16.0300542 7.95778594,17.7978417 7.95778594,19.7972042 L7.95778594,101.142225 C6.39090703,101.887592 5.3053875,103.485262 5.3053875,105.331471 L5.3053875,113.943504 L2.05744219,113.943504 C0.998008594,113.943504 0.0726960938,114.741971 0.00428203125,115.798317 C-0.0707765625,116.955946 0.846660938,117.918137 1.98952031,117.918137 L17.8372195,117.918137 L124.010677,117.918137 C125.15329,117.918137 126.070727,116.955946 125.995669,115.798317 C125.927255,114.741971 125.001942,113.943504 123.942509,113.943504 L120.694809,113.943504 L120.694809,105.331471 C120.694809,103.485262 119.609044,101.887592 118.042165,101.142225 L118.042165,39.153875 C118.042165,38.0950708 117.242114,37.1707375 116.184649,37.1026417 C115.025794,37.0281542 114.063321,37.9448667 114.063321,39.0857792 L114.063321,42.5112208 C113.855618,42.4382083 113.632657,42.3981375 113.399852,42.3981375 L107.431341,42.3981375 L107.431341,40.8525833 C107.431341,38.8534667 106.155837,37.0854333 104.25747,36.45315 L91.5159656,32.2103125 L91.5159656,25.8368375 C91.5159656,23.2757458 89.4374578,21.1994375 86.8736531,21.1994375 L83.558032,21.1994375 L79.5789422,21.1994375 Z" id="Fill-1" fill="#222829"></path>
                    <path d="M75.6000984,25.8368375 C75.6000984,25.4707917 75.8968875,25.1743167 76.263075,25.1743167 L86.8736531,25.1743167 C87.2400867,25.1743167 87.5368758,25.4707917 87.5368758,25.8368375 L87.5368758,30.8855167 L83.0363133,29.3869167 C82.563075,29.2293375 82.0657195,29.1506708 81.5686102,29.1506708 C81.0710086,29.1506708 80.5741453,29.2293375 80.1004148,29.3869167 L75.6000984,30.8855167 L75.6000984,25.8368375 Z" id="Path" fill="#00BEEA"></path>
                    <path d="M27.8524969,4.6381375 C27.8524969,4.2723375 28.149532,3.97561667 28.5157195,3.97561667 L39.1262977,3.97561667 C39.4924852,3.97561667 39.7895203,4.2723375 39.7895203,4.6381375 L39.7895203,9.8301375 L35.28945,8.33178333 C34.3422352,8.01637917 33.2995359,8.01637917 32.3530594,8.33178333 L27.8524969,9.8301375 L27.8524969,4.6381375 Z" id="Path" fill="#00BEEA"></path>
                </g>
            </g>
        </g>
    </g>
</svg>