<?xml version="1.0" encoding="UTF-8"?>
<svg width="22px" height="22px" viewBox="0 0 22 22" version="1.1" xmlns="http://www.w3.org/2000/svg" xmlns:xlink="http://www.w3.org/1999/xlink">
    <!-- Generator: Sketch 44.1 (41455) - http://www.bohemiancoding.com/sketch -->
    <title>Page 1</title>
    <desc>Created with Sketch.</desc>
    <defs>
        <polygon id="path-1" points="10.750125 0 21.5 0 21.5 15.5 0.00025 15.5 0.00025 0"></polygon>
    </defs>
    <g id="Welcome" stroke="none" stroke-width="1" fill="none" fill-rule="evenodd">
        <g id="Home---Desktop" transform="translate(-1370.000000, -28.000000)">
            <g id="Navigation">
                <g id="CART" transform="translate(1358.000000, 16.000000)">
                    <g id="Page-1" transform="translate(12.000000, 12.000000)">
                        <g id="Group-3">
                            <mask id="mask-2" fill="white">
                                <use xlink:href="#path-1"></use>
                            </mask>
                            <g id="Clip-2"></g>
                            <path d="M18.21925,15.5 L8.23675,15.5 C7.57525,15.5 6.99975,15.0755 6.80425,14.4445 L2.63175,1 L0.50025,1 C0.22375,1 0.00025,0.7765 0.00025,0.5 C0.00025,0.2235 0.22375,0 0.50025,0 L3.36825,0 L7.75925,14.148 C7.82425,14.359 8.01625,14.5 8.23675,14.5 L18.21925,14.5 C18.44875,14.5 18.64875,14.344 18.70425,14.121 L20.51475,6.879 C20.58225,6.611 20.85475,6.448 21.12125,6.515 C21.38925,6.582 21.55225,6.8535 21.48525,7.121 L19.67475,14.364 C19.50725,15.0325 18.90875,15.5 18.21925,15.5" id="Fill-1" fill="#FFFFFF" mask="url(#mask-2)"></path>
                        </g>
                        <path d="M10,17.5 C9.173,17.5 8.5,18.173 8.5,19 C8.5,19.827 9.173,20.5 10,20.5 C10.827,20.5 11.5,19.827 11.5,19 C11.5,18.173 10.827,17.5 10,17.5 M10,21.5 C8.6215,21.5 7.5,20.3785 7.5,19 C7.5,17.6215 8.6215,16.5 10,16.5 C11.3785,16.5 12.5,17.6215 12.5,19 C12.5,20.3785 11.3785,21.5 10,21.5" id="Fill-4" fill="#FFFFFF"></path>
                        <path d="M17.5,17.5 C16.673,17.5 16,18.173 16,19 C16,19.827 16.673,20.5 17.5,20.5 C18.327,20.5 19,19.827 19,19 C19,18.173 18.327,17.5 17.5,17.5 M17.5,21.5 C16.1215,21.5 15,20.3785 15,19 C15,17.6215 16.1215,16.5 17.5,16.5 C18.8785,16.5 20,17.6215 20,19 C20,20.3785 18.8785,21.5 17.5,21.5" id="Fill-6" fill="#FFFFFF"></path>
                        <path d="M20.5,9.5 L8.5,9.5 C8.224,9.5 8,9.2765 8,9 C8,8.7235 8.224,8.5 8.5,8.5 L20.5,8.5 C20.776,8.5 21,8.7235 21,9 C21,9.2765 20.776,9.5 20.5,9.5" id="Fill-8" fill="#FFFFFF"></path>
                    </g>
                </g>
            </g>
        </g>
    </g>
</svg>