<?xml version="1.0" encoding="UTF-8"?>
<svg width="28px" height="28px" viewBox="0 0 28 28" version="1.1" xmlns="http://www.w3.org/2000/svg" xmlns:xlink="http://www.w3.org/1999/xlink">
    <!-- Generator: Sketch 44.1 (41455) - http://www.bohemiancoding.com/sketch -->
    <title>Page 1</title>
    <desc>Created with Sketch.</desc>
    <defs></defs>
    <g id="Welcome" stroke="none" stroke-width="1" fill="none" fill-rule="evenodd">
        <g id="Cart---Personal" transform="translate(-941.000000, -382.000000)" fill="#00BEEA">
            <g id="Contact-Info" transform="translate(900.000000, 252.000000)">
                <g id="Text-Content" transform="translate(41.000000, 38.000000)">
                    <g id="Page-1" transform="translate(0.000000, 92.000000)">
                        <path d="M13.6606571,1.21428063 C6.79754295,1.21428063 1.21428063,6.79754295 1.21428063,13.6606571 C1.21428063,20.5237712 6.79754295,26.1070335 13.6606571,26.1070335 C20.5237712,26.1070335 26.1070335,20.5237712 26.1070335,13.6606571 C26.1070335,6.79754295 20.5237712,1.21428063 13.6606571,1.21428063 M13.6606571,27.3213141 C6.12786718,27.3213141 0,21.1928398 0,13.6606571 C0,6.12847432 6.12786718,0 13.6606571,0 C21.1934469,0 27.3213141,6.12847432 27.3213141,13.6606571 C27.3213141,21.1928398 21.1934469,27.3213141 13.6606571,27.3213141" id="Fill-1"></path>
                        <path d="M13.5302172,26.7280093 C13.1950758,26.7280093 12.9230769,26.4566175 12.9230769,26.1208689 L12.9230769,24.299448 C12.9230769,23.9636994 13.1950758,23.6923077 13.5302172,23.6923077 C13.8653587,23.6923077 14.1373575,23.9636994 14.1373575,24.299448 L14.1373575,26.1208689 C14.1373575,26.4566175 13.8653587,26.7280093 13.5302172,26.7280093" id="Fill-3"></path>
                        <path d="M26.1208689,14.1373575 L24.299448,14.1373575 C23.9643066,14.1373575 23.6923077,13.8659658 23.6923077,13.5302172 C23.6923077,13.1944686 23.9643066,12.9230769 24.299448,12.9230769 L26.1208689,12.9230769 C26.4560104,12.9230769 26.7280093,13.1944686 26.7280093,13.5302172 C26.7280093,13.8659658 26.4560104,14.1373575 26.1208689,14.1373575" id="Fill-5"></path>
                        <path d="M2.42856125,14.1373575 L0.607140313,14.1373575 C0.27199886,14.1373575 0,13.8659658 0,13.5302172 C0,13.1944686 0.27199886,12.9230769 0.607140313,12.9230769 L2.42856125,12.9230769 C2.76370271,12.9230769 3.03570157,13.1944686 3.03570157,13.5302172 C3.03570157,13.8659658 2.76370271,14.1373575 2.42856125,14.1373575" id="Fill-7"></path>
                        <path d="M12.7032815,13.7927577 C12.7263529,14.1066493 12.9892446,14.3543625 13.3086004,14.3543625 C13.6279562,14.3543625 13.890848,14.1066493 13.9139193,13.7927577 L13.3086004,10.4625931 L12.7032815,13.7927577 Z M13.3086004,15.5686432 C12.3043903,15.5686432 11.4871795,14.7514323 11.4871795,13.7472222 C11.4871795,13.7107938 11.4902152,13.6743654 11.4968937,13.6385441 L12.7111744,6.96000066 C12.7639956,6.67160901 13.0153517,6.46153846 13.3086004,6.46153846 C13.6018492,6.46153846 13.8538124,6.67160901 13.9060265,6.96000066 L15.1203071,13.6385441 C15.1269857,13.6743654 15.1300214,13.7107938 15.1300214,13.7472222 C15.1300214,14.7514323 14.3128105,15.5686432 13.3086004,15.5686432 L13.3086004,15.5686432 Z" id="Fill-9"></path>
                        <path d="M19.6017722,20.2089125 C19.4463442,20.2089125 19.2909163,20.1494127 19.172524,20.0310204 L13.1011208,13.9596172 C12.863729,13.7222254 12.863729,13.3385127 13.1011208,13.1011208 C13.3385127,12.863729 13.7222254,12.863729 13.9596172,13.1011208 L20.0310204,19.172524 C20.2684122,19.4099158 20.2684122,19.7936285 20.0310204,20.0310204 C19.912628,20.1494127 19.7572001,20.2089125 19.6017722,20.2089125" id="Fill-11"></path>
                        <path d="M21.4278049,6.81047646 C21.272377,6.81047646 21.1169491,6.75097671 20.9985567,6.63258435 C20.7611649,6.39519249 20.7611649,6.01147981 20.9985567,5.77408795 L22.2863013,4.4857362 C22.523086,4.24834434 22.908013,4.24834434 23.1447977,4.4857362 C23.3821896,4.72312807 23.3821896,5.10684075 23.1447977,5.34423261 L21.8570531,6.63258435 C21.7386608,6.75097671 21.5832328,6.81047646 21.4278049,6.81047646" id="Fill-13"></path>
                        <path d="M4.19703569,23.323297 C4.04160777,23.323297 3.88617985,23.2637972 3.76778749,23.1454049 C3.53039562,22.908013 3.53039562,22.5243003 3.76778749,22.2869085 L5.05553209,20.9985567 C5.29231681,20.7611649 5.67724377,20.7611649 5.91402849,20.9985567 C6.15142036,21.2359486 6.15142036,21.6196613 5.91402849,21.8570531 L4.62628389,23.1454049 C4.50789153,23.2637972 4.35246361,23.323297 4.19703569,23.323297" id="Fill-15"></path>
                        <path d="M22.7155495,23.323297 C22.5601216,23.323297 22.4046937,23.2637972 22.2863013,23.1454049 L20.9985567,21.8570531 C20.7611649,21.6196613 20.7611649,21.2359486 20.9985567,20.9985567 C21.2353414,20.7611649 21.6202684,20.7611649 21.8570531,20.9985567 L23.1447977,22.2869085 C23.3821896,22.5243003 23.3821896,22.908013 23.1447977,23.1454049 C23.0264054,23.2637972 22.8709774,23.323297 22.7155495,23.323297" id="Fill-17"></path>
                        <path d="M5.48478029,6.81047646 C5.32935237,6.81047646 5.17392445,6.75097671 5.05553209,6.63258435 L3.76778749,5.34423261 C3.53039562,5.10684075 3.53039562,4.72312807 3.76778749,4.4857362 C4.00457221,4.24834434 4.38949917,4.24834434 4.62628389,4.4857362 L5.91402849,5.77408795 C6.15142036,6.01147981 6.15142036,6.39519249 5.91402849,6.63258435 C5.79563613,6.75097671 5.64020821,6.81047646 5.48478029,6.81047646" id="Fill-19"></path>
                    </g>
                </g>
            </g>
        </g>
    </g>
</svg>