<?xml version="1.0" encoding="UTF-8"?>
<svg width="15px" height="15px" viewBox="0 0 15 15" version="1.1" xmlns="http://www.w3.org/2000/svg" xmlns:xlink="http://www.w3.org/1999/xlink">
    <!-- Generator: Sketch 44.1 (41455) - http://www.bohemiancoding.com/sketch -->
    <title>Page 1</title>
    <desc>Created with Sketch.</desc>
    <defs></defs>
    <g id="Welcome" stroke="none" stroke-width="1" fill="none" fill-rule="evenodd">
        <g id="Home---Desktop" transform="translate(-1311.000000, -32.000000)" fill="#FFFFFF">
            <g id="Navigation">
                <g id="ACTIVE-SEARCH" transform="translate(904.000000, 15.000000)">
                    <g id="Page-1" transform="translate(407.000000, 17.000000)">
                        <path d="M8.08920833,7.5 L14.8779583,0.71125 C14.9537917,0.635833333 15.0000417,0.531666667 15.0000417,0.416666667 C15.0000417,0.186666667 14.8137917,0 14.583375,0 C14.4687917,0 14.364625,0.0466666667 14.2887917,0.122083333 L7.50004167,6.91083333 L0.711291667,0.122083333 C0.635875,0.0466666667 0.531708333,0 0.416708333,0 C0.186291667,0 4.16666667e-05,0.186666667 4.16666667e-05,0.416666667 C4.16666667e-05,0.531666667 0.0462916667,0.635833333 0.122125,0.711666667 L6.910875,7.5 L0.122125,14.28875 C0.0462916667,14.3641667 4.16666667e-05,14.4683333 4.16666667e-05,14.5833333 C4.16666667e-05,14.81375 0.186291667,15 0.416708333,15 C0.531708333,15 0.635875,14.9533333 0.711291667,14.8779167 L7.50004167,8.08916667 L14.2887917,14.8779167 C14.364625,14.9533333 14.4687917,15 14.583375,15 C14.8137917,15 15.0000417,14.81375 15.0000417,14.5833333 C15.0000417,14.4683333 14.9537917,14.3641667 14.8779583,14.28875 L8.08920833,7.5 Z" id="Fill-1"></path>
                    </g>
                </g>
            </g>
        </g>
    </g>
</svg>