<?xml version="1.0" encoding="UTF-8"?>
<svg width="10px" height="10px" viewBox="0 0 10 10" version="1.1" xmlns="http://www.w3.org/2000/svg" xmlns:xlink="http://www.w3.org/1999/xlink">
    <!-- Generator: Sketch 44.1 (41455) - http://www.bohemiancoding.com/sketch -->
    <title>Fill 1</title>
    <desc>Created with Sketch.</desc>
    <defs></defs>
    <g id="Welcome" stroke="none" stroke-width="1" fill="none" fill-rule="evenodd">
        <g id="Cart---Desktop" transform="translate(-1128.000000, -673.000000)" fill="#FFFFFF">
            <g id="Products" transform="translate(191.000000, 473.000000)">
                <g id="Hover" transform="translate(0.000000, 162.000000)">
                    <g id="Remove" transform="translate(927.000000, 28.000000)">
                        <path d="M16.1422914,13.8577086 L16.1422914,9.50294716 C16.1422914,8.87467742 15.6282697,8.36065574 15,8.36065574 C14.3718248,8.36065574 13.8577086,8.87467742 13.8577086,9.50294716 L13.8577086,13.8577086 L9.50294716,13.8577086 C8.87467742,13.8577086 8.36065574,14.3717303 8.36065574,15 C8.36065574,15.6281752 8.87467742,16.1422914 9.50294716,16.1422914 L13.8577086,16.1422914 L13.8577086,20.4970528 C13.8577086,21.125228 14.3718248,21.6392497 15,21.6392497 C15.6282697,21.6392497 16.1422914,21.125228 16.1422914,20.4970528 L16.1422914,16.1422914 L20.4970528,16.1422914 C21.1253226,16.1422914 21.6393443,15.6281752 21.6393443,15 C21.6393443,14.3717303 21.1253226,13.8577086 20.4970528,13.8577086 L16.1422914,13.8577086 Z" id="Fill-1" transform="translate(15.000000, 14.999953) rotate(-315.000000) translate(-15.000000, -14.999953) "></path>
                    </g>
                </g>
            </g>
        </g>
    </g>
</svg>