<?xml version="1.0" encoding="UTF-8"?>
<svg width="106px" height="113px" viewBox="0 0 106 113" version="1.1" xmlns="http://www.w3.org/2000/svg" xmlns:xlink="http://www.w3.org/1999/xlink">
    <!-- Generator: Sketch 44.1 (41455) - http://www.bohemiancoding.com/sketch -->
    <title>Icon</title>
    <desc>Created with Sketch.</desc>
    <defs>
        <polygon id="path-1" points="-3.86358155e-14 98.136375 -3.86358155e-14 120 120 120 120 0 -3.86358155e-14 0 -3.86358155e-14 98.136375 119.999812 98.136375 119.999812 0.00075 -0.0001875 0.00075 -0.0001875 98.136375"></polygon>
    </defs>
    <g id="Welcome" stroke="none" stroke-width="1" fill="none" fill-rule="evenodd">
        <g id="Service---Desktop" transform="translate(-112.000000, -1610.000000)">
            <g id="Process" transform="translate(101.000000, 1504.000000)">
                <g id="Icon" transform="translate(0.000000, 99.000000)">
                    <g id="Group-3">
                        <mask id="mask-2" fill="white">
                            <use xlink:href="#path-1"></use>
                        </mask>
                        <g id="Clip-2"></g>
                        <path d="M13.6760625,98.136375 C4.8560625,87.43575 -0.0001875,73.89075 -0.0001875,60.00075 C-0.0001875,26.916375 26.9154375,0.00075 59.9998125,0.00075 C93.0841875,0.00075 119.999812,26.916375 119.999812,60.00075 L116.249812,60.00075 C116.249812,28.9845 91.0160625,3.75075 59.9998125,3.75075 C28.9835625,3.75075 3.7498125,28.9845 3.7498125,60.00075 C3.7498125,73.022625 8.3023125,85.720125 16.5691875,95.751375 L13.6760625,98.136375 Z" id="Fill-1" fill="#222829" mask="url(#mask-2)"></path>
                    </g>
                    <path d="M64,120 C50.096875,120 36.54625,115.13625 25.841875,106.305 L28.226875,103.411875 C38.261875,111.69 50.966875,116.25 64,116.25 L64,120 Z" id="Fill-4" fill="#232C33"></path>
                    <path d="M64,112.5 C54.375625,112.5 44.963125,109.873125 36.780625,104.900625 L38.726875,101.69625 C46.3225,106.310625 55.061875,108.75 64,108.75 C75.236875,108.75 85.796875,105.035625 94.534375,98.004375 L96.885625,100.9275 C87.608125,108.39 75.92875,112.5 64,112.5" id="Fill-6" fill="#232C33"></path>
                    <path d="M105.018438,92.77125 L102.089688,90.429375 C109.064688,81.710625 112.750938,71.188125 112.750938,60 C112.750938,53.76375 111.588438,47.68875 109.299063,41.945625 L112.780938,40.55625 C115.248438,46.74375 116.500938,53.285625 116.500938,60 C116.500938,72.04875 112.529688,83.38125 105.018438,92.77125" id="Fill-8" fill="#232C33"></path>
                    <path d="M94.6913125,22.1218125 C86.0494375,15.1111875 75.1500625,11.2505625 63.9994375,11.2505625 L63.9994375,7.5005625 C76.0088125,7.5005625 87.7463125,11.6574375 97.0538125,19.2099375 L94.6913125,22.1218125 Z" id="Fill-10" fill="#232C33"></path>
                    <path d="M19.106125,87.23325 C14.129875,79.047 11.49925,69.63075 11.49925,60.00075 L15.24925,60.00075 C15.24925,68.942625 17.692375,77.68575 22.3105,85.285125 L19.106125,87.23325 Z" id="Fill-12" fill="#232C33"></path>
                    <path d="M104.17525,80.29275 L100.83025,78.599625 C103.76275,72.802125 105.249625,66.543375 105.249625,59.999625 C105.249625,37.254 86.74525,18.749625 63.999625,18.749625 C58.078375,18.749625 52.359625,19.979625 47.0065,22.402125 L45.4615,18.984 C51.302125,16.34025 57.54025,14.999625 63.999625,14.999625 C88.813375,14.999625 108.999625,35.185875 108.999625,59.999625 C108.999625,67.13775 107.37775,73.964625 104.17525,80.29275" id="Fill-14" fill="#232C33"></path>
                    <path d="M64,105 C39.188125,105 19,84.81375 19,60 C19,52.228125 21.01375,44.56875 24.821875,37.845 L28.08625,39.69375 C24.595,45.853125 22.75,52.875 22.75,60 C22.75,82.745625 41.254375,101.25 64,101.25 C70.5925,101.25 76.890625,99.7425 82.718125,96.76875 L84.4225,100.11 C78.0625,103.355625 71.190625,105 64,105" id="Fill-16" fill="#232C33"></path>
                    <path d="M94.9613125,46.545375 C89.5969375,34.21725 77.4431875,26.250375 63.9994375,26.250375 C57.2363125,26.250375 50.7113125,28.241625 45.1313125,32.01225 L43.0331875,28.905375 C49.2356875,24.71475 56.4844375,22.500375 63.9994375,22.500375 C78.9375625,22.500375 92.4394375,31.350375 98.4000625,45.049125 L94.9613125,46.545375 Z" id="Fill-18" fill="#232C33"></path>
                    <path d="M28.4115625,71.8505625 C27.1421875,68.0405625 26.4990625,64.0543125 26.4990625,60.0005625 C26.4990625,51.5161875 29.2646875,43.5118125 34.4940625,36.8518125 L37.4434375,39.1693125 C32.7371875,45.1618125 30.2490625,52.3636875 30.2490625,60.0005625 C30.2490625,63.6511875 30.8284375,67.2399375 31.9684375,70.6655625 L28.4115625,71.8505625 Z" id="Fill-20" fill="#232C33"></path>
                    <path d="M64,97.5 L64,93.75 C77.936875,93.75 90.2575,85.378125 95.39125,72.421875 L98.87875,73.801875 C93.175,88.198125 79.48375,97.5 64,97.5" id="Fill-22" fill="#232C33"></path>
                    <path d="M64,90 C47.45875,90 34,76.54125 34,60 L37.75,60 C37.75,74.475 49.525,86.25 64,86.25 C76.45,86.25 87.270625,77.4075 89.730625,65.225625 L93.4075,65.968125 C90.595,79.891875 78.2275,90 64,90" id="Fill-24" fill="#232C33"></path>
                    <path d="M89.7161875,54.7081875 C87.2299375,42.5638125 76.4149375,33.7494375 64.0005625,33.7494375 L64.0005625,29.9994375 C78.1886875,29.9994375 90.5486875,40.0756875 93.3893125,53.9563125 L89.7161875,54.7081875 Z" id="Fill-26" fill="#232C33"></path>
                    <path d="M64,48.75 C57.795625,48.75 52.75,53.795625 52.75,60 C52.75,66.204375 57.795625,71.25 64,71.25 C70.204375,71.25 75.25,66.204375 75.25,60 C75.25,53.795625 70.204375,48.75 64,48.75 M64,75 C55.729375,75 49,68.270625 49,60 C49,51.729375 55.729375,45 64,45 C72.270625,45 79,51.729375 79,60 C79,68.270625 72.270625,75 64,75" id="Fill-28" fill="#232C33"></path>
                    <path d="M22.75,97.5 C20.681875,97.5 19,99.181875 19,101.25 C19,103.318125 20.681875,105 22.75,105 C24.818125,105 26.5,103.318125 26.5,101.25 C26.5,99.181875 24.818125,97.5 22.75,97.5 M22.75,108.75 C18.61375,108.75 15.25,105.38625 15.25,101.25 C15.25,97.11375 18.61375,93.75 22.75,93.75 C26.88625,93.75 30.25,97.11375 30.25,101.25 C30.25,105.38625 26.88625,108.75 22.75,108.75" id="Fill-30" fill="#00BEEA"></path>
                    <path d="M92.125,56.25 C90.056875,56.25 88.375,57.931875 88.375,60 C88.375,62.068125 90.056875,63.75 92.125,63.75 C94.193125,63.75 95.875,62.068125 95.875,60 C95.875,57.931875 94.193125,56.25 92.125,56.25 M92.125,67.5 C87.98875,67.5 84.625,64.13625 84.625,60 C84.625,55.86375 87.98875,52.5 92.125,52.5 C96.26125,52.5 99.625,55.86375 99.625,60 C99.625,64.13625 96.26125,67.5 92.125,67.5" id="Fill-32" fill="#00BEEA"></path>
                    <path d="M99.625,91.875 C97.556875,91.875 95.875,93.556875 95.875,95.625 C95.875,97.693125 97.556875,99.375 99.625,99.375 C101.693125,99.375 103.375,97.693125 103.375,95.625 C103.375,93.556875 101.693125,91.875 99.625,91.875 M99.625,103.125 C95.48875,103.125 92.125,99.76125 92.125,95.625 C92.125,91.48875 95.48875,88.125 99.625,88.125 C103.76125,88.125 107.125,91.48875 107.125,95.625 C107.125,99.76125 103.76125,103.125 99.625,103.125" id="Fill-34" fill="#00BEEA"></path>
                    <path d="M39.625,30 C37.556875,30 35.875,31.681875 35.875,33.75 C35.875,35.818125 37.556875,37.5 39.625,37.5 C41.693125,37.5 43.375,35.818125 43.375,33.75 C43.375,31.681875 41.693125,30 39.625,30 M39.625,41.25 C35.48875,41.25 32.125,37.88625 32.125,33.75 C32.125,29.61375 35.48875,26.25 39.625,26.25 C43.76125,26.25 47.125,29.61375 47.125,33.75 C47.125,37.88625 43.76125,41.25 39.625,41.25" id="Fill-36" fill="#00BEEA"></path>
                    <path d="M64,63.75 C61.931875,63.75 60.25,62.068125 60.25,60 C60.25,57.931875 61.931875,56.25 64,56.25 C66.068125,56.25 67.75,57.931875 67.75,60 C67.75,62.068125 66.068125,63.75 64,63.75" id="Fill-38" fill="#232C33"></path>
                </g>
            </g>
        </g>
    </g>
</svg>