<?xml version="1.0" encoding="UTF-8"?>
<svg width="20px" height="24px" viewBox="0 0 20 24" version="1.1" xmlns="http://www.w3.org/2000/svg" xmlns:xlink="http://www.w3.org/1999/xlink">
    <!-- Generator: Sketch 44.1 (41455) - http://www.bohemiancoding.com/sketch -->
    <title>Page 1</title>
    <desc>Created with Sketch.</desc>
    <defs></defs>
    <g id="Welcome" stroke="none" stroke-width="1" fill="none" fill-rule="evenodd">
        <g id="Home---Desktop" transform="translate(-1131.000000, -3467.000000)" fill="#00BEEA">
            <g id="Footer" transform="translate(0.000000, 3026.000000)">
                <g id="Download-CTA" transform="translate(1131.000000, 441.000000)">
                    <g id="Page-1">
                        <path d="M1.54462243,1.04347826 C1.26092677,1.04347826 1.02974828,1.27721739 1.02974828,1.56521739 L1.02974828,22.4347826 C1.02974828,22.7227826 1.26092677,22.9565217 1.54462243,22.9565217 L13.2193936,22.9565217 L18.5354691,19.0387826 L18.5354691,1.56521739 C18.5354691,1.27721739 18.3042906,1.04347826 18.020595,1.04347826 L1.54462243,1.04347826 Z M13.3867277,24 L1.54462243,24 C0.693020595,24 0,23.2977391 0,22.4347826 L0,1.56521739 C0,0.70226087 0.693020595,0 1.54462243,0 L18.020595,0 C18.8721968,0 19.5652174,0.70226087 19.5652174,1.56521739 L19.5652174,19.3043478 C19.5652174,19.4713043 19.4864416,19.6278261 19.3530892,19.7264348 L13.6894737,23.9003478 C13.6014302,23.9650435 13.4953661,24 13.3867277,24 L13.3867277,24 Z" id="Fill-1"></path>
                        <path d="M12.8718535,22.9565217 C12.587643,22.9565217 12.3569794,22.7233043 12.3569794,22.4347826 L12.3569794,18.7826087 C12.3569794,18.494087 12.587643,18.2608696 12.8718535,18.2608696 L18.5354691,18.2608696 C18.8196796,18.2608696 19.0503432,18.494087 19.0503432,18.7826087 C19.0503432,19.0711304 18.8196796,19.3043478 18.5354691,19.3043478 L13.3867277,19.3043478 L13.3867277,22.4347826 C13.3867277,22.7233043 13.1560641,22.9565217 12.8718535,22.9565217" id="Fill-3"></path>
                        <path d="M12.3569794,5.2173913 L7.20823799,5.2173913 C6.92402746,5.2173913 6.69336384,4.98417391 6.69336384,4.69565217 C6.69336384,4.40713043 6.92402746,4.17391304 7.20823799,4.17391304 L12.3569794,4.17391304 C12.6411899,4.17391304 12.8718535,4.40713043 12.8718535,4.69565217 C12.8718535,4.98417391 12.6411899,5.2173913 12.3569794,5.2173913" id="Fill-5"></path>
                        <path d="M10.2974828,9.39130435 L3.60411899,9.39130435 C3.31990847,9.39130435 3.08924485,9.15808696 3.08924485,8.86956522 C3.08924485,8.58104348 3.31990847,8.34782609 3.60411899,8.34782609 L10.2974828,8.34782609 C10.5816934,8.34782609 10.812357,8.58104348 10.812357,8.86956522 C10.812357,9.15808696 10.5816934,9.39130435 10.2974828,9.39130435" id="Fill-7"></path>
                        <path d="M10.2974828,11.4782609 L3.60411899,11.4782609 C3.31990847,11.4782609 3.08924485,11.2450435 3.08924485,10.9565217 C3.08924485,10.668 3.31990847,10.4347826 3.60411899,10.4347826 L10.2974828,10.4347826 C10.5816934,10.4347826 10.812357,10.668 10.812357,10.9565217 C10.812357,11.2450435 10.5816934,11.4782609 10.2974828,11.4782609" id="Fill-9"></path>
                        <path d="M10.2974828,13.5652174 L3.60411899,13.5652174 C3.31990847,13.5652174 3.08924485,13.332 3.08924485,13.0434783 C3.08924485,12.7549565 3.31990847,12.5217391 3.60411899,12.5217391 L10.2974828,12.5217391 C10.5816934,12.5217391 10.812357,12.7549565 10.812357,13.0434783 C10.812357,13.332 10.5816934,13.5652174 10.2974828,13.5652174" id="Fill-11"></path>
                        <path d="M10.2974828,15.6521739 L3.60411899,15.6521739 C3.31990847,15.6521739 3.08924485,15.4189565 3.08924485,15.1304348 C3.08924485,14.841913 3.31990847,14.6086957 3.60411899,14.6086957 L10.2974828,14.6086957 C10.5816934,14.6086957 10.812357,14.841913 10.812357,15.1304348 C10.812357,15.4189565 10.5816934,15.6521739 10.2974828,15.6521739" id="Fill-13"></path>
                        <path d="M15.9610984,9.39130435 L14.416476,9.39130435 C14.1322654,9.39130435 13.9016018,9.15808696 13.9016018,8.86956522 C13.9016018,8.58104348 14.1322654,8.34782609 14.416476,8.34782609 L15.9610984,8.34782609 C16.2453089,8.34782609 16.4759725,8.58104348 16.4759725,8.86956522 C16.4759725,9.15808696 16.2453089,9.39130435 15.9610984,9.39130435" id="Fill-15"></path>
                        <path d="M15.9610984,11.4782609 L14.416476,11.4782609 C14.1322654,11.4782609 13.9016018,11.2450435 13.9016018,10.9565217 C13.9016018,10.668 14.1322654,10.4347826 14.416476,10.4347826 L15.9610984,10.4347826 C16.2453089,10.4347826 16.4759725,10.668 16.4759725,10.9565217 C16.4759725,11.2450435 16.2453089,11.4782609 15.9610984,11.4782609" id="Fill-17"></path>
                        <path d="M15.9610984,13.5652174 L14.416476,13.5652174 C14.1322654,13.5652174 13.9016018,13.332 13.9016018,13.0434783 C13.9016018,12.7549565 14.1322654,12.5217391 14.416476,12.5217391 L15.9610984,12.5217391 C16.2453089,12.5217391 16.4759725,12.7549565 16.4759725,13.0434783 C16.4759725,13.332 16.2453089,13.5652174 15.9610984,13.5652174" id="Fill-19"></path>
                        <path d="M15.9610984,15.6521739 L14.416476,15.6521739 C14.1322654,15.6521739 13.9016018,15.4189565 13.9016018,15.1304348 C13.9016018,14.841913 14.1322654,14.6086957 14.416476,14.6086957 L15.9610984,14.6086957 C16.2453089,14.6086957 16.4759725,14.841913 16.4759725,15.1304348 C16.4759725,15.4189565 16.2453089,15.6521739 15.9610984,15.6521739" id="Fill-21"></path>
                    </g>
                </g>
            </g>
        </g>
    </g>
</svg>