<?xml version="1.0" encoding="UTF-8"?>
<svg width="16px" height="19px" viewBox="0 0 16 19" version="1.1" xmlns="http://www.w3.org/2000/svg" xmlns:xlink="http://www.w3.org/1999/xlink">
    <!-- Generator: Sketch 44.1 (41455) - http://www.bohemiancoding.com/sketch -->
    <title>Page 1</title>
    <desc>Created with Sketch.</desc>
    <defs></defs>
    <g id="Welcome" stroke="none" stroke-width="1" fill="none" fill-rule="evenodd">
        <g id="Single-Product---Desktop" transform="translate(-803.000000, -285.000000)" fill="#00BEEA">
            <g id="Left-Column" transform="translate(313.000000, 172.000000)">
                <g id="Download-PDF" transform="translate(287.000000, 107.000000)">
                    <path d="M218.157895,23.7608696 C218.157895,23.9884565 217.968842,24.173913 217.736842,24.173913 L204.263158,24.173913 C204.031158,24.173913 203.842105,23.9884565 203.842105,23.7608696 L203.842105,7.23913043 C203.842105,7.01154348 204.031158,6.82608696 204.263158,6.82608696 L213.105263,6.82608696 L213.105263,11.3695652 C213.105263,11.5975652 213.293895,11.7826087 213.526316,11.7826087 L218.157895,11.7826087 L218.157895,16.326087 L218.157895,23.7608696 Z M213.947368,7.41013043 L217.562526,10.9565217 L213.947368,10.9565217 L213.947368,7.41013043 Z M218.876632,11.0775435 L213.824,6.12102174 C213.745263,6.04336957 213.637895,6 213.526316,6 L204.263158,6 C203.566737,6 203,6.55595652 203,7.23913043 L203,23.7608696 C203,24.4440435 203.566737,25 204.263158,25 L217.736842,25 C218.433263,25 219,24.4440435 219,23.7608696 L219,11.3695652 C219,11.2601087 218.955789,11.1547826 218.876632,11.0775435 L218.876632,11.0775435 Z" id="Page-1"></path>
                </g>
            </g>
        </g>
    </g>
</svg>