<?xml version="1.0" encoding="UTF-8"?>
<svg  viewBox="0 0 38 45" version="1.1" xmlns="http://www.w3.org/2000/svg" xmlns:xlink="http://www.w3.org/1999/xlink">
    <!-- Generator: Sketch 44.1 (41455) - http://www.bohemiancoding.com/sketch -->
    <title>Page 1</title>
    <desc>Created with Sketch.</desc>
    <defs></defs>
    <g id="Welcome" stroke="none" stroke-width="1" fill="none" fill-rule="evenodd">
        <g id="Cart---Thanks" transform="translate(-345.000000, -648.000000)" fill="#00BEEA">
            <g id="Email-Download" transform="translate(345.000000, 621.000000)">
                <g id="Page-1" transform="translate(0.000000, 27.000000)">
                    <path d="M2.93478261,1.95652174 C2.39576087,1.95652174 1.95652174,2.39478261 1.95652174,2.93478261 L1.95652174,42.0652174 C1.95652174,42.6052174 2.39576087,43.0434783 2.93478261,43.0434783 L25.1168478,43.0434783 L35.2173913,35.6977174 L35.2173913,2.93478261 C35.2173913,2.39478261 34.7781522,1.95652174 34.2391304,1.95652174 L2.93478261,1.95652174 Z M25.4347826,45 L2.93478261,45 C1.31673913,45 0,43.6832609 0,42.0652174 L0,2.93478261 C0,1.31673913 1.31673913,0 2.93478261,0 L34.2391304,0 C35.8571739,0 37.173913,1.31673913 37.173913,2.93478261 L37.173913,36.1956522 C37.173913,36.5086957 37.0242391,36.8021739 36.7708696,36.9870652 L26.01,44.8131522 C25.8427174,44.9344565 25.6411957,45 25.4347826,45 L25.4347826,45 Z" id="Fill-1"></path>
                    <path d="M24.4565217,43.0434783 C23.9165217,43.0434783 23.4782609,42.6061957 23.4782609,42.0652174 L23.4782609,35.2173913 C23.4782609,34.676413 23.9165217,34.2391304 24.4565217,34.2391304 L35.2173913,34.2391304 C35.7573913,34.2391304 36.1956522,34.676413 36.1956522,35.2173913 C36.1956522,35.7583696 35.7573913,36.1956522 35.2173913,36.1956522 L25.4347826,36.1956522 L25.4347826,42.0652174 C25.4347826,42.6061957 24.9965217,43.0434783 24.4565217,43.0434783" id="Fill-3"></path>
                    <path d="M23.4782609,9.7826087 L13.6956522,9.7826087 C13.1556522,9.7826087 12.7173913,9.34532609 12.7173913,8.80434783 C12.7173913,8.26336957 13.1556522,7.82608696 13.6956522,7.82608696 L23.4782609,7.82608696 C24.0182609,7.82608696 24.4565217,8.26336957 24.4565217,8.80434783 C24.4565217,9.34532609 24.0182609,9.7826087 23.4782609,9.7826087" id="Fill-5"></path>
                    <path d="M19.5652174,17.6086957 L6.84782609,17.6086957 C6.30782609,17.6086957 5.86956522,17.171413 5.86956522,16.6304348 C5.86956522,16.0894565 6.30782609,15.6521739 6.84782609,15.6521739 L19.5652174,15.6521739 C20.1052174,15.6521739 20.5434783,16.0894565 20.5434783,16.6304348 C20.5434783,17.171413 20.1052174,17.6086957 19.5652174,17.6086957" id="Fill-7"></path>
                    <path d="M19.5652174,21.5217391 L6.84782609,21.5217391 C6.30782609,21.5217391 5.86956522,21.0844565 5.86956522,20.5434783 C5.86956522,20.0025 6.30782609,19.5652174 6.84782609,19.5652174 L19.5652174,19.5652174 C20.1052174,19.5652174 20.5434783,20.0025 20.5434783,20.5434783 C20.5434783,21.0844565 20.1052174,21.5217391 19.5652174,21.5217391" id="Fill-9"></path>
                    <path d="M19.5652174,25.4347826 L6.84782609,25.4347826 C6.30782609,25.4347826 5.86956522,24.9975 5.86956522,24.4565217 C5.86956522,23.9155435 6.30782609,23.4782609 6.84782609,23.4782609 L19.5652174,23.4782609 C20.1052174,23.4782609 20.5434783,23.9155435 20.5434783,24.4565217 C20.5434783,24.9975 20.1052174,25.4347826 19.5652174,25.4347826" id="Fill-11"></path>
                    <path d="M19.5652174,29.3478261 L6.84782609,29.3478261 C6.30782609,29.3478261 5.86956522,28.9105435 5.86956522,28.3695652 C5.86956522,27.828587 6.30782609,27.3913043 6.84782609,27.3913043 L19.5652174,27.3913043 C20.1052174,27.3913043 20.5434783,27.828587 20.5434783,28.3695652 C20.5434783,28.9105435 20.1052174,29.3478261 19.5652174,29.3478261" id="Fill-13"></path>
                    <path d="M30.326087,17.6086957 L27.3913043,17.6086957 C26.8513043,17.6086957 26.4130435,17.171413 26.4130435,16.6304348 C26.4130435,16.0894565 26.8513043,15.6521739 27.3913043,15.6521739 L30.326087,15.6521739 C30.866087,15.6521739 31.3043478,16.0894565 31.3043478,16.6304348 C31.3043478,17.171413 30.866087,17.6086957 30.326087,17.6086957" id="Fill-15"></path>
                    <path d="M30.326087,21.5217391 L27.3913043,21.5217391 C26.8513043,21.5217391 26.4130435,21.0844565 26.4130435,20.5434783 C26.4130435,20.0025 26.8513043,19.5652174 27.3913043,19.5652174 L30.326087,19.5652174 C30.866087,19.5652174 31.3043478,20.0025 31.3043478,20.5434783 C31.3043478,21.0844565 30.866087,21.5217391 30.326087,21.5217391" id="Fill-17"></path>
                    <path d="M30.326087,25.4347826 L27.3913043,25.4347826 C26.8513043,25.4347826 26.4130435,24.9975 26.4130435,24.4565217 C26.4130435,23.9155435 26.8513043,23.4782609 27.3913043,23.4782609 L30.326087,23.4782609 C30.866087,23.4782609 31.3043478,23.9155435 31.3043478,24.4565217 C31.3043478,24.9975 30.866087,25.4347826 30.326087,25.4347826" id="Fill-19"></path>
                    <path d="M30.326087,29.3478261 L27.3913043,29.3478261 C26.8513043,29.3478261 26.4130435,28.9105435 26.4130435,28.3695652 C26.4130435,27.828587 26.8513043,27.3913043 27.3913043,27.3913043 L30.326087,27.3913043 C30.866087,27.3913043 31.3043478,27.828587 31.3043478,28.3695652 C31.3043478,28.9105435 30.866087,29.3478261 30.326087,29.3478261" id="Fill-21"></path>
                </g>
            </g>
        </g>
    </g>
</svg>