<?xml version="1.0" encoding="UTF-8"?>
<svg width="17px" height="17px" viewBox="0 0 17 17" version="1.1" xmlns="http://www.w3.org/2000/svg" xmlns:xlink="http://www.w3.org/1999/xlink">
    <!-- Generator: Sketch 44.1 (41455) - http://www.bohemiancoding.com/sketch -->
    <title>Path</title>
    <desc>Created with Sketch.</desc>
    <defs></defs>
    <g id="Welcome" stroke="none" stroke-width="1" fill="none" fill-rule="evenodd">
        <g id="Cart---Desktop" transform="translate(-1163.000000, -670.000000)" fill="#FFFFFF">
            <g id="Products" transform="translate(191.000000, 473.000000)">
                <g id="Hover" transform="translate(0.000000, 162.000000)">
                    <path d="M988.129875,38.794375 L986.705625,40.21925 L983.805125,37.319375 L982.705125,38.419375 L985.605,41.319875 L978.49225,48.432125 L975.59225,45.53275 L974.49175,46.63275 L977.391625,49.53275 L976.683125,50.24175 L976.669375,50.228 C976.590875,50.357375 976.462875,50.451625 976.3115,50.485375 L973.606875,51.088375 C973.566375,51.097625 973.525375,51.102 973.484375,51.102 C973.336875,51.102 973.193375,51.044 973.087375,50.9375 C972.950625,50.80125 972.894,50.605 972.936,50.417 L973.538625,47.713375 C973.57275,47.562 973.6675,47.433625 973.796375,47.3555 L973.78275,47.34175 L985.23,35.894 C985.3975,35.7265 985.670375,35.7265 985.837875,35.8945 L988.130375,38.1865 C988.298375,38.354 988.298375,38.6265 988.129875,38.794375 Z" id="Path"></path>
                </g>
            </g>
        </g>
    </g>
</svg>