<?xml version="1.0" encoding="UTF-8"?>
<svg width="27px" height="27px" viewBox="0 0 27 27" version="1.1" xmlns="http://www.w3.org/2000/svg" xmlns:xlink="http://www.w3.org/1999/xlink">
    <!-- Generator: Sketch 44.1 (41455) - http://www.bohemiancoding.com/sketch -->
    <title>Page 1</title>
    <desc>Created with Sketch.</desc>
    <defs></defs>
    <g id="Welcome" stroke="none" stroke-width="1" fill="none" fill-rule="evenodd">
        <g id="Cart---Personal" transform="translate(-943.000000, -616.000000)" fill="#00BEEA">
            <g id="Contact-Info" transform="translate(900.000000, 252.000000)">
                <g id="Text-Content" transform="translate(41.000000, 38.000000)">
                    <g id="Page-1" transform="translate(2.000000, 326.000000)">
                        <path d="M8.2173913,7.63043478 C7.89280435,7.63043478 7.63043478,7.8933913 7.63043478,8.2173913 C7.63043478,8.5413913 7.89280435,8.80434783 8.2173913,8.80434783 L18.7826087,8.80434783 C19.1071957,8.80434783 19.3695652,8.5413913 19.3695652,8.2173913 C19.3695652,7.8933913 19.1071957,7.63043478 18.7826087,7.63043478 L8.2173913,7.63043478 Z" id="Fill-1"></path>
                        <path d="M18.7826087,10.5652174 L8.2173913,10.5652174 C7.89280435,10.5652174 7.63043478,10.8281739 7.63043478,11.1521739 C7.63043478,11.4761739 7.89280435,11.7391304 8.2173913,11.7391304 L18.7826087,11.7391304 C19.1071957,11.7391304 19.3695652,11.4761739 19.3695652,11.1521739 C19.3695652,10.8281739 19.1071957,10.5652174 18.7826087,10.5652174" id="Fill-3"></path>
                        <path d="M24.6521739,25.826087 L2.34782609,25.826087 C1.70041304,25.826087 1.17391304,25.299587 1.17391304,24.6521739 L1.17391304,14.3927609 L25.7691522,25.0137391 C25.6165435,25.4844783 25.1733913,25.826087 24.6521739,25.826087 L24.6521739,25.826087 Z M2.34782609,13.6215 L1.52608696,13.2663913 L2.34782609,12.2386304 L2.34782609,13.6215 Z M4.15565217,5.86956522 L7.04347826,2.26036957 L7.04347826,5.2826087 C7.04347826,5.60602174 6.78052174,5.86956522 6.45652174,5.86956522 L4.15565217,5.86956522 Z M23.4782609,1.76086957 L23.4782609,13.5 C23.4782609,13.5334565 23.4917609,13.5616304 23.4970435,13.593913 L13.257,18.2484783 C13.2288261,18.2613913 13.2100435,18.2842826 13.1848043,18.3007174 L3.5141087,14.1245217 C3.51469565,14.1116087 3.52173913,14.1004565 3.52173913,14.0869565 L3.52173913,7.04347826 L6.45652174,7.04347826 C7.42734783,7.04347826 8.2173913,6.25343478 8.2173913,5.2826087 L8.2173913,1.17391304 L22.8913043,1.17391304 C23.2153043,1.17391304 23.4782609,1.43745652 23.4782609,1.76086957 L23.4782609,1.76086957 Z M25.3987826,12.7293261 L24.6521739,13.068587 L24.6521739,11.9821304 L25.3987826,12.7293261 Z M25.826087,13.824587 L25.826087,23.759413 L14.6175652,18.9193696 L25.826087,13.824587 Z M26.9624348,12.717587 C26.9565652,12.7023261 26.9512826,12.6882391 26.9448261,12.6735652 C26.9166522,12.6119348 26.8808478,12.554413 26.8327174,12.5051087 C26.8309565,12.5027609 26.8303696,12.4998261 26.8280217,12.4980652 L24.6521739,10.3222174 L24.6521739,1.76086957 C24.6521739,0.790043478 23.8621304,0 22.8913043,0 L7.63043478,0 C7.54356522,0 7.46256522,0.0211304348 7.3886087,0.055173913 C7.36747826,0.0645652174 7.35045652,0.0815869565 7.3305,0.0939130435 C7.2806087,0.124434783 7.23365217,0.157891304 7.19491304,0.201913043 C7.18845652,0.209543478 7.1778913,0.212478261 7.17202174,0.220108696 L2.47636957,6.08967391 C2.45465217,6.11726087 2.44232609,6.15013043 2.4258913,6.18065217 C2.41415217,6.20236957 2.40006522,6.22115217 2.39067391,6.24404348 C2.36426087,6.31154348 2.34782609,6.38315217 2.34782609,6.45652174 L2.34782609,10.3591957 L0.128543478,13.1331522 C0.12326087,13.1401957 0.122086957,13.148413 0.117391304,13.1548696 C0.0792391304,13.2065217 0.0493043478,13.2634565 0.0299347826,13.3245 C0.0275869565,13.3321304 0.0234782609,13.3391739 0.0211304348,13.3468043 C0.0082173913,13.3966957 0,13.4477609 0,13.5 L0,24.6521739 C0,25.947 1.053,27 2.34782609,27 L24.6521739,27 C25.947,27 27,25.947 27,24.6521739 L27,12.9130435 C27,12.8449565 26.9841522,12.7798043 26.9624348,12.717587 L26.9624348,12.717587 Z" id="Fill-5"></path>
                    </g>
                </g>
            </g>
        </g>
    </g>
</svg>