<?xml version="1.0" encoding="UTF-8"?>
<svg viewBox="0 0 45 45" version="1.1" xmlns="http://www.w3.org/2000/svg" xmlns:xlink="http://www.w3.org/1999/xlink">
    <!-- Generator: Sketch 44.1 (41455) - http://www.bohemiancoding.com/sketch -->
    <title>Page 1</title>
    <desc>Created with Sketch.</desc>
    <defs></defs>
    <g id="Welcome" stroke="none" stroke-width="1" fill="none" fill-rule="evenodd">
        <g id="Cart---Thanks" transform="translate(-768.000000, -648.000000)" fill="#00BEEA">
            <g id="Email-Download" transform="translate(345.000000, 621.000000)">
                <g id="Page-1" transform="translate(423.000000, 27.000000)">
                    <path d="M13.6956522,12.7173913 C13.1546739,12.7173913 12.7173913,13.1556522 12.7173913,13.6956522 C12.7173913,14.2356522 13.1546739,14.673913 13.6956522,14.673913 L31.3043478,14.673913 C31.8453261,14.673913 32.2826087,14.2356522 32.2826087,13.6956522 C32.2826087,13.1556522 31.8453261,12.7173913 31.3043478,12.7173913 L13.6956522,12.7173913 Z" id="Fill-1"></path>
                    <path d="M31.3043478,17.6086957 L13.6956522,17.6086957 C13.1546739,17.6086957 12.7173913,18.0469565 12.7173913,18.5869565 C12.7173913,19.1269565 13.1546739,19.5652174 13.6956522,19.5652174 L31.3043478,19.5652174 C31.8453261,19.5652174 32.2826087,19.1269565 32.2826087,18.5869565 C32.2826087,18.0469565 31.8453261,17.6086957 31.3043478,17.6086957" id="Fill-3"></path>
                    <path d="M41.0869565,43.0434783 L3.91304348,43.0434783 C2.83402174,43.0434783 1.95652174,42.1659783 1.95652174,41.0869565 L1.95652174,23.9879348 L42.948587,41.6895652 C42.6942391,42.4741304 41.9556522,43.0434783 41.0869565,43.0434783 L41.0869565,43.0434783 Z M3.91304348,22.7025 L2.54347826,22.1106522 L3.91304348,20.3977174 L3.91304348,22.7025 Z M6.92608696,9.7826087 L11.7391304,3.76728261 L11.7391304,8.80434783 C11.7391304,9.34336957 11.3008696,9.7826087 10.7608696,9.7826087 L6.92608696,9.7826087 Z M39.1304348,2.93478261 L39.1304348,22.5 C39.1304348,22.5557609 39.1529348,22.6027174 39.1617391,22.6565217 L22.095,30.4141304 C22.0480435,30.4356522 22.0167391,30.4738043 21.9746739,30.5011957 L5.85684783,23.5408696 C5.85782609,23.5193478 5.86956522,23.5007609 5.86956522,23.4782609 L5.86956522,11.7391304 L10.7608696,11.7391304 C12.378913,11.7391304 13.6956522,10.4223913 13.6956522,8.80434783 L13.6956522,1.95652174 L38.1521739,1.95652174 C38.6921739,1.95652174 39.1304348,2.39576087 39.1304348,2.93478261 L39.1304348,2.93478261 Z M42.3313043,21.2155435 L41.0869565,21.7809783 L41.0869565,19.9702174 L42.3313043,21.2155435 Z M43.0434783,23.0409783 L43.0434783,39.5990217 L24.3626087,31.5322826 L43.0434783,23.0409783 Z M44.9373913,21.1959783 C44.9276087,21.1705435 44.9188043,21.1470652 44.9080435,21.1226087 C44.861087,21.0198913 44.801413,20.9240217 44.7211957,20.8418478 C44.7182609,20.8379348 44.7172826,20.8330435 44.7133696,20.8301087 L41.0869565,17.2036957 L41.0869565,2.93478261 C41.0869565,1.31673913 39.7702174,0 38.1521739,0 L12.7173913,0 C12.5726087,0 12.4376087,0.0352173913 12.3143478,0.0919565217 C12.2791304,0.107608696 12.2507609,0.135978261 12.2175,0.156521739 C12.1343478,0.207391304 12.056087,0.263152174 11.9915217,0.336521739 C11.9807609,0.34923913 11.9631522,0.354130435 11.9533696,0.366847826 L4.12728261,10.1494565 C4.09108696,10.1954348 4.07054348,10.2502174 4.04315217,10.301087 C4.02358696,10.3372826 4.0001087,10.368587 3.98445652,10.4067391 C3.94043478,10.5192391 3.91304348,10.638587 3.91304348,10.7608696 L3.91304348,17.2653261 L0.21423913,21.888587 C0.205434783,21.9003261 0.203478261,21.9140217 0.195652174,21.9247826 C0.132065217,22.0108696 0.082173913,22.1057609 0.0498913043,22.2075 C0.0459782609,22.2202174 0.0391304348,22.2319565 0.0352173913,22.2446739 C0.0136956522,22.3278261 0,22.4129348 0,22.5 L0,41.0869565 C0,43.245 1.755,45 3.91304348,45 L41.0869565,45 C43.245,45 45,43.245 45,41.0869565 L45,21.5217391 C45,21.4082609 44.973587,21.2996739 44.9373913,21.1959783 L44.9373913,21.1959783 Z" id="Fill-5"></path>
                </g>
            </g>
        </g>
    </g>
</svg>