<?xml version="1.0" encoding="UTF-8"?>
<svg width="26px" height="32px" viewBox="0 0 26 32" version="1.1" xmlns="http://www.w3.org/2000/svg" xmlns:xlink="http://www.w3.org/1999/xlink">
    <!-- Generator: Sketch 44.1 (41455) - http://www.bohemiancoding.com/sketch -->
    <title>Page 1</title>
    <desc>Created with Sketch.</desc>
    <defs></defs>
    <g id="Welcome" stroke="none" stroke-width="1" fill="none" fill-rule="evenodd">
        <g id="Cart---Personal" transform="translate(-941.000000, -462.000000)" fill="#00BEEA">
            <g id="Contact-Info" transform="translate(900.000000, 252.000000)">
                <g id="Text-Content" transform="translate(41.000000, 38.000000)">
                    <g id="Page-1" transform="translate(0.000000, 172.000000)">
                        <path d="M13,1.42222222 C6.62855556,1.42222222 1.44444444,6.52657778 1.44444444,12.8 C1.44444444,20.6499556 10.8376667,28.6442667 12.9992778,30.3786667 C15.1587222,28.6378667 24.5555556,20.6129778 24.5555556,12.8 C24.5555556,6.52657778 19.3714444,1.42222222 13,1.42222222 M13,32 C12.8461667,32 12.6916111,31.9516444 12.5630556,31.8549333 C12.0495556,31.4702222 0,22.3317333 0,12.8 C0,5.74222222 5.83194444,0 13,0 C20.1680556,0 26,5.74222222 26,12.8 C26,22.2869333 13.9511667,31.4673778 13.4383889,31.8535111 C13.3091111,31.9516444 13.1545556,32 13,32" id="Fill-1"></path>
                        <path d="M13,8.53333333 C10.6101667,8.53333333 8.66666667,10.4469333 8.66666667,12.8 C8.66666667,15.1530667 10.6101667,17.0666667 13,17.0666667 C15.3898333,17.0666667 17.3333333,15.1530667 17.3333333,12.8 C17.3333333,10.4469333 15.3898333,8.53333333 13,8.53333333 M13,18.4888889 C9.81427778,18.4888889 7.22222222,15.9367111 7.22222222,12.8 C7.22222222,9.66328889 9.81427778,7.11111111 13,7.11111111 C16.1857222,7.11111111 18.7777778,9.66328889 18.7777778,12.8 C18.7777778,15.9367111 16.1857222,18.4888889 13,18.4888889" id="Fill-3"></path>
                    </g>
                </g>
            </g>
        </g>
    </g>
</svg>