<?xml version="1.0" encoding="UTF-8"?>
<svg width="30px" height="27px" viewBox="0 0 30 27" version="1.1" xmlns="http://www.w3.org/2000/svg" xmlns:xlink="http://www.w3.org/1999/xlink">
    <!-- Generator: Sketch 44.1 (41455) - http://www.bohemiancoding.com/sketch -->
    <title>Page 1</title>
    <desc>Created with Sketch.</desc>
    <defs></defs>
    <g id="Welcome" stroke="none" stroke-width="1" fill="none" fill-rule="evenodd">
        <g id="Cart---Personal" transform="translate(-943.000000, -543.000000)" fill="#00BEEA">
            <g id="Contact-Info" transform="translate(900.000000, 252.000000)">
                <g id="Text-Content" transform="translate(41.000000, 38.000000)">
                    <g id="Page-1" transform="translate(2.000000, 253.000000)">
                        <path d="M14.8244681,22.7991214 C11.6565957,22.7991214 9.07978723,20.2032643 9.07978723,17.0134071 C9.07978723,13.82355 11.6565957,11.2276929 14.8244681,11.2276929 C17.9923404,11.2276929 20.5691489,13.82355 20.5691489,17.0134071 C20.5691489,20.2032643 17.9923404,22.7991214 14.8244681,22.7991214 M14.8244681,9.94197857 C10.9531915,9.94197857 7.80319149,13.1144786 7.80319149,17.0134071 C7.80319149,20.9123357 10.9531915,24.0848357 14.8244681,24.0848357 C18.6957447,24.0848357 21.8457447,20.9123357 21.8457447,17.0134071 C21.8457447,13.1144786 18.6957447,9.94197857 14.8244681,9.94197857" id="Fill-1"></path>
                        <path d="M14.8244681,19.2634071 C13.5925532,19.2634071 12.5904255,18.2541214 12.5904255,17.0134071 C12.5904255,15.7726929 13.5925532,14.7634071 14.8244681,14.7634071 C16.056383,14.7634071 17.0585106,15.7726929 17.0585106,17.0134071 C17.0585106,18.2541214 16.056383,19.2634071 14.8244681,19.2634071 M14.8244681,13.4776929 C12.8891489,13.4776929 11.3138298,15.0636214 11.3138298,17.0134071 C11.3138298,18.9631929 12.8891489,20.5491214 14.8244681,20.5491214 C16.7597872,20.5491214 18.3351064,18.9631929 18.3351064,17.0134071 C18.3351064,15.0636214 16.7597872,13.4776929 14.8244681,13.4776929" id="Fill-3"></path>
                        <path d="M16.4619574,11.8024714 C16.1242979,11.6951143 15.7668511,11.8834714 15.6608936,12.2216143 C15.5542979,12.5604 15.7406809,12.9216857 16.0764255,13.0284 C16.8162128,13.2636857 17.4742979,13.7034 17.9811064,14.3006143 C18.1068511,14.4491143 18.2855745,14.5256143 18.4662128,14.5256143 C18.6130213,14.5256143 18.7604681,14.4748286 18.8804681,14.3713286 C19.1485532,14.1405429 19.1804681,13.7349 18.9506809,13.4649 C18.288766,12.6851143 17.4283404,12.1104 16.4619574,11.8024714" id="Fill-5"></path>
                        <path d="M10.934234,14.8447286 C11.133383,14.8447286 11.3280638,14.7515143 11.4525319,14.5766571 C11.9076383,13.9402286 12.5267872,13.4465143 13.244234,13.1482286 C13.5704043,13.0125857 13.7255106,12.6371571 13.5914681,12.3086571 C13.4574255,11.9808 13.083383,11.8233 12.7578511,11.9595857 C11.8201915,12.3491571 11.0101915,12.9952286 10.4165745,13.8270857 C10.2104043,14.1150857 10.2761489,14.5168714 10.5621064,14.7238714 C10.6750851,14.8055143 10.8052979,14.8447286 10.934234,14.8447286" id="Fill-7"></path>
                        <path d="M18.3457021,19.2241929 C18.1586809,19.5256929 18.2499574,19.9216929 18.5480426,20.11005 C18.6533617,20.1762643 18.7708085,20.2077643 18.8863404,20.2077643 C19.0988936,20.2077643 19.4588936,20.10105 19.5801702,19.9062643 C20.117617,19.03905 20.5548511,18.0394071 20.5548511,17.0134071 L20.5548511,16.9671214 C20.5548511,16.6122643 20.1169787,16.3474071 19.764,16.3474071 C19.4110213,16.3474071 18.9731489,16.65855 18.9731489,17.0134071 C18.9731489,17.7976929 18.756766,18.5626929 18.3457021,19.2241929" id="Fill-9"></path>
                        <path d="M10.6874043,17.3257714 C10.6618723,16.9715571 10.3599574,16.7105571 10.0044255,16.7311286 C9.6527234,16.7574857 9.38846809,17.0654143 9.4146383,17.4196286 C9.48868085,18.4398429 9.84612766,19.4163429 10.4474043,20.2424143 C10.5725106,20.4140571 10.7665532,20.5053429 10.9631489,20.5053429 C11.094,20.5053429 11.2261277,20.4648429 11.3397447,20.3806286 C11.6244255,20.1704143 11.6850638,19.7686286 11.4769787,19.4819143 C11.0174043,18.8506286 10.7442128,18.1049143 10.6874043,17.3257714" id="Fill-11"></path>
                        <path d="M16.1141489,20.9860714 C15.3820213,21.2271429 14.5752128,21.2560714 13.8309574,21.0715714 C13.4907447,20.9886429 13.1428723,21.1982143 13.0592553,21.5427857 C12.975,21.8873571 13.1837234,22.2357857 13.5264894,22.3206429 C13.947766,22.4247857 14.385,22.4775 14.8241489,22.4775 C15.4005319,22.4775 15.9679787,22.3868571 16.5105319,22.2081429 C16.8456383,22.0975714 17.0288298,21.735 16.9190426,21.3975 C16.8098936,21.0606429 16.448617,20.8761429 16.1141489,20.9860714" id="Fill-13"></path>
                        <path d="M25.0228723,12.2142857 C24.0143617,12.2142857 23.1935106,11.3136429 23.1928723,10.2645 L23.1552128,9.504 C23.0556383,7.56385714 21.9137234,5.82364286 20.175,4.99242857 C18.8428723,4.35471429 16.5928723,3.744 14.2120213,3.744 C12.4892553,3.744 10.7403191,4.05514286 9.18159574,4.90114286 C7.50861702,5.80821429 6.51223404,7.57542857 6.51223404,9.52007143 L6.51223404,10.2233571 C6.51223404,11.2397143 5.60585106,12.2142857 4.59734043,12.2142857 L3.14202128,12.2142857 C2.13287234,12.2142857 1.31202128,11.3136429 1.31202128,10.2805714 C1.31202128,10.2799286 1.29925532,9.76628571 1.28648936,9.11892857 C1.23287234,6.3585 2.86117021,3.81792857 5.33840426,2.82407143 C7.77989362,1.84371429 10.965,1.29471429 14.3052128,1.29471429 C17.967766,1.29471429 21.3839362,1.84178571 24.051383,2.84335714 C26.582234,3.7935 28.2143617,6.29035714 28.2143617,9.06235714 L28.2143617,10.2233571 C28.2143617,11.2397143 27.5326596,12.2142857 26.5241489,12.2142857 L25.0228723,12.2142857 Z M7.81117021,8.62521429 C8.06010638,7.52592857 8.74946809,6.57128571 9.74393617,6.03192857 C13.041383,4.24285714 17.5560638,5.14607143 19.6279787,6.13671429 C20.5873404,6.59571429 21.3015957,7.41471429 21.6494681,8.39442857 C20.421383,6.76414286 18.5147872,5.81207143 16.4039362,5.76 L14.985,5.78571429 L14.9696809,5.78571429 C14.9141489,5.78571429 14.8643617,5.74264286 14.8132979,5.75614286 C14.7558511,5.74135714 14.6996809,5.69314286 14.6352128,5.69442857 L13.2162766,5.71371429 C11.0109574,5.76771429 9.02904255,6.86571429 7.81117021,8.62521429 L7.81117021,8.62521429 Z M27.5760638,19.5055714 L27.5760638,25.0714286 C27.5760638,25.4256429 27.2901064,25.7142857 26.937766,25.7142857 L14.8101064,25.7142857 L2.68244681,25.7142857 C2.33010638,25.7142857 2.04414894,25.4256429 2.04414894,25.0714286 L2.04414894,19.5055714 C2.04414894,17.5905 3.00287234,15.8335714 4.60819149,14.8069286 L7.08989362,13.2184286 C7.20734043,13.1438571 7.29670213,13.0326429 7.34521277,12.9021429 L8.20946809,10.5885 C9.00670213,8.45421429 10.9841489,7.03928571 13.2475532,6.98335714 L14.6658511,6.94864286 C14.7169149,6.94735714 14.7628723,6.92871429 14.8101064,6.91585714 C14.8573404,6.92871429 14.9032979,6.94735714 14.9543617,6.94864286 L16.3726596,6.98335714 C18.6360638,7.03928571 20.6135106,8.45421429 21.4107447,10.5885 L22.275,12.9021429 C22.3235106,13.0326429 22.4128723,13.1438571 22.5303191,13.2184286 L25.0120213,14.8069286 C26.6173404,15.8335714 27.5760638,17.5905 27.5760638,19.5055714 L27.5760638,19.5055714 Z M29.4909574,10.2233571 L29.4909574,9.06235714 C29.4909574,5.75614286 27.5256383,2.77071429 24.4975532,1.63414286 C21.6915957,0.579857143 18.081383,0 14.2701064,0 C10.7715957,0 7.43648936,0.572142857 4.84882979,1.61035714 C1.87946809,2.80221429 -0.0628723404,5.81464286 0.00159574468,9.10671429 C0.0137234043,9.74892857 0.0309574468,10.2972857 0.0309574468,10.2979286 C0.0309574468,12.0233571 1.42882979,13.5 3.14202128,13.5 L4.50095745,13.5 L3.92329787,13.7950714 C1.94776596,15.0595714 0.767553191,17.1482143 0.767553191,19.5055714 L0.767553191,25.0714286 C0.767553191,26.1347143 1.62670213,27 2.68244681,27 L14.8101064,27 L26.937766,27 C27.9935106,27 28.8526596,26.1347143 28.8526596,25.0714286 L28.8526596,19.5055714 C28.8526596,17.1482143 27.6724468,15.0595714 25.6969149,13.7950714 L25.1192553,13.5 L26.5241489,13.5 C28.2367021,13.5 29.4909574,11.9487857 29.4909574,10.2233571 L29.4909574,10.2233571 Z" id="Fill-15"></path>
                    </g>
                </g>
            </g>
        </g>
    </g>
</svg>