<?xml version="1.0" encoding="UTF-8"?>
<svg width="130px" height="123px" viewBox="0 0 130 123" version="1.1" xmlns="http://www.w3.org/2000/svg" xmlns:xlink="http://www.w3.org/1999/xlink">
    <!-- Generator: Sketch 44.1 (41455) - http://www.bohemiancoding.com/sketch -->
    <title>Icon</title>
    <desc>Created with Sketch.</desc>
    <defs>
        <polygon id="path-1" points="56.875 73.2 0 73.2 0 36.6004067 0 0.000813333333 56.875 0.000813333333"></polygon>
        <polygon id="path-3" points="0 122 130 122 130 0 0 0"></polygon>
    </defs>
    <g id="Welcome" stroke="none" stroke-width="1" fill="none" fill-rule="evenodd">
        <g id="Service---Desktop" transform="translate(-366.000000, -1600.000000)">
            <g id="Process" transform="translate(101.000000, 1504.000000)">
                <g id="Icon" transform="translate(265.000000, 96.000000)">
                    <polygon id="Fill-1" fill="#222829" points="0 122.066667 130 122.066667 130 118 0 118"></polygon>
                    <g id="Group-29">
                        <g id="Group-4" transform="translate(0.000000, 49.000000)">
                            <mask id="mask-2" fill="white">
                                <use xlink:href="#path-1"></use>
                            </mask>
                            <g id="Clip-3"></g>
                            <path d="M4.0625,5.55994667 L12.1875,19.79328 L12.1875,58.96748 C12.1875,64.5713467 16.7435937,69.1341467 22.34375,69.1341467 L42.65625,69.1341467 C48.2564062,69.1341467 52.8125,64.5713467 52.8125,58.96748 L52.8125,4.06748 L4.0625,4.06748 L4.0625,5.55994667 Z M42.65625,73.2008133 L22.34375,73.2008133 C14.503125,73.2008133 8.125,66.8141133 8.125,58.96748 L8.125,20.87298 L0,6.63964667 L0,0.000813333333 L56.875,0.000813333333 L56.875,58.96748 C56.875,66.8141133 50.496875,73.2008133 42.65625,73.2008133 L42.65625,73.2008133 Z" id="Fill-2" fill="#222829" mask="url(#mask-2)"></path>
                        </g>
                        <mask id="mask-4" fill="white">
                            <use xlink:href="#path-3"></use>
                        </mask>
                        <g id="Clip-6"></g>
                        <polygon id="Fill-5" fill="#232C33" mask="url(#mask-4)" points="10 84.0666667 48.59375 84.0666667 48.59375 80 10 80"></polygon>
                        <polygon id="Fill-7" fill="#232C33" mask="url(#mask-4)" points="10 76.0666667 20.15625 76.0666667 20.15625 72 10 72"></polygon>
                        <polygon id="Fill-8" fill="#232C33" mask="url(#mask-4)" points="10 100.066667 20.15625 100.066667 20.15625 96 10 96"></polygon>
                        <polygon id="Fill-9" fill="#232C33" mask="url(#mask-4)" points="10 92.0666667 20.15625 92.0666667 20.15625 88 10 88"></polygon>
                        <polygon id="Fill-10" fill="#232C33" mask="url(#mask-4)" points="10 108.066667 20.15625 108.066667 20.15625 104 10 104"></polygon>
                        <path d="M85.8125,122.7 L53.3125,122.7 C42.1121875,122.7 33,113.578467 33,102.366667 L33,101.726167 L61.4375,61.0595 L61.4375,19 L65.5,19 L65.5,62.3405 L37.0746875,102.9909 C37.40375,111.6712 44.5598437,118.633333 53.3125,118.633333 L85.8125,118.633333 C94.5651562,118.633333 101.72125,111.6712 102.050312,102.9909 L73.625,62.3405 L73.625,19 L77.6875,19 L77.6875,61.0595 L106.125,101.726167 L106.125,102.366667 C106.125,113.578467 97.0128125,122.7 85.8125,122.7" id="Fill-11" fill="#232C33" mask="url(#mask-4)"></path>
                        <polygon id="Fill-12" fill="#232C33" mask="url(#mask-4)" points="57 21.0666667 81.375 21.0666667 81.375 17 57 17"></polygon>
                        <polygon id="Fill-13" fill="#232C33" mask="url(#mask-4)" points="37 104.066667 49.1875 104.066667 49.1875 100 37 100"></polygon>
                        <polygon id="Fill-14" fill="#232C33" mask="url(#mask-4)" points="61 104.066667 101.625 104.066667 101.625 100 61 100"></polygon>
                        <polygon id="Fill-15" fill="#232C33" mask="url(#mask-4)" points="69 33.0666667 75.09375 33.0666667 75.09375 29 69 29"></polygon>
                        <polygon id="Fill-16" fill="#232C33" mask="url(#mask-4)" points="69 41.0666667 75.09375 41.0666667 75.09375 37 69 37"></polygon>
                        <polygon id="Fill-17" fill="#232C33" mask="url(#mask-4)" points="69 49.0666667 75.09375 49.0666667 75.09375 45 69 45"></polygon>
                        <polygon id="Fill-18" fill="#232C33" mask="url(#mask-4)" points="69 57.0666667 75.09375 57.0666667 75.09375 53 69 53"></polygon>
                        <path d="M91.09375,25.0666667 C89.9745312,25.0666667 89.0625,25.9796333 89.0625,27.1 L89.0625,51.7663667 L98.0914062,45.7416 C98.4245313,45.5199667 98.8185937,45.4 99.21875,45.4 L123.59375,45.4 C124.712969,45.4 125.625,44.4870333 125.625,43.3666667 L125.625,27.1 C125.625,25.9796333 124.712969,25.0666667 123.59375,25.0666667 L91.09375,25.0666667 Z M87.03125,57.6 C86.7021875,57.6 86.373125,57.5207 86.0725,57.3600667 C85.4123438,57.0062667 85,56.3169667 85,55.5666667 L85,27.1 C85,23.7368667 87.7340625,21 91.09375,21 L123.59375,21 C126.953437,21 129.6875,23.7368667 129.6875,27.1 L129.6875,43.3666667 C129.6875,46.7298 126.953437,49.4666667 123.59375,49.4666667 L99.8342187,49.4666667 L88.1585937,57.2584 C87.8173438,57.4841 87.4253125,57.6 87.03125,57.6 L87.03125,57.6 Z" id="Fill-19" fill="#232C33" mask="url(#mask-4)"></path>
                        <polygon id="Fill-20" fill="#232C33" mask="url(#mask-4)" points="106 37.0666667 110.0625 37.0666667 110.0625 33 106 33"></polygon>
                        <polygon id="Fill-21" fill="#232C33" mask="url(#mask-4)" points="114 37.0666667 118.0625 37.0666667 118.0625 33 114 33"></polygon>
                        <polygon id="Fill-22" fill="#232C33" mask="url(#mask-4)" points="98 37.0666667 102.0625 37.0666667 102.0625 33 98 33"></polygon>
                        <path d="M38.15625,29.0666667 C34.7965625,29.0666667 32.0625,31.8035333 32.0625,35.1666667 C32.0625,38.5298 34.7965625,41.2666667 38.15625,41.2666667 C41.5159375,41.2666667 44.25,38.5298 44.25,35.1666667 C44.25,31.8035333 41.5159375,29.0666667 38.15625,29.0666667 M38.15625,45.3333333 C32.5560937,45.3333333 28,40.7725667 28,35.1666667 C28,29.5607667 32.5560937,25 38.15625,25 C43.7564063,25 48.3125,29.5607667 48.3125,35.1666667 C48.3125,40.7725667 43.7564063,45.3333333 38.15625,45.3333333" id="Fill-23" fill="#00BEEA" mask="url(#mask-4)"></path>
                        <path d="M16.125,21.0666667 C13.8845313,21.0666667 12.0625,22.8905667 12.0625,25.1333333 C12.0625,27.3761 13.8845313,29.2 16.125,29.2 C18.3654687,29.2 20.1875,27.3761 20.1875,25.1333333 C20.1875,22.8905667 18.3654687,21.0666667 16.125,21.0666667 M16.125,33.2666667 C11.6440625,33.2666667 8,29.6188667 8,25.1333333 C8,20.6478 11.6440625,17 16.125,17 C20.6059375,17 24.25,20.6478 24.25,25.1333333 C24.25,29.6188667 20.6059375,33.2666667 16.125,33.2666667" id="Fill-24" fill="#00BEEA" mask="url(#mask-4)"></path>
                        <path d="M32.125,4.06666667 C29.8845313,4.06666667 28.0625,5.89056667 28.0625,8.13333333 C28.0625,10.3761 29.8845313,12.2 32.125,12.2 C34.3654688,12.2 36.1875,10.3761 36.1875,8.13333333 C36.1875,5.89056667 34.3654688,4.06666667 32.125,4.06666667 M32.125,16.2666667 C27.6440625,16.2666667 24,12.6188667 24,8.13333333 C24,3.6478 27.6440625,0 32.125,0 C36.6059375,0 40.25,3.6478 40.25,8.13333333 C40.25,12.6188667 36.6059375,16.2666667 32.125,16.2666667" id="Fill-25" fill="#00BEEA" mask="url(#mask-4)"></path>
                        <polygon id="Fill-26" fill="#00BEEA" mask="url(#mask-4)" points="20 41.0666667 24.0625 41.0666667 24.0625 37 20 37"></polygon>
                        <polygon id="Fill-27" fill="#00BEEA" mask="url(#mask-4)" points="12 13.0666667 16.0625 13.0666667 16.0625 9 12 9"></polygon>
                        <polygon id="Fill-28" fill="#00BEEA" mask="url(#mask-4)" points="45 21.0666667 49.0625 21.0666667 49.0625 17 45 17"></polygon>
                    </g>
                </g>
            </g>
        </g>
    </g>
</svg>