<?xml version="1.0" encoding="UTF-8"?>
<svg width="14px" height="15px" viewBox="0 0 14 15" version="1.1" xmlns="http://www.w3.org/2000/svg" xmlns:xlink="http://www.w3.org/1999/xlink">
    <!-- Generator: Sketch 44.1 (41455) - http://www.bohemiancoding.com/sketch -->
    <title>Path</title>
    <desc>Created with Sketch.</desc>
    <defs></defs>
    <g id="Welcome" stroke="none" stroke-width="1" fill="none" fill-rule="evenodd">
        <g id="Products-Selected---Desktop" transform="translate(-1204.000000, -1113.000000)" fill="#FFFFFF">
            <g id="Table" transform="translate(451.000000, 753.000000)">
                <g id="CTAs" transform="translate(725.000000, 64.000000)">
                    <path d="M40.6317222,304.255778 L35.4932778,304.255778 L35.4932778,309.394222 C35.4932778,309.812222 35.1555,310.15 34.7375,310.15 C34.3205556,310.15 33.9817222,309.812222 33.9817222,309.394222 L33.9817222,304.255778 L28.8432778,304.255778 C28.4263333,304.255778 28.0875,303.918 28.0875,303.5 C28.0875,303.083056 28.4263333,302.744222 28.8432778,302.744222 L33.9817222,302.744222 L33.9817222,297.605778 C33.9817222,297.188833 34.3205556,296.85 34.7375,296.85 C35.1555,296.85 35.4932778,297.188833 35.4932778,297.605778 L35.4932778,302.744222 L40.6317222,302.744222 C41.0497222,302.744222 41.3875,303.083056 41.3875,303.5 C41.3875,303.918 41.0497222,304.255778 40.6317222,304.255778" id="Path"></path>
                </g>
            </g>
        </g>
    </g>
</svg>