<?xml version="1.0" encoding="UTF-8"?>
<svg width="12px" height="12px" viewBox="0 0 12 12" version="1.1" xmlns="http://www.w3.org/2000/svg" xmlns:xlink="http://www.w3.org/1999/xlink">
    <!-- Generator: Sketch 44.1 (41455) - http://www.bohemiancoding.com/sketch -->
    <title>Fill 1</title>
    <desc>Created with Sketch.</desc>
    <defs></defs>
    <g id="Welcome" stroke="none" stroke-width="1" fill="none" fill-rule="evenodd">
        <g id="PPP---Mobile" transform="translate(-286.000000, -143.000000)" fill="#FFFFFF">
            <g id="Product-Menu" transform="translate(-3.000000, 126.000000)">
                <g id="Icon" transform="translate(283.000000, 11.000000)">
                    <path d="M12.9138331,11.0861669 L12.9138331,7.60235773 C12.9138331,7.09974194 12.5026158,6.68852459 12,6.68852459 C11.4974599,6.68852459 11.0861669,7.09974194 11.0861669,7.60235773 L11.0861669,11.0861669 L7.60235773,11.0861669 C7.09974194,11.0861669 6.68852459,11.4973842 6.68852459,12 C6.68852459,12.5025401 7.09974194,12.9138331 7.60235773,12.9138331 L11.0861669,12.9138331 L11.0861669,16.3976423 C11.0861669,16.9001824 11.4974599,17.3113997 12,17.3113997 C12.5026158,17.3113997 12.9138331,16.9001824 12.9138331,16.3976423 L12.9138331,12.9138331 L16.3976423,12.9138331 C16.9002581,12.9138331 17.3114754,12.5025401 17.3114754,12 C17.3114754,11.4973842 16.9002581,11.0861669 16.3976423,11.0861669 L12.9138331,11.0861669 Z" id="Fill-1"></path>
                </g>
            </g>
        </g>
    </g>
</svg>