<?xml version="1.0" encoding="UTF-8"?>
<svg width="27px" height="27px" viewBox="0 0 27 27" version="1.1" xmlns="http://www.w3.org/2000/svg" xmlns:xlink="http://www.w3.org/1999/xlink">
    <!-- Generator: Sketch 44.1 (41455) - http://www.bohemiancoding.com/sketch -->
    <title>Fill 1</title>
    <desc>Created with Sketch.</desc>
    <defs></defs>
    <g id="Welcome" stroke="none" stroke-width="1" fill="none" fill-rule="evenodd">
        <g id="Home---Desktop" transform="translate(-232.000000, -561.000000)" fill="#FFFFFF">
            <g id="Hero-Section" transform="translate(-64.000000, -39.000000)">
                <g id="Learn-More" transform="translate(279.000000, 583.000000)">
                    <g id="Icon">
                        <path d="M41.6773408,28.1773408 L32.8226592,28.1773408 L32.8226592,19.3226592 C32.8226592,18.0451774 31.7774818,17 30.5,17 C29.2227105,17 28.1773408,18.0451774 28.1773408,19.3226592 L28.1773408,28.1773408 L19.3226592,28.1773408 C18.0451774,28.1773408 17,29.2225182 17,30.5 C17,31.7772895 18.0451774,32.8226592 19.3226592,32.8226592 L28.1773408,32.8226592 L28.1773408,41.6773408 C28.1773408,42.9546303 29.2227105,43.9998077 30.5,43.9998077 C31.7774818,43.9998077 32.8226592,42.9546303 32.8226592,41.6773408 L32.8226592,32.8226592 L41.6773408,32.8226592 C42.9548226,32.8226592 44,31.7772895 44,30.5 C44,29.2225182 42.9548226,28.1773408 41.6773408,28.1773408" id="Fill-1"></path>
                    </g>
                </g>
            </g>
        </g>
    </g>
</svg>