<?xml version="1.0" encoding="UTF-8"?>
<svg width="161px" height="414px" viewBox="0 0 161 414" version="1.1" xmlns="http://www.w3.org/2000/svg" xmlns:xlink="http://www.w3.org/1999/xlink">
    <!-- Generator: Sketch 44.1 (41455) - http://www.bohemiancoding.com/sketch -->
    <title>Page 1</title>
    <desc>Created with Sketch.</desc>
    <defs>
        <polygon id="path-1" points="80.24605 0.021 160.492 0.021 160.492 36.019 0.0001 36.019 0.0001 0.021 80.24605 0.021"></polygon>
        <polygon id="path-3" points="0 414.979 160.492 414.979 160.492 1 0 1"></polygon>
    </defs>
    <g id="Welcome" stroke="none" stroke-width="1" fill="none" fill-rule="evenodd">
        <g id="Home---Desktop" transform="translate(-213.000000, -2541.000000)">
            <g id="Custom" transform="translate(0.000000, 2456.000000)">
                <g id="Group-9" transform="translate(95.000000, 58.000000)">
                    <g id="Page-1" transform="translate(118.000000, 26.000000)">
                        <path d="M80.246,414.9789 C47.525,414.9789 20.999,388.4539 20.999,355.7319 L20.999,14.4989 L139.493,14.4989 L139.493,355.7319 C139.493,388.4539 112.967,414.9789 80.246,414.9789 Z" id="Fill-1" fill="#F1F9FA"></path>
                        <g id="Group-5" transform="translate(0.000000, 0.979000)">
                            <mask id="mask-2" fill="white">
                                <use xlink:href="#path-1"></use>
                            </mask>
                            <g id="Clip-4"></g>
                            <path d="M142.4931,36.019 L17.9991,36.019 C8.0581,36.019 0.0001,27.96 0.0001,18.02 C0.0001,8.079 8.0581,0.021 17.9991,0.021 L142.4931,0.021 C152.4331,0.021 160.4921,8.079 160.4921,18.02 C160.4921,27.96 152.4331,36.019 142.4931,36.019" id="Fill-3" fill="#D2EBEF" mask="url(#mask-2)"></path>
                        </g>
                        <path d="M80.246,396.0522 L80.246,396.0522 C54.35,396.0522 33.358,375.0602 33.358,349.1642 L33.358,275.3992 L127.134,275.3992 L127.134,349.1642 C127.134,375.0602 106.142,396.0522 80.246,396.0522" id="Fill-6" fill="#2B86C8"></path>
                        <path d="M80.246,275.3988 L80.246,396.0518 C106.142,396.0518 127.134,375.0598 127.134,349.1648 L127.134,275.3988 L80.246,275.3988 Z" id="Fill-8" fill="#2C5C97"></path>
                        <mask id="mask-4" fill="white">
                            <use xlink:href="#path-3"></use>
                        </mask>
                        <g id="Clip-11"></g>
                        <polygon id="Fill-10" fill="#7DC241" mask="url(#mask-4)" points="33.358 279.399 127.134 279.399 127.134 143.594 33.358 143.594"></polygon>
                        <polygon id="Fill-12" fill="#629A41" mask="url(#mask-4)" points="80.246 279.399 127.134 279.399 127.134 143.594 80.246 143.594"></polygon>
                        <polygon id="Fill-13" fill="#D83257" mask="url(#mask-4)" points="33.358 143.594 127.134 143.594 127.134 83.496 33.358 83.496"></polygon>
                        <polygon id="Fill-14" fill="#9D2D47" mask="url(#mask-4)" points="80.246 143.594 127.134 143.594 127.134 83.496 80.246 83.496"></polygon>
                        <polygon id="Fill-15" fill="#BBE4EC" mask="url(#mask-4)" points="80.246 83.496 127.134 83.496 127.134 36.997 80.246 36.997"></polygon>
                        <path d="M142.4931,36.998 L80.2461,36.998 L80.2461,1 L142.4931,1 C152.4331,1 160.4921,9.058 160.4921,18.999 C160.4921,28.939 152.4331,36.998 142.4931,36.998" id="Fill-16" fill="#BBE4EC" mask="url(#mask-4)"></path>
                        <path d="M75.3999,258.3988 C75.3999,264.7508 70.2509,269.8988 63.8999,269.8988 C57.5489,269.8988 52.3999,264.7508 52.3999,258.3988 C52.3999,252.0468 57.5489,246.8988 63.8999,246.8988 C70.2509,246.8988 75.3999,252.0468 75.3999,258.3988" id="Fill-17" fill="#9ECB3A" mask="url(#mask-4)"></path>
                        <path d="M75.3999,346.3988 C75.3999,352.7508 70.2509,357.8988 63.8999,357.8988 C57.5489,357.8988 52.3999,352.7508 52.3999,346.3988 C52.3999,340.0468 57.5489,334.8988 63.8999,334.8988 C70.2509,334.8988 75.3999,340.0468 75.3999,346.3988" id="Fill-18" fill="#42A4DC" mask="url(#mask-4)"></path>
                        <path d="M63.8998,104.8559 C63.8998,111.2079 58.7508,116.3559 52.3998,116.3559 C46.0488,116.3559 40.8998,111.2079 40.8998,104.8559 C40.8998,98.5049 46.0488,93.3559 52.3998,93.3559 C58.7508,93.3559 63.8998,98.5049 63.8998,104.8559" id="Fill-19" fill="#EE4674" mask="url(#mask-4)"></path>
                        <path d="M109.6645,306.6371 C109.6645,312.9881 104.5165,318.1371 98.1645,318.1371 C91.8135,318.1371 86.6645,312.9881 86.6645,306.6371 C86.6645,300.2851 91.8135,295.1371 98.1645,295.1371 C104.5165,295.1371 109.6645,300.2851 109.6645,306.6371" id="Fill-20" fill="#42A4DC" mask="url(#mask-4)"></path>
                        <path d="M117.1108,335.726 C117.1108,338.436 114.9138,340.633 112.2028,340.633 C109.4918,340.633 107.2948,338.436 107.2948,335.726 C107.2948,333.015 109.4918,330.818 112.2028,330.818 C114.9138,330.818 117.1108,333.015 117.1108,335.726" id="Fill-21" fill="#42A4DC" mask="url(#mask-4)"></path>
                        <path d="M112.2026,122.9481 C112.2026,125.6581 110.0056,127.8561 107.2946,127.8561 C104.5846,127.8561 102.3876,125.6581 102.3876,122.9481 C102.3876,120.2381 104.5846,118.0401 107.2946,118.0401 C110.0056,118.0401 112.2026,120.2381 112.2026,122.9481" id="Fill-22" fill="#EE4473" mask="url(#mask-4)"></path>
                        <path d="M62.2158,311.5453 C62.2158,314.2553 60.0188,316.4523 57.3078,316.4523 C54.5968,316.4523 52.3998,314.2553 52.3998,311.5453 C52.3998,308.8343 54.5968,306.6373 57.3078,306.6373 C60.0188,306.6373 62.2158,308.8343 62.2158,311.5453" id="Fill-23" fill="#42A4DC" mask="url(#mask-4)"></path>
                        <path d="M75.3999,173.289 C75.3999,179.64 70.2509,184.789 63.8999,184.789 C57.5489,184.789 52.3999,179.64 52.3999,173.289 C52.3999,166.938 57.5489,161.789 63.8999,161.789 C70.2509,161.789 75.3999,166.938 75.3999,173.289" id="Fill-24" fill="#9ECB3A" mask="url(#mask-4)"></path>
                        <path d="M62.4125,211.4965 C62.4125,216.1975 58.6015,220.0095 53.8995,220.0095 C49.1985,220.0095 45.3875,216.1975 45.3875,211.4965 C45.3875,206.7945 49.1985,202.9835 53.8995,202.9835 C58.6015,202.9835 62.4125,206.7945 62.4125,211.4965" id="Fill-25" fill="#9ECB3A" mask="url(#mask-4)"></path>
                        <path d="M112.2026,246.8988 C112.2026,251.5998 108.3916,255.4118 103.6896,255.4118 C98.9886,255.4118 95.1776,251.5998 95.1776,246.8988 C95.1776,242.1978 98.9886,238.3858 103.6896,238.3858 C108.3916,238.3858 112.2026,242.1978 112.2026,246.8988" id="Fill-26" fill="#9ECB3A" mask="url(#mask-4)"></path>
                        <path d="M103.6899,198.6054 C103.6899,203.3074 99.8789,207.1184 95.1769,207.1184 C90.4759,207.1184 86.6649,203.3074 86.6649,198.6054 C86.6649,193.9044 90.4759,190.0924 95.1769,190.0924 C99.8789,190.0924 103.6899,193.9044 103.6899,198.6054" id="Fill-27" fill="#9ECB3A" mask="url(#mask-4)"></path>
                    </g>
                </g>
            </g>
        </g>
    </g>
</svg>