<?xml version="1.0" encoding="UTF-8"?>
<svg width="118px" height="118px" viewBox="0 0 118 118" version="1.1" xmlns="http://www.w3.org/2000/svg" xmlns:xlink="http://www.w3.org/1999/xlink">
    <!-- Generator: Sketch 44.1 (41455) - http://www.bohemiancoding.com/sketch -->
    <title>Icon</title>
    <desc>Created with Sketch.</desc>
    <defs></defs>
    <g id="Welcome" stroke="none" stroke-width="1" fill="none" fill-rule="evenodd">
        <g id="Service---Desktop" transform="translate(-1111.000000, -956.000000)">
            <g id="Advantages" transform="translate(107.000000, 799.000000)">
                <g id="Icon" transform="translate(1004.000000, 157.000000)">
                    <path d="M59,3.6875 C52.6906875,3.6875 51.625,5.52940625 51.625,11.0625 C51.625,16.3835625 54.4440938,22.125 59,22.125 C63.5559063,22.125 66.375,16.3835625 66.375,11.0625 C66.375,5.52940625 65.3093125,3.6875 59,3.6875 Z M59,25.8125 C52.074875,25.8125 47.9375,18.3139688 47.9375,11.0625 C47.9375,4.4213125 49.8199688,0 59,0 C68.1800312,0 70.0625,4.4213125 70.0625,11.0625 C70.0625,18.3139688 65.925125,25.8125 59,25.8125 Z" id="Fill-1" fill="#232C33"></path>
                    <path d="M73.75,40.5625 L44.25,40.5625 C41.2520625,40.5625 38.71875,37.18475 38.71875,33.1875 L38.71875,29.5 C38.71875,28.8399375 39.07275,28.2278125 39.648,27.899625 L52.55425,20.524625 L54.38325,23.725375 L42.40625,30.569375 L42.40625,33.1875 C42.40625,35.44425 43.7024062,36.875 44.25,36.875 L73.75,36.875 C74.2975938,36.875 75.59375,35.44425 75.59375,33.1875 L75.59375,30.569375 L63.61675,23.725375 L65.44575,20.524625 L78.352,27.899625 C78.92725,28.2278125 79.28125,28.8399375 79.28125,29.5 L79.28125,33.1875 C79.28125,37.18475 76.7479375,40.5625 73.75,40.5625" id="Fill-3" fill="#232C33"></path>
                    <path d="M20.28125,81.125 C13.9719375,81.125 12.90625,82.9669062 12.90625,88.5 C12.90625,93.8210625 15.7253438,99.5625 20.28125,99.5625 C24.8371562,99.5625 27.65625,93.8210625 27.65625,88.5 C27.65625,82.9669062 26.5905625,81.125 20.28125,81.125 M20.28125,103.25 C13.356125,103.25 9.21875,95.7514688 9.21875,88.5 C9.21875,81.8588125 11.1012187,77.4375 20.28125,77.4375 C29.4612812,77.4375 31.34375,81.8588125 31.34375,88.5 C31.34375,95.7514688 27.206375,103.25 20.28125,103.25" id="Fill-5" fill="#232C33"></path>
                    <path d="M35.03125,118 L5.53125,118 C2.5333125,118 0,114.62225 0,110.625 L0,106.9375 C0,106.277438 0.354,105.665313 0.92925,105.337125 L13.8355,97.962125 L15.6645,101.162875 L3.6875,108.006875 L3.6875,110.625 C3.6875,112.88175 4.98365625,114.3125 5.53125,114.3125 L35.03125,114.3125 C35.5788438,114.3125 36.875,112.88175 36.875,110.625 L36.875,108.006875 L24.898,101.162875 L26.727,97.962125 L39.63325,105.337125 C40.2085,105.665313 40.5625,106.277438 40.5625,106.9375 L40.5625,110.625 C40.5625,114.62225 38.0291875,118 35.03125,118" id="Fill-7" fill="#232C33"></path>
                    <path d="M97.71875,81.125 C91.4094375,81.125 90.34375,82.9669062 90.34375,88.5 C90.34375,93.8210625 93.1628437,99.5625 97.71875,99.5625 C102.274656,99.5625 105.09375,93.8210625 105.09375,88.5 C105.09375,82.9669062 104.028062,81.125 97.71875,81.125 M97.71875,103.25 C90.793625,103.25 86.65625,95.7514688 86.65625,88.5 C86.65625,81.8588125 88.5387188,77.4375 97.71875,77.4375 C106.898781,77.4375 108.78125,81.8588125 108.78125,88.5 C108.78125,95.7514688 104.643875,103.25 97.71875,103.25" id="Fill-9" fill="#232C33"></path>
                    <path d="M112.46875,118 L82.96875,118 C79.9708125,118 77.4375,114.62225 77.4375,110.625 L77.4375,106.9375 C77.4375,106.277438 77.7915,105.665313 78.36675,105.337125 L91.273,97.962125 L93.102,101.162875 L81.125,108.006875 L81.125,110.625 C81.125,112.88175 82.4211563,114.3125 82.96875,114.3125 L112.46875,114.3125 C113.016344,114.3125 114.3125,112.88175 114.3125,110.625 L114.3125,108.006875 L102.3355,101.162875 L104.1645,97.962125 L117.07075,105.337125 C117.646,105.665313 118,106.277438 118,106.9375 L118,110.625 C118,114.62225 115.466688,118 112.46875,118" id="Fill-11" fill="#232C33"></path>
                    <path d="M97.71875,70.0625 C97.24675,70.0625 96.77475,69.8818125 96.4152187,69.5222812 L89.0402187,62.1472812 L91.6472812,59.5402187 L97.71875,65.6116875 L103.790219,59.5402187 L106.397281,62.1472812 L99.0222812,69.5222812 C98.66275,69.8818125 98.19075,70.0625 97.71875,70.0625" id="Fill-13" fill="#232C33"></path>
                    <polygon id="Fill-15" fill="#232C33" points="99.5625 68.21875 95.875 68.21875 95.875 20.28125 77.4375 20.28125 77.4375 16.59375 99.5625 16.59375"></polygon>
                    <path d="M20.28125,70.0625 C19.80925,70.0625 19.33725,69.8818125 18.9777187,69.5222812 L11.6027187,62.1472812 L14.2097812,59.5402187 L20.28125,65.6116875 L26.3527187,59.5402187 L28.9597812,62.1472812 L21.5847812,69.5222812 C21.22525,69.8818125 20.75325,70.0625 20.28125,70.0625" id="Fill-17" fill="#232C33"></path>
                    <polygon id="Fill-19" fill="#232C33" points="22.125 68.21875 18.4375 68.21875 18.4375 16.59375 40.5625 16.59375 40.5625 20.28125 22.125 20.28125"></polygon>
                    <path d="M59,77.4375 C58.528,77.4375 58.056,77.2568125 57.6964687,76.8972812 L50.3214687,69.5222812 L52.9285312,66.9152187 L59,72.9866875 L72.4464687,59.5402187 L75.0535312,62.1472812 L60.3035312,76.8972812 C59.944,77.2568125 59.472,77.4375 59,77.4375" id="Fill-21" fill="#00BEEA"></path>
                    <polygon id="Fill-23" fill="#00BEEA" points="62.6875 57.15625 66.375 57.15625 66.375 53.46875 62.6875 53.46875"></polygon>
                    <path d="M59,90.34375 C48.8335625,90.34375 40.5625,82.0726875 40.5625,71.90625 C40.5625,61.7398125 48.8335625,53.46875 59,53.46875 L59,57.15625 C50.8672187,57.15625 44.25,63.7734687 44.25,71.90625 C44.25,80.0390312 50.8672187,86.65625 59,86.65625 C67.1327812,86.65625 73.75,80.0390312 73.75,71.90625 L77.4375,71.90625 C77.4375,82.0726875 69.1664375,90.34375 59,90.34375" id="Fill-25" fill="#00BEEA"></path>
                </g>
            </g>
        </g>
    </g>
</svg>