<?xml version="1.0" encoding="UTF-8"?>
<svg width="40px" height="20px" viewBox="0 0 40 20" version="1.1" xmlns="http://www.w3.org/2000/svg" xmlns:xlink="http://www.w3.org/1999/xlink">
    <!-- Generator: Sketch 44.1 (41455) - http://www.bohemiancoding.com/sketch -->
    <title>Fill 1</title>
    <desc>Created with Sketch.</desc>
    <defs></defs>
    <g id="Welcome" stroke="none" stroke-width="1" fill="none" fill-rule="evenodd">
        <g id="Home---Desktop" transform="translate(-700.000000, -667.000000)" fill="#9ED7CE">
            <g id="Hero-Section" transform="translate(-64.000000, -39.000000)">
                <g id="Scroll" transform="translate(755.000000, 672.000000)">
                    <path d="M48,34 C47.724,34 47.474,34.112 47.293,34.293 L29,51.623 L10.707,34.293 C10.526,34.112 10.276,34 10,34 C9.447,34 9,34.447 9,35 C9,35.276 9.111,35.526 9.293,35.707 L28.293,53.707 C28.474,53.889 28.724,54 29,54 C29.276,54 29.526,53.889 29.707,53.707 L48.707,35.707 C48.889,35.526 49,35.276 49,35 C49,34.447 48.553,34 48,34" id="Fill-1"></path>
                </g>
            </g>
        </g>
    </g>
</svg>