<?xml version="1.0" encoding="UTF-8"?>
<svg width="22px" height="22px" viewBox="0 0 22 22" version="1.1" xmlns="http://www.w3.org/2000/svg" xmlns:xlink="http://www.w3.org/1999/xlink">
    <!-- Generator: Sketch 44.1 (41455) - http://www.bohemiancoding.com/sketch -->
    <title>Icon</title>
    <desc>Created with Sketch.</desc>
    <defs></defs>
    <g id="Welcome" stroke="none" stroke-width="1" fill="none" fill-rule="evenodd">
        <g id="Search---Desktop" transform="translate(-139.000000, -118.000000)" fill="#A2A2A2">
            <g id="Icon" transform="translate(139.000000, 118.000000)">
                <path d="M7.66210937,1.02222222 C4.00064271,1.02222222 1.02161458,4.00302222 1.02161458,7.66666667 C1.02161458,11.3303111 4.00064271,14.3111111 7.66210937,14.3111111 C11.323576,14.3111111 14.3026042,11.3303111 14.3026042,7.66666667 C14.3026042,4.00302222 11.323576,1.02222222 7.66210937,1.02222222 M7.66210937,15.3333333 C3.43722227,15.3333333 0,11.8940667 0,7.66666667 C0,3.43926667 3.43722227,0 7.66210937,0 C11.8869965,0 15.3242187,3.43926667 15.3242187,7.66666667 C15.3242187,11.8940667 11.8869965,15.3333333 7.66210937,15.3333333" id="Fill-1"></path>
                <path d="M19.4984849,21.2545556 C19.2364407,21.2545556 18.9749074,21.1548889 18.7756925,20.9555556 L11.8210513,13.9967778 C11.6218364,13.7969333 11.6218364,13.4734 11.8210513,13.2740667 C12.0207769,13.0742222 12.3441179,13.0742222 12.5433328,13.2740667 L19.4984849,20.2328444 L20.2207664,19.5101333 L13.2661251,12.5513556 C13.0663994,12.3515111 13.0663994,12.0279778 13.2661251,11.8286444 C13.4653399,11.6288 13.788681,11.6288 13.9884066,11.8286444 L20.9430479,18.7874222 C21.3414776,19.1855778 21.3414776,19.8346889 20.9430479,20.2328444 L20.2207664,20.9555556 C20.0215515,21.1548889 19.7600182,21.2545556 19.4984849,21.2545556" id="Fill-3"></path>
            </g>
        </g>
    </g>
</svg>