<?xml version="1.0" encoding="UTF-8"?>
<svg width="127px" height="119px" viewBox="0 0 127 119" version="1.1" xmlns="http://www.w3.org/2000/svg" xmlns:xlink="http://www.w3.org/1999/xlink">
    <!-- Generator: Sketch 44.1 (41455) - http://www.bohemiancoding.com/sketch -->
    <title>Icon</title>
    <desc>Created with Sketch.</desc>
    <defs></defs>
    <g id="Welcome" stroke="none" stroke-width="1" fill="none" fill-rule="evenodd">
        <g id="Service---Desktop" transform="translate(-180.000000, -955.000000)">
            <g id="Advantages" transform="translate(107.000000, 799.000000)">
                <g id="Icon" transform="translate(73.000000, 156.000000)">
                    <path d="M65.484375,115.033333 L93.1445781,115.033333 L81.9388125,83.3 L65.484375,83.3 L65.484375,115.033333 Z M61.515625,115.033333 L61.515625,83.3 L45.0611875,83.3 L33.8554219,115.033333 L61.515625,115.033333 Z M97.1212656,114.372883 C97.1966719,114.5851 97.234375,114.809217 97.234375,115.033333 L127,115.033333 L127,119 L0,119 L0,115.033333 L29.765625,115.033333 C29.765625,114.809217 29.8033281,114.5851 29.8787344,114.372883 L40.8503438,83.3 L9.921875,83.3 C8.8265,83.3 7.9375,82.41345 7.9375,81.3166667 L7.9375,23.8 L11.90625,23.8 L11.90625,79.3333333 L115.09375,79.3333333 L115.09375,23.8 L119.0625,23.8 L119.0625,81.3166667 C119.0625,82.41345 118.1735,83.3 117.078125,83.3 L86.1476719,83.3 L97.1212656,114.372883 Z" id="Fill-1" fill="#232C33"></path>
                    <path d="M123.03125,15.8666667 L3.96875,15.8666667 L3.96875,11.9 L49.609375,11.9 C50.3614531,11.9 51.0480469,11.4755667 51.3853906,10.8032167 L54.8044688,3.96666667 L72.1955312,3.96666667 L75.6146094,10.8032167 C75.9519531,11.4755667 76.6385469,11.9 77.390625,11.9 L123.03125,11.9 L123.03125,15.8666667 Z M125.015625,7.93333333 L78.6169687,7.93333333 L75.1978906,1.09678333 C74.8605469,0.424433333 74.1739531,0 73.421875,0 L53.578125,0 C52.8260469,0 52.1394531,0.424433333 51.8021094,1.09678333 L48.3830312,7.93333333 L1.984375,7.93333333 C0.889,7.93333333 0,8.81988333 0,9.91666667 L0,17.85 C0,18.9467833 0.889,19.8333333 1.984375,19.8333333 L125.015625,19.8333333 C126.111,19.8333333 127,18.9467833 127,17.85 L127,9.91666667 C127,8.81988333 126.111,7.93333333 125.015625,7.93333333 L125.015625,7.93333333 Z" id="Fill-3" fill="#232C33"></path>
                    <polygon id="Fill-5" fill="#232C33" points="57.546875 11.9 69.453125 11.9 69.453125 7.93333333 57.546875 7.93333333"></polygon>
                    <path d="M47.625,35.7 C47.625,37.8876167 49.4049844,39.6666667 51.59375,39.6666667 C53.7825156,39.6666667 55.5625,37.8876167 55.5625,35.7 C55.5625,33.5123833 53.7825156,31.7333333 51.59375,31.7333333 C49.4049844,31.7333333 47.625,33.5123833 47.625,35.7" id="Fill-7" fill="#232C33"></path>
                    <path d="M75.40625,63.4666667 C75.40625,61.27905 73.6262656,59.5 71.4375,59.5 C69.2487344,59.5 67.46875,61.27905 67.46875,63.4666667 C67.46875,65.6542833 69.2487344,67.4333333 71.4375,67.4333333 C73.6262656,67.4333333 75.40625,65.6542833 75.40625,63.4666667" id="Fill-8" fill="#232C33"></path>
                    <path d="M51.59375,23.8 C45.0274531,23.8 39.6875,29.13715 39.6875,35.7 L39.6875,47.6 C39.6875,51.9752333 36.1275313,55.5333333 31.75,55.5333333 L19.84375,55.5333333 L19.84375,59.5 L31.75,59.5 C38.3162969,59.5 43.65625,54.16285 43.65625,47.6 L43.65625,35.7 C43.65625,31.3247667 47.2162188,27.7666667 51.59375,27.7666667 C55.9712813,27.7666667 59.53125,31.3247667 59.53125,35.7 L59.53125,39.6666667 L63.5,39.6666667 L63.5,35.7 C63.5,29.13715 58.1600469,23.8 51.59375,23.8" id="Fill-9" fill="#00BEEA"></path>
                    <path d="M63.5,63.4666667 L63.5,59.5 L59.53125,59.5 L59.53125,63.4666667 C59.53125,70.0295167 64.8712031,75.3666667 71.4375,75.3666667 C78.0037969,75.3666667 83.34375,70.0295167 83.34375,63.4666667 L83.34375,51.5666667 C83.34375,47.1914333 86.9037188,43.6333333 91.28125,43.6333333 L102.365969,43.6333333 L97.8157969,48.1811167 L100.621703,50.98555 L108.559203,43.0522167 C109.335094,42.2767333 109.335094,41.0232667 108.559203,40.2477833 L100.621703,32.31445 L97.8157969,35.1188833 L102.365969,39.6666667 L91.28125,39.6666667 C84.7149531,39.6666667 79.375,45.0038167 79.375,51.5666667 L79.375,63.4666667 C79.375,67.8419 75.8150313,71.4 71.4375,71.4 C67.0599687,71.4 63.5,67.8419 63.5,63.4666667" id="Fill-10" fill="#00BEEA"></path>
                    <polygon id="Fill-11" fill="#00BEEA" points="59.53125 47.6 63.5 47.6 63.5 43.6333333 59.53125 43.6333333"></polygon>
                    <polygon id="Fill-12" fill="#00BEEA" points="59.53125 55.5333333 63.5 55.5333333 63.5 51.5666667 59.53125 51.5666667"></polygon>
                    <polygon id="Fill-13" fill="#363F40" points="15.875 27.7666667 19.84375 27.7666667 19.84375 23.8 15.875 23.8"></polygon>
                    <polygon id="Fill-14" fill="#363F40" points="107.15625 27.7666667 111.125 27.7666667 111.125 23.8 107.15625 23.8"></polygon>
                    <polygon id="Fill-15" fill="#363F40" points="107.15625 75.3666667 111.125 75.3666667 111.125 71.4 107.15625 71.4"></polygon>
                    <polygon id="Fill-16" fill="#363F40" points="15.875 75.3666667 19.84375 75.3666667 19.84375 71.4 15.875 71.4"></polygon>
                </g>
            </g>
        </g>
    </g>
</svg>