<?xml version="1.0" encoding="UTF-8"?>
<svg width="121px" height="99px" viewBox="0 0 121 99" version="1.1" xmlns="http://www.w3.org/2000/svg" xmlns:xlink="http://www.w3.org/1999/xlink">
    <!-- Generator: Sketch 44.1 (41455) - http://www.bohemiancoding.com/sketch -->
    <title>Icon</title>
    <desc>Created with Sketch.</desc>
    <defs>
        <polygon id="path-1" points="0 98 121 98 121 0 0 0"></polygon>
    </defs>
    <g id="Welcome" stroke="none" stroke-width="1" fill="none" fill-rule="evenodd">
        <g id="Service---Desktop" transform="translate(-611.000000, -1624.000000)">
            <g id="Process" transform="translate(101.000000, 1504.000000)">
                <g id="Icon" transform="translate(510.000000, 120.000000)">
                    <path d="M111.984375,90.4615385 L72.28125,90.4615385 L72.28125,86.6923077 L110.09375,86.6923077 L110.09375,3.76923077 L69.2827188,3.76923077 L62.2741719,10.7555 C61.5349375,11.4923846 60.3400625,11.4923846 59.6008281,10.7555 L52.5922812,3.76923077 L11.78125,3.76923077 L11.78125,86.6923077 L49.59375,86.6923077 L49.59375,90.4615385 L9.890625,90.4615385 C8.84510937,90.4615385 8,89.6172308 8,88.5769231 L8,1.88461538 C8,0.844307692 8.84510937,0 9.890625,0 L53.375,0 C53.8779062,0 54.358125,0.197884615 54.7116719,0.552192308 L60.9375,6.75823077 L67.1633281,0.552192308 C67.516875,0.197884615 67.9970937,0 68.5,0 L111.984375,0 C113.029891,0 113.875,0.844307692 113.875,1.88461538 L113.875,88.5769231 C113.875,89.6172308 113.029891,90.4615385 111.984375,90.4615385 Z" id="Fill-1" fill="#222829"></path>
                    <path d="M119.109375,98.4615385 L66.171875,98.4615385 C65.1263594,98.4615385 64.28125,97.6172308 64.28125,96.5769231 L64.28125,90.9230769 C64.28125,88.8443462 62.5853594,87.1538462 60.5,87.1538462 C58.4146406,87.1538462 56.71875,88.8443462 56.71875,90.9230769 L56.71875,96.5769231 C56.71875,97.6172308 55.8736406,98.4615385 54.828125,98.4615385 L1.890625,98.4615385 C0.845109375,98.4615385 0,97.6172308 0,96.5769231 L0,9.88461538 C0,8.84430769 0.845109375,8 1.890625,8 L9.453125,8 L9.453125,11.7692308 L3.78125,11.7692308 L3.78125,94.6923077 L52.9375,94.6923077 L52.9375,90.9230769 C52.9375,86.7656154 56.3292812,83.3846154 60.5,83.3846154 C64.6707188,83.3846154 68.0625,86.7656154 68.0625,90.9230769 L68.0625,94.6923077 L117.21875,94.6923077 L117.21875,11.7692308 L111.546875,11.7692308 L111.546875,8 L119.109375,8 C120.154891,8 121,8.84430769 121,9.88461538 L121,96.5769231 C121,97.6172308 120.154891,98.4615385 119.109375,98.4615385" id="Fill-3" fill="#222829"></path>
                    <path d="M22.5625,34.7692308 C20.4771406,34.7692308 18.78125,36.4597308 18.78125,38.5384615 C18.78125,40.6171923 20.4771406,42.3076923 22.5625,42.3076923 C24.6478594,42.3076923 26.34375,40.6171923 26.34375,38.5384615 C26.34375,36.4597308 24.6478594,34.7692308 22.5625,34.7692308 M22.5625,46.0769231 C18.3917813,46.0769231 15,42.6959231 15,38.5384615 C15,34.381 18.3917813,31 22.5625,31 C26.7332188,31 30.125,34.381 30.125,38.5384615 C30.125,42.6959231 26.7332188,46.0769231 22.5625,46.0769231" id="Fill-5" fill="#00BEEA"></path>
                    <path d="M45.5625,34.7692308 C43.4771406,34.7692308 41.78125,36.4597308 41.78125,38.5384615 C41.78125,40.6171923 43.4771406,42.3076923 45.5625,42.3076923 C47.6478594,42.3076923 49.34375,40.6171923 49.34375,38.5384615 C49.34375,36.4597308 47.6478594,34.7692308 45.5625,34.7692308 M45.5625,46.0769231 C41.3917813,46.0769231 38,42.6959231 38,38.5384615 C38,34.381 41.3917813,31 45.5625,31 C49.7332188,31 53.125,34.381 53.125,38.5384615 C53.125,42.6959231 49.7332188,46.0769231 45.5625,46.0769231" id="Fill-7" fill="#00BEEA"></path>
                    <path d="M33.5625,15.7692308 C31.4771406,15.7692308 29.78125,17.4597308 29.78125,19.5384615 C29.78125,21.6171923 31.4771406,23.3076923 33.5625,23.3076923 C35.6478594,23.3076923 37.34375,21.6171923 37.34375,19.5384615 C37.34375,17.4597308 35.6478594,15.7692308 33.5625,15.7692308 M33.5625,27.0769231 C29.3917813,27.0769231 26,23.6959231 26,19.5384615 C26,15.381 29.3917813,12 33.5625,12 C37.7332188,12 41.125,15.381 41.125,19.5384615 C41.125,23.6959231 37.7332188,27.0769231 33.5625,27.0769231" id="Fill-9" fill="#00BEEA"></path>
                    <mask id="mask-2" fill="white">
                        <use xlink:href="#path-1"></use>
                    </mask>
                    <g id="Clip-12"></g>
                    <polygon id="Fill-11" fill="#222829" mask="url(#mask-2)" points="68 15.7692308 105.8125 15.7692308 105.8125 12 68 12"></polygon>
                    <polygon id="Fill-13" fill="#222829" mask="url(#mask-2)" points="68 22.7692308 105.8125 22.7692308 105.8125 19 68 19"></polygon>
                    <polygon id="Fill-14" fill="#222829" mask="url(#mask-2)" points="68 71.7692308 105.8125 71.7692308 105.8125 68 68 68"></polygon>
                    <polygon id="Fill-15" fill="#222829" mask="url(#mask-2)" points="68 64.7692308 105.8125 64.7692308 105.8125 61 68 61"></polygon>
                    <polygon id="Fill-16" fill="#222829" mask="url(#mask-2)" points="68 79.7692308 105.8125 79.7692308 105.8125 76 68 76"></polygon>
                    <polygon id="Fill-17" fill="#222829" mask="url(#mask-2)" points="15 56.7692308 52.8125 56.7692308 52.8125 53 15 53"></polygon>
                    <polygon id="Fill-18" fill="#222829" mask="url(#mask-2)" points="15 64.7692308 52.8125 64.7692308 52.8125 61 15 61"></polygon>
                    <polygon id="Fill-19" fill="#222829" mask="url(#mask-2)" points="15 71.7692308 52.8125 71.7692308 52.8125 68 15 68"></polygon>
                    <polygon id="Fill-20" fill="#222829" mask="url(#mask-2)" points="15 79.7692308 52.8125 79.7692308 52.8125 76 15 76"></polygon>
                    <polygon id="Fill-21" fill="#00BEEA" mask="url(#mask-2)" points="26.2424219 33.3623462 23 31.4230769 28.671875 22 31.9142969 23.9392692"></polygon>
                    <polygon id="Fill-22" fill="#00BEEA" mask="url(#mask-2)" points="41.671875 33.3623462 36 23.9392692 39.2424219 22 44.9142969 31.4230769"></polygon>
                    <polygon id="Fill-23" fill="#00BEEA" mask="url(#mask-2)" points="28 39.7692308 39.34375 39.7692308 39.34375 36 28 36"></polygon>
                    <path d="M105.8125,57.1538462 L69.890625,57.1538462 C68.8451094,57.1538462 68,56.3095385 68,55.2692308 L68,27 L71.78125,27 L71.78125,53.3846154 L105.8125,53.3846154 L105.8125,57.1538462 Z" id="Fill-24" fill="#222829" mask="url(#mask-2)"></path>
                    <polygon id="Fill-25" fill="#222829" mask="url(#mask-2)" points="76 54.6538462 79.78125 54.6538462 79.78125 49 76 49"></polygon>
                    <polygon id="Fill-26" fill="#222829" mask="url(#mask-2)" points="83 54.6538462 86.78125 54.6538462 86.78125 49 83 49"></polygon>
                    <polygon id="Fill-27" fill="#222829" mask="url(#mask-2)" points="91 54.6538462 94.78125 54.6538462 94.78125 49 91 49"></polygon>
                    <polygon id="Fill-28" fill="#222829" mask="url(#mask-2)" points="98 54.6538462 101.78125 54.6538462 101.78125 49 98 49"></polygon>
                    <path d="M90.796875,42.1923077 C90.312875,42.1923077 89.828875,42.0076154 89.4602031,41.6401154 L83.234375,35.4340769 L77.0085469,41.6401154 C76.655,41.9944231 76.1747813,42.1923077 75.671875,42.1923077 L70,42.1923077 L70,38.4230769 L74.8891563,38.4230769 L81.8977031,31.4368077 C82.6369375,30.6999231 83.8318125,30.6999231 84.5710469,31.4368077 L90.796875,37.6428462 L98.9133281,29.5521923 C99.266875,29.1978846 99.7470938,29 100.25,29 L105.921875,29 L105.921875,32.7692308 L101.032719,32.7692308 L92.1335469,41.6401154 C91.764875,42.0076154 91.280875,42.1923077 90.796875,42.1923077" id="Fill-29" fill="#222829" mask="url(#mask-2)"></path>
                    <polygon id="Fill-30" fill="#222829" mask="url(#mask-2)" points="59 79.0769231 62.78125 79.0769231 62.78125 15 59 15"></polygon>
                </g>
            </g>
        </g>
    </g>
</svg>