<?xml version="1.0" encoding="UTF-8"?>
<svg width="57px" height="42px" viewBox="0 0 57 42" version="1.1" xmlns="http://www.w3.org/2000/svg" xmlns:xlink="http://www.w3.org/1999/xlink">
    <!-- Generator: Sketch 44.1 (41455) - http://www.bohemiancoding.com/sketch -->
    <title>Fill 1</title>
    <desc>Created with Sketch.</desc>
    <defs></defs>
    <g id="Welcome" stroke="none" stroke-width="1" fill="none" fill-rule="evenodd">
        <g id="Home---Desktop" transform="translate(-693.000000, -2058.000000)" fill="#7ECDC1">
            <g id="Products" transform="translate(212.000000, 1515.000000)">
                <g transform="translate(373.000000, 508.000000)" id="Fill-1">
                    <path d="M155.321442,38.0356733 L155.322011,38.0354836 L155.321442,38.0356733 Z M154.096083,39.0342897 C154.100258,39.0346691 154.104622,39.0348589 154.108986,39.0350486 C154.104622,39.0348589 154.100258,39.0346691 154.096083,39.0342897 L154.096083,39.0342897 Z M110.63341,39.3006885 C110.632461,39.3042936 110.631512,39.3078988 110.630374,39.3115039 C110.631512,39.3078988 110.632461,39.3044834 110.63341,39.3006885 L110.63341,39.3006885 Z M151.924098,39.4429956 L151.926944,39.4445136 L151.924098,39.4429956 Z M110.026612,39.7063586 C110.021489,39.7065484 110.016366,39.7067381 110.011243,39.7069278 C110.016366,39.7067381 110.021489,39.7065484 110.026612,39.7063586 L110.026612,39.7063586 Z M162.418582,50.3890675 C162.418582,50.3926726 162.418582,50.3962777 162.418771,50.3996931 L162.418582,50.3890675 Z M149.277565,60.3226719 C149.269975,60.3376615 149.262196,60.3526512 149.254416,60.3674512 C149.262386,60.3530307 149.270165,60.3382308 149.277565,60.3226719 L149.277565,60.3226719 Z M143.340513,74.3329001 C143.342221,74.3361257 143.343929,74.3393513 143.345446,74.3423872 L143.340513,74.3329001 Z M141.063979,74.7850571 C142.131852,74.9852358 143.673322,75.162835 144.250899,74.9964306 L144.250709,74.9958614 C144.229458,74.9455795 144.206879,74.8924516 144.185438,74.8362877 C144.125859,74.8167442 144.049772,74.7979596 143.989813,74.789611 L143.54961,74.729083 L143.376185,74.4004485 C143.346585,74.3784383 143.302185,74.348459 143.269929,74.3264488 C143.036545,74.1680136 142.645485,73.9025634 142.548337,73.3912066 C142.264861,71.9045718 142.328615,70.4124345 142.743013,68.8294104 C142.94414,68.0637982 143.124206,67.2720016 143.29839,66.5061997 C143.514887,65.5540703 143.738973,64.5696847 144.009357,63.6044632 C144.188094,62.9637018 144.572513,62.2978943 145.151608,61.6265843 C145.572837,61.1402735 146.099563,60.832321 146.564433,60.5604196 C147.081103,60.2579696 147.527567,59.9970732 147.747479,59.5644597 C147.815217,59.4238602 147.972514,59.2162816 148.293179,59.1145795 C148.972269,58.8730369 149.358965,58.3681314 149.671092,57.3156281 C149.817194,56.8202097 150.012249,56.3560988 150.200664,55.9071674 C150.242597,55.8067934 150.28491,55.7066092 150.326274,55.6062353 C151.013712,53.9332731 152.249506,52.7718575 153.444696,51.6487699 L153.644495,51.4609245 C154.16477,50.9689215 155.033223,50.5216977 155.799215,50.6332665 C155.993701,50.6619176 156.18629,50.6930355 156.37831,50.7241533 C157.511454,50.9078243 158.490337,51.0672082 159.436584,50.646169 L159.458974,50.6359229 C159.581547,50.5786206 159.868249,50.4442827 160.22174,50.5476925 L160.244888,50.554713 C160.816963,50.7406609 161.37253,50.6133435 162.162239,50.1171661 C162.234341,50.0720073 162.320105,50.0251408 162.408905,49.9777051 C162.394105,49.5111276 162.357105,49.0572629 162.210623,48.7168643 C162.02847,48.2935481 161.764728,47.8823755 161.485237,47.4471055 C161.243884,47.0706558 160.993993,46.6813036 160.781671,46.2585567 C160.384539,45.46676 160.349816,44.5616869 160.681676,43.6404856 L160.967239,42.8466018 L161.956178,43.1887081 C162.070214,43.2274156 162.163378,43.2592924 162.255593,43.2936358 C162.433192,43.3573894 162.531479,43.3361382 162.545709,43.32741 C162.556904,43.316405 162.601304,43.2281746 162.582709,43.0352061 C162.53793,42.5578133 162.683842,42.0329847 162.963713,41.6633658 C163.300316,41.2146241 163.292916,41.0351274 163.292537,41.0298146 L163.292537,41.0298146 C163.291019,41.0298146 163.202409,40.8761229 162.691811,40.6746161 C162.65614,40.6607649 162.517817,40.6167445 162.2277,40.6351496 C161.886543,40.6588674 161.539693,40.7091493 161.204228,40.7577234 C161.074633,40.776508 160.950162,40.7945335 160.832522,40.8100924 L160.322303,40.8776409 L160.024407,40.4579298 C159.91189,40.2996843 159.821762,40.1456132 159.74226,40.0097573 C159.685147,39.9122295 159.60887,39.782066 159.564281,39.7272303 C158.962037,39.4143445 158.601905,39.0253717 158.48806,38.5660044 L156.608278,37.8685099 C156.281351,37.8394793 155.80263,37.8540895 155.485949,37.9616737 C155.317078,38.7652344 154.79965,38.9887514 154.378231,39.0304948 C153.650947,39.7644199 152.87395,39.9279782 152.063179,39.5185133 C152.021815,39.5276209 151.964892,39.5433696 151.899241,39.5684156 C151.750862,39.624959 151.600586,39.6934561 151.441202,39.7659379 C150.886774,40.0182958 150.196489,40.3323201 149.297868,40.2245462 C149.083268,40.1979822 148.747044,40.308033 148.421066,40.4146685 C148.182559,40.492463 147.936084,40.5729139 147.671772,40.6286983 C146.29367,40.9157792 144.493011,41.1076091 142.772234,40.038788 C142.705444,39.9976138 142.598239,39.964978 142.520445,39.9630806 C142.11098,39.9537832 141.684628,39.9560601 141.272506,39.958337 C140.736293,39.9617524 140.182244,39.9645986 139.628765,39.9427781 C139.124998,39.9226654 138.634702,39.8564452 138.160535,39.7923121 C137.983884,39.7685943 137.807044,39.7446867 137.630204,39.7234355 C137.504215,39.7078766 137.380502,39.6894715 137.256411,39.6712562 C137.062493,39.6424153 136.879012,39.6152821 136.705018,39.6023796 C136.481122,39.5856822 136.247738,39.5828361 136.000313,39.5798002 C135.422357,39.5725899 134.824857,39.5650002 134.224131,39.3843651 C133.791328,39.2532528 133.349417,39.3006885 133.079602,39.38816 C132.012489,39.7340611 130.91236,39.7272303 129.716032,39.3665293 C126.817901,38.4920048 123.812185,38.0766578 120.981792,37.7262028 C120.119031,37.6203264 119.474285,37.2765124 119.009036,36.9888624 C118.964636,36.9615394 118.919857,36.9328882 118.875457,36.9046166 C118.833524,36.8774833 118.779827,36.8431399 118.732391,36.8148682 L118.508874,36.9803239 L117.978922,36.8440886 C117.753508,36.7846991 117.333607,36.6740791 117.207998,36.7152533 C116.869876,36.8545245 116.536118,36.8744475 116.268201,36.8905756 C116.140125,36.8981653 115.926095,36.9110678 115.875813,36.9419959 C115.875244,36.9425651 115.868413,36.9501548 115.858926,36.965524 C115.703147,37.2095332 115.393297,37.4670142 114.779669,37.3387481 L114.758039,37.3341942 C114.372671,37.2535536 114.020129,37.4469015 113.465131,37.8567459 C113.002159,38.2001803 112.327054,38.6141991 111.458601,38.6261529 C111.325781,38.9407465 111.086136,39.3955599 110.550682,39.6010514 C110.520513,39.7158458 110.491482,39.8310196 110.461693,39.9496089 C110.350883,40.3896224 110.236468,40.8446256 110.056592,41.2973519 C109.801577,41.9420979 109.791901,42.6597052 109.781844,43.4194353 C109.776152,43.8459771 109.77046,44.2869393 109.721316,44.7373887 C109.693803,44.9906954 109.707085,45.2870736 109.760972,45.6174158 C109.982213,46.9304359 110.222047,48.2711585 110.454103,49.5678607 L110.634169,50.5752052 C110.666425,50.7554608 110.703045,50.9357165 110.739476,51.1159721 C110.815942,51.49375 110.894875,51.884051 110.941173,52.291239 C110.977034,52.6029864 111.020106,52.9166312 111.062798,53.2302761 C111.192772,54.1806977 111.327109,55.1631859 111.280433,56.1618022 C111.225407,57.3205614 111.037941,58.4656592 110.856737,59.5731878 C110.819927,59.7976535 110.782548,60.0261039 110.746307,60.2551234 L110.922388,60.52323 C111.195048,60.937818 111.470934,61.357529 111.764467,61.8062707 L111.984378,62.1426847 L111.86541,62.5265344 C111.834292,62.6267186 111.802036,62.7305079 111.768451,62.8386613 L111.861425,63.3767718 C111.916451,63.6962987 111.973563,64.0272101 112.033332,64.3744394 L112.4039,64.0706612 L112.583396,65.0197546 L113.196645,65.0385392 L113.384111,65.6058701 C113.599849,66.2585853 113.830007,66.9137672 114.052575,67.5475081 C114.907746,69.9822876 115.715481,72.28216 115.916988,74.8140878 L115.928941,74.9637948 C116.586969,75.0398817 117.927502,75.0594252 118.849273,75.0184408 C118.594828,74.7588726 118.280803,74.5002532 118.007384,74.3826127 L117.614806,74.2139313 L117.514622,73.7983946 C117.426581,73.4333295 117.333607,73.0828746 117.242341,72.7375427 C117.041973,71.9810382 116.834963,71.1987286 116.700815,70.3422297 C116.529098,69.2394446 116.425878,68.0436855 116.375975,66.5784917 C116.332524,65.292415 116.720738,64.0681945 117.597919,62.7257643 C118.040779,62.0474338 118.373208,61.2759396 118.735996,60.3264667 C118.899554,59.897648 119.027062,59.4483371 119.161779,58.9728416 C119.300671,58.482736 119.444306,57.975933 119.634998,57.4761505 C119.724556,57.2414387 119.997406,56.5261083 120.708183,56.3376938 C121.44021,56.1443458 122.075659,56.666518 122.314735,56.8636608 C122.457991,56.9809218 122.601436,57.1036854 122.745261,57.227208 C123.241059,57.6520421 123.709534,58.0533481 124.196035,58.2472652 C124.817063,58.4946898 125.525373,58.6039816 126.275426,58.7199145 C126.554158,58.7629861 126.832511,58.8060577 127.107638,58.8561498 C127.216171,58.8758831 127.326411,58.8967548 127.436842,58.918006 C127.906265,59.0077543 128.350263,59.0925693 128.754795,59.0806155 C129.720206,59.0546208 130.704592,59.002062 131.656342,58.951211 C132.52081,58.9051035 133.414878,58.8572883 134.299838,58.8290166 C135.561248,58.7899296 136.490798,59.528029 136.717921,60.7640136 C136.823607,61.3412112 136.893622,61.9216344 136.961361,62.4830833 C137.044658,63.1724188 137.123211,63.8232366 137.261344,64.4602032 C137.354697,64.8854168 137.41143,65.307215 137.466456,65.7153517 C137.572332,66.5016458 137.672327,67.2444889 138.022402,67.9152296 C138.854045,69.510587 139.037906,71.1774775 138.553872,72.7360247 C138.430539,73.1287923 138.183873,73.5116933 137.868141,73.8124356 C137.813306,74.1776905 137.787501,74.5503453 137.800024,74.7805033 C138.073633,74.8230057 138.70244,74.861903 140.091737,74.7567855 L139.8464,73.9976246 C139.308479,72.3324418 139.44016,70.8220892 139.567668,69.3614492 L139.589298,69.1123169 C139.590437,68.9548304 139.59556,68.2789666 139.607134,67.6025335 C139.613775,67.2122326 139.622693,66.8215522 139.633888,66.5282098 C139.653052,66.0297555 139.681893,65.2762869 140.474828,65.2269538 L141.266624,65.1776206 L141.374019,65.9635353 C141.440239,66.4490871 141.431131,67.734974 141.410829,69.498823 C141.402291,70.2610198 141.393942,70.9810937 141.404757,71.2370567 C141.411398,71.4036509 141.463008,71.6210961 141.517654,71.8512541 C141.663187,72.4624156 141.862037,73.2999403 141.411019,74.1391727 L141.063979,74.7850571 Z M143.534241,76.7676796 C142.397871,76.7676796 141.082953,76.5305011 140.580135,76.4308861 C137.769475,76.6697723 136.96193,76.4654193 136.52666,76.0328057 C136.055149,75.5612949 135.960467,74.6053707 136.243374,73.18951 L136.310732,72.8525268 L136.59269,72.656143 C136.733669,72.5576665 136.879202,72.3694417 136.923981,72.2271346 C137.362097,70.8160174 136.93973,69.5325972 136.508255,68.7049391 C136.019857,67.7691277 135.894816,66.840906 135.77395,65.9432328 C135.721391,65.5523627 135.671489,65.1827437 135.592936,64.8243196 C135.437346,64.1072816 135.350254,63.3856897 135.266009,62.687626 C135.19846,62.1271258 135.134517,61.5975537 135.038317,61.0721559 C134.965836,60.6773011 134.766606,60.5222813 134.356002,60.535753 C133.487739,60.5636452 132.602969,60.6108912 131.747418,60.6566192 C130.784474,60.7078497 129.788704,60.7611674 128.80261,60.7875417 C128.21251,60.8053775 127.655046,60.6981728 127.116176,60.5953322 C127.011249,60.5752195 126.90689,60.5552965 126.802721,60.5363222 C126.541635,60.4888865 126.278272,60.4482816 126.014909,60.4074869 C125.203759,60.2822566 124.364906,60.1526623 123.564002,59.8337047 C122.813759,59.5348598 122.214171,59.0208466 121.634128,58.5239102 C121.4996,58.4083568 121.365452,58.2935624 121.230734,58.1831321 C121.221058,58.1749732 121.21157,58.1673835 121.202463,58.1599835 C121.051997,58.5664126 120.9317,58.9906775 120.804762,59.4384704 C120.66568,59.9289556 120.522045,60.4359483 120.331164,60.9357308 C119.983365,61.8463065 119.584716,62.806405 119.027631,63.6594886 C118.351957,64.6937765 118.051784,65.6028342 118.082712,66.5204304 C118.130147,67.9154194 118.227106,69.0460967 118.388008,70.0786769 C118.508305,70.847325 118.695201,71.5531682 118.893103,72.300565 C118.956098,72.5385025 119.019662,72.7785271 119.081897,73.0240543 C119.951109,73.5570418 120.906843,74.6029041 121.011012,75.3721213 C121.06433,75.7652684 120.928284,76.124072 120.637978,76.3566967 C120.449563,76.5067832 120.128708,76.7519309 117.703795,76.7464284 C115.339031,76.7367515 114.979658,76.5086807 114.826346,76.4111529 C114.238713,76.0366006 114.09337,75.3715521 114.203041,74.8140878 C114.000585,72.5527332 113.242753,70.3951679 112.441469,68.1135109 C112.376956,67.9302193 112.312064,67.7450304 112.246982,67.5587029 L111.332043,67.5996874 L111.261079,67.2217197 L110.846491,67.5626875 L110.598687,66.1122936 C110.53759,65.7538695 110.479149,65.4140402 110.423554,65.0892005 L108.902386,66.2967236 L109.727578,63.6501912 C109.871403,63.1883572 110.000428,62.773959 110.115222,62.4049092 C109.979366,62.1975204 109.846736,61.9954443 109.715814,61.7962144 L108.738828,62.1922076 L108.948304,60.7228394 C109.016422,60.2444978 109.095355,59.7629306 109.171442,59.2974916 C109.352836,58.1886347 109.524363,57.1414442 109.574645,56.081541 C109.613922,55.2396522 109.495902,54.375943 109.370861,53.4617623 C109.326461,53.1357841 109.281872,52.8101855 109.244493,52.4849664 C109.206544,52.1504498 109.138237,51.8123282 109.065755,51.454663 C109.026668,51.2618843 108.987771,51.0691057 108.953048,50.8757578 L108.773171,49.868603 C108.540357,48.5679162 108.299763,47.2228295 108.076056,45.8965274 C107.996934,45.4096474 107.979667,44.9593878 108.023687,44.5531485 C108.063913,44.1827705 108.069036,43.8010081 108.074349,43.3966662 C108.086113,42.5160699 108.098256,41.6054942 108.469014,40.6679751 C108.607905,40.3186586 108.703915,39.9370859 108.805617,39.5329337 C108.86254,39.3063808 108.92155,39.0720485 108.990047,38.8373366 C109.092319,38.4616459 109.402738,38.0633758 109.866469,38.0068324 C109.886013,37.9620531 109.907833,37.9074072 109.924531,37.8650946 C110.003843,37.6658646 110.10232,37.4178708 110.291873,37.1827795 L110.626769,36.7672428 L111.147044,36.8864013 C111.49617,36.966283 111.85061,36.9281447 112.449248,36.4841465 C112.945615,36.1175635 113.744053,35.5261352 114.795228,35.6166425 C115.255165,35.2403825 115.80447,35.207557 116.16612,35.1859264 C116.314688,35.1770084 116.48337,35.1669521 116.557369,35.1364035 C117.122803,34.9013122 117.718026,35.0149681 118.22445,35.143424 C118.903349,34.8942917 119.489085,35.2696029 119.796848,35.4665559 C119.833089,35.4898943 119.86952,35.5134224 119.906519,35.5360018 C120.390743,35.8354159 120.762639,35.9788615 121.190699,36.0314202 C124.094902,36.3909828 127.182966,36.8184733 130.208984,37.7315156 C131.072883,37.9920325 131.817433,38.0024684 132.551928,37.7641514 C133.230258,37.5432908 134.019968,37.5377883 134.717652,37.749731 C135.086322,37.8605407 135.540756,37.8660433 136.021754,37.8721151 C136.284168,37.8755304 136.555501,37.8789458 136.831197,37.899438 C137.067047,37.9168944 137.290564,37.9499096 137.506681,37.9819761 C137.616922,37.998294 137.726973,38.0146119 137.837024,38.0280836 C138.019556,38.0502835 138.204366,38.0751398 138.388985,38.0999961 C138.843988,38.1614728 139.273756,38.2195341 139.696503,38.2364212 C140.211085,38.2567237 140.745401,38.2536878 141.26283,38.2508417 C141.686905,38.2481853 142.12559,38.2459084 142.562378,38.255775 C142.942812,38.2660211 143.345257,38.386318 143.670096,38.5861172 C144.627539,39.1805813 145.71856,39.2908219 147.321696,38.9570643 C147.493603,38.9210132 147.686762,38.8578289 147.890925,38.7912291 C148.371164,38.6345016 148.914777,38.4569023 149.504308,38.5293841 C149.905424,38.5779582 150.217171,38.446846 150.733841,38.2115649 C150.909922,38.1314934 151.092075,38.0485759 151.290357,37.9728685 C151.705514,37.8144332 152.302065,37.6848389 152.78572,37.9685044 C152.876606,38.0214426 152.920057,38.0263759 152.922145,38.0265657 C152.919488,38.0259965 152.996714,38.0036068 153.183231,37.8100692 C153.276394,37.7127311 153.518316,37.4605629 153.866495,37.3653121 C153.932715,37.1169387 154.074832,36.7938068 154.438379,36.5740846 L154.438379,36.5738949 C155.380642,36.0048562 156.7614,36.1640504 156.915661,36.1843529 L157.011861,36.196876 L160.401805,37.4544912 L160.194986,38.1242832 C160.236729,38.150278 160.296308,38.1842419 160.380554,38.2267443 C160.76023,38.4231281 160.974449,38.7405678 161.152807,39.0397922 C161.452032,38.9972898 161.7782,38.9545977 162.113285,38.9312593 C162.578345,38.90128 162.981738,38.9534592 163.318342,39.0860894 C164.226261,39.4441341 164.755644,39.9289269 164.936468,40.5681704 C165.205903,41.5202997 164.54465,42.4014652 164.327394,42.6910127 C164.302538,42.7283921 164.27844,42.8270583 164.282805,42.8729761 C164.354907,43.6205627 164.104067,44.2782112 163.594038,44.6751531 C163.204686,44.9783621 162.704144,45.0969513 162.171916,45.0229516 C162.188803,45.1885971 162.234152,45.3453246 162.307962,45.492565 C162.479869,45.834861 162.694847,46.1699468 162.922538,46.5247658 C163.226886,46.9991228 163.541669,47.4894182 163.779227,48.0417594 C164.0942,48.7737871 164.110328,49.5807632 164.124749,50.2926782 L164.125887,50.3590881 C164.143154,50.9918804 163.579618,51.290156 163.243014,51.4683245 C163.180968,51.50115 163.119681,51.5326473 163.070158,51.5635754 C162.296767,52.0493169 161.262479,52.5525148 160.006571,52.2597417 C158.6427,52.8217598 157.296475,52.6031761 156.10489,52.4098282 C155.921029,52.3800386 155.736599,52.3500593 155.55179,52.322926 C155.434908,52.3117312 155.05732,52.4752895 154.816726,52.7027911 L154.614081,52.8932929 C153.502568,53.9378269 152.452531,54.9244894 151.905313,56.2562941 C151.862052,56.3612219 151.818601,56.4646317 151.775149,56.5682312 C151.596791,56.9928756 151.4283,57.3941816 151.308572,57.8000414 C151.00726,58.8159243 150.48376,60.0359705 149.097499,60.6327116 C148.641168,61.3239446 148.000406,61.6988763 147.426624,62.0343416 C147.042016,62.2593765 146.678848,62.4716987 146.443567,62.7434104 C146.036758,63.2149212 145.763339,63.6720116 145.653857,64.06421 C145.394669,64.9897753 145.175516,65.9530994 144.963573,66.8849263 C144.786353,67.6641999 144.603062,68.4700376 144.394914,69.2625932 C144.063433,70.5279879 143.997023,71.7167265 144.193028,72.8889574 C144.20574,72.8976856 144.218074,72.9060343 144.229079,72.9134342 C144.327935,72.9806032 144.445006,73.0601054 144.558282,73.1642742 C144.990896,73.2775507 145.60775,73.5528675 145.773775,74.2088083 C145.78459,74.2431517 145.804134,74.2848951 145.823108,74.3296744 C145.947769,74.6237758 146.179635,75.1711837 145.908492,75.7508479 C145.717801,76.1584155 145.332243,76.4528963 144.762256,76.6259417 C144.426221,76.7285925 143.994746,76.7674898 143.534241,76.7676796 L143.534241,76.7676796 Z"></path>
                </g>
            </g>
        </g>
    </g>
</svg>