<?xml version="1.0" encoding="UTF-8"?>
<svg width="23px" height="55px" viewBox="0 0 23 55" version="1.1" xmlns="http://www.w3.org/2000/svg" xmlns:xlink="http://www.w3.org/1999/xlink">
    <!-- Generator: Sketch 44.1 (41455) - http://www.bohemiancoding.com/sketch -->
    <title>Fill 1</title>
    <desc>Created with Sketch.</desc>
    <defs></defs>
    <g id="Welcome" stroke="none" stroke-width="1" fill="none" fill-rule="evenodd">
        <g id="Home---Desktop" transform="translate(-1056.000000, -2051.000000)" fill="#7ECDC1">
            <g id="Products" transform="translate(212.000000, 1515.000000)">
                <g id="Icon" transform="translate(844.000000, 536.000000)">
                    <path d="M20.6171215,35.3716231 L20.6165916,35.3716231 C16.8542861,35.28027 14.0693164,34.7015675 11.3713769,31.0390666 C9.02328078,27.84982 5.24057549,26.7143556 2.16179567,26.3579855 L2.16179567,18.0896667 C2.16179567,16.2446534 3.6572068,14.7435108 5.49464569,14.7435108 L6.5121187,14.7435108 C7.10914394,14.7435108 7.59291057,14.25789 7.59291057,13.6584435 L7.59291057,9.20740726 C7.59291057,8.60849269 7.10914394,8.12287191 6.5121187,8.12287191 L4.87589599,8.12287191 C4.35742322,8.12287191 3.93512092,7.699084 3.93512092,7.17809216 L3.93512092,6.28676792 L18.8432664,6.28676792 L18.8432664,7.17809216 C18.8432664,7.699084 18.4216264,8.12287191 17.9026238,8.12287191 L16.2664011,8.12287191 C15.6697732,8.12287191 15.1854767,8.60849269 15.1854767,9.20740726 L15.1854767,13.6584435 C15.1854767,14.2573581 15.6697732,14.7435108 16.2664011,14.7435108 L17.2837416,14.7435108 C19.1217104,14.7435108 20.6171215,16.2446534 20.6171215,18.0896667 L20.6171215,35.3716231 Z M17.48615,49.82057 L12.9420289,49.82057 C12.3448712,49.82057 11.8609721,49.3344174 11.8609721,48.7355028 C11.8609721,48.1365882 12.3448712,47.6504356 12.9420289,47.6504356 L17.48615,47.6504356 C18.0834402,47.6504356 18.5670743,48.1365882 18.5670743,48.7355028 C18.5670743,49.3344174 18.0834402,49.82057 17.48615,49.82057 L17.48615,49.82057 Z M9.83847788,49.82057 L9.50572274,49.82057 C8.9090949,49.82057 8.42532828,49.3344174 8.42532828,48.7355028 C8.42532828,48.1365882 8.9090949,47.6504356 9.50572274,47.6504356 L9.83847788,47.6504356 C10.4349733,47.6504356 10.9194022,48.1365882 10.9194022,48.7355028 C10.9194022,49.3344174 10.4349733,49.82057 9.83847788,49.82057 L9.83847788,49.82057 Z M3.93512092,4.11703235 L18.8432664,4.11703235 L18.8432664,2.17029406 L3.93512092,2.17029406 L3.93512092,4.11703235 Z M17.3473254,12.5739082 L17.3473254,10.2926075 L17.9020939,10.2926075 C19.6132925,10.2926075 21.0052475,8.89531745 21.0052475,7.17809216 L21.0052475,1.08509384 C21.0052475,0.485780351 20.5208185,2.65947856e-05 19.9243232,2.65947856e-05 L2.85419659,2.65947856e-05 C2.25756875,2.65947856e-05 1.77340473,0.485780351 1.77340473,1.08509384 L1.77340473,7.17809216 C1.77340473,8.89531745 3.16522727,10.2926075 4.87589599,10.2926075 L5.43106191,10.2926075 L5.43106191,12.5739082 C2.43056963,12.6082154 -5.29864865e-05,15.0691639 -5.29864865e-05,18.0896667 L-5.29864865e-05,48.9498568 C-5.29864865e-05,51.9916354 2.46501084,54.4664131 5.49464569,54.4664131 L17.2832117,54.4664131 C20.3133764,54.4664131 22.7784403,51.9916354 22.7784403,48.9498568 L22.7784403,18.0896667 C22.7784403,15.0691639 20.3480826,12.6082154 17.3473254,12.5739082 L17.3473254,12.5739082 Z" id="Fill-1"></path>
                </g>
            </g>
        </g>
    </g>
</svg>