<?xml version="1.0" encoding="UTF-8"?>
<svg width="40px" height="68px" viewBox="0 0 40 68" version="1.1" xmlns="http://www.w3.org/2000/svg" xmlns:xlink="http://www.w3.org/1999/xlink">
    <!-- Generator: Sketch 44.1 (41455) - http://www.bohemiancoding.com/sketch -->
    <title>Page 1</title>
    <desc>Created with Sketch.</desc>
    <defs></defs>
    <g id="Welcome" stroke="none" stroke-width="1" fill="none" fill-rule="evenodd">
        <g id="Home---Desktop" transform="translate(-700.000000, -1752.000000)" fill="#7ECDC1">
            <g id="Products" transform="translate(212.000000, 1515.000000)">
                <g id="DONOR-HUMAN" transform="translate(348.000000, 173.000000)">
                    <g id="Page-1" transform="translate(140.000000, 64.000000)">
                        <g id="Group-3" transform="translate(0.000000, 0.106721)">
                            <path d="M23.0558657,6.40218292 C23.0188507,5.04973996 22.4251194,4.13736931 21.3324328,3.56269721 C20.1658657,2.94935391 19.0169104,3.07031384 17.9731791,3.84988337 C17.1451194,4.46832288 16.679597,5.29930413 16.7115373,6.45179598 C18.6700448,6.45179598 20.5276567,6.45299509 22.3851194,6.44984743 C22.5794478,6.44954766 22.7736269,6.42301741 23.0558657,6.40218292 L23.0558657,6.40218292 Z M3.15452239,17.2505052 C3.37407463,17.1966953 3.54123881,17.1680666 3.70034328,17.1147064 C9.61243284,15.1322825 15.3625821,15.3508198 21.0887015,18.0048935 C26.0966119,20.3262151 31.1822836,19.9389035 36.1730299,17.7145597 C36.6151194,17.5176064 36.7952687,17.2714896 36.7831791,16.7591711 C36.7436269,15.087316 36.819597,13.4120134 36.7498955,11.7422567 C36.6888507,10.2835429 35.9719851,9.56767589 34.5873582,9.57771842 C28.8452687,9.61893772 23.1025821,9.59510547 17.360194,9.59510547 C13.2087015,9.59510547 9.05735821,9.59180792 4.90586567,9.59780346 C3.91526866,9.59915246 3.18571642,10.1712765 3.16765672,11.0673093 C3.12631343,13.1110375 3.15452239,15.1562646 3.15452239,17.2505052 L3.15452239,17.2505052 Z M36.7685522,21.0473281 C36.6415373,21.0170507 36.5879552,20.9855741 36.5469104,20.9975652 C36.2855672,21.0735586 36.0242239,21.1510509 35.7679552,21.2427826 C30.0573582,23.2859113 24.4637761,23.2157635 18.9057164,20.5705331 C13.8454179,18.1621265 8.69795522,18.4241314 3.57959701,20.5108776 C3.20795522,20.6624147 2.97855224,20.8211465 2.98034328,21.3058856 C3.00243284,27.2491103 2.93422388,33.1932343 3.01780597,39.1354097 C3.10750746,45.5059662 8.56273134,51.1329263 14.9194478,51.4464929 C17.7228806,51.58469 20.5370597,51.5208375 23.3461642,51.5206876 C24.1642239,51.5206876 24.9957164,51.5007525 25.7981045,51.358958 C32.3945224,50.1916272 36.7494478,44.9774597 36.7658657,38.240576 C36.7792985,32.7467167 36.7685522,27.2528575 36.7685522,21.7591481 L36.7685522,21.0473281 Z M21.4781045,54.5272989 C21.4533284,56.7870163 21.808403,58.8268474 22.9733284,60.655186 C24.5015373,63.0535502 26.8643731,63.7559272 29.5191493,63.8473592 C30.7670597,63.8902272 31.447209,64.8307769 31.0640746,65.9715775 C30.8125821,66.7204199 30.2310896,66.9771787 29.4987015,66.9960646 C23.8834776,67.1413065 19.3863134,63.3753606 18.5536269,57.8056578 C18.4033284,56.8000566 18.340791,55.7812652 18.2198955,54.591601 C17.0040746,54.591601 15.7840746,54.6794356 14.5798955,54.5773616 C6.43228358,53.8877251 0.103776119,47.1147183 0.0404925373,38.8990357 C-0.0305522388,29.6822485 0.0103432836,20.4645621 0.0255671642,11.2473252 C0.0300447761,8.49087768 2.04616418,6.48372221 4.7909403,6.45824118 C7.40243284,6.43395926 10.0142239,6.45014721 12.6258657,6.44864833 C12.8948209,6.44849844 13.1637761,6.44864833 13.4967612,6.44864833 C13.629597,4.32398036 14.4169104,2.58062846 16.0982537,1.3158702 C17.2294478,0.464803906 18.510194,0.0290783482 19.920791,0.0436175223 C21.6666119,0.0616041295 23.1613881,0.712719308 24.3982537,1.95424487 C25.6169104,3.17748404 26.1452687,4.70454699 26.2706418,6.44834855 C26.5769104,6.44834855 26.8215373,6.44834855 27.0660149,6.44849844 C29.7275075,6.44999732 32.3891493,6.43291004 35.0503433,6.45869085 C37.7791493,6.48522109 39.8892985,8.56762054 39.8948209,11.2957392 C39.9137761,20.4130004 39.9640746,29.5310112 39.880194,38.647523 C39.7982537,47.5559897 32.7309403,54.4576008 23.7894478,54.5265494 C23.0487015,54.5322452 22.307806,54.5272989 21.4781045,54.5272989 L21.4781045,54.5272989 Z" id="Fill-1"></path>
                        </g>
                        <path d="M33.3928657,39.4129281 C33.156597,42.2476174 32.166597,44.7053373 29.9200299,46.5360742 C28.3764478,47.7940874 26.576,48.3609653 24.6000299,48.3788021 C23.6240597,48.3876455 22.9568955,47.8039801 22.9246567,46.9470681 C22.8930149,46.1006484 23.6422687,45.2010182 24.4658507,45.095197 C25.0313731,45.0226511 25.6128657,45.0102103 26.1589851,44.8645188 C28.3568955,44.278755 29.946597,42.1897604 30.184806,39.6343132 C30.2149552,39.3113037 30.2152537,38.9855963 30.2439104,38.6624369 C30.3362985,37.6163658 30.8982388,37.0727206 31.8585373,37.0908571 C32.8109254,37.1086938 33.3582388,37.6958066 33.3918209,38.740229 C33.3991343,38.9643121 33.3928657,39.188695 33.3928657,39.4129281" id="Fill-4"></path>
                        <path d="M13.5278358,35.4452024 C11.9873881,35.445802 10.4466418,35.4591421 8.90649254,35.4413053 C7.81246269,35.4287147 7.23619403,34.9204432 7.18932836,33.9876877 C7.13873134,32.9814869 7.64544776,32.3942242 8.65470149,32.2949981 C8.80261194,32.2804589 8.95231343,32.2788101 9.10126866,32.2788101 C12.0579851,32.2782106 15.0147015,32.2780607 17.9714179,32.2798594 C18.636791,32.280309 19.2724627,32.3560027 19.6470896,33.0225564 C20.2833582,34.155113 19.5726119,35.401435 18.2235075,35.4354597 C16.6591791,35.4748803 15.093209,35.4446029 13.5278358,35.4452024" id="Fill-6"></path>
                        <path d="M13.5354776,29.0409061 C12.0195075,29.0409061 10.5033881,29.045103 8.98741791,29.039707 C7.77532836,29.0352103 7.18413433,28.5074533 7.18667164,27.449541 C7.18920896,26.4177093 7.75816418,25.9061402 8.93935821,25.9040418 C11.9962239,25.8987957 15.0530896,25.8981962 18.1099552,25.9046414 C19.2487612,25.9070396 19.8681642,26.4755663 19.8614478,27.4774203 C19.8547313,28.4611378 19.211,29.0341611 18.0835373,29.0391074 C16.5674179,29.0460023 15.0514478,29.0409061 13.5354776,29.0409061" id="Fill-8"></path>
                        <path d="M13.5451791,41.8136305 C11.9811493,41.8134806 10.4169701,41.8235231 8.85308955,41.8101831 C7.74846269,41.8005902 7.18622388,41.2606922 7.18622388,40.2555407 C7.18622388,39.2589327 7.76920896,38.6794642 8.84861194,38.6751174 C11.9518955,38.6623769 15.0551791,38.6626767 18.1584627,38.6751174 C19.1632388,38.6791644 19.8512985,39.349915 19.8614478,40.2696302 C19.8718955,41.2248689 19.2493582,41.8029884 18.162791,41.8107826 C16.6236866,41.822324 15.0844328,41.8137804 13.5451791,41.8136305" id="Fill-10"></path>
                    </g>
                </g>
            </g>
        </g>
    </g>
</svg>