<?xml version="1.0" encoding="UTF-8"?>
<svg width="56px" height="62px" viewBox="0 0 56 62" version="1.1" xmlns="http://www.w3.org/2000/svg" xmlns:xlink="http://www.w3.org/1999/xlink">
    <!-- Generator: Sketch 44.1 (41455) - http://www.bohemiancoding.com/sketch -->
    <title>Page 1</title>
    <desc>Created with Sketch.</desc>
    <defs>
        <polygon id="path-1" points="1.32914452e-21 0.0647840764 1.32914452e-21 41.7019642 28.3285866 41.7019642 28.3285866 0.0647840764 0 0.0647840764"></polygon>
    </defs>
    <g id="Welcome" stroke="none" stroke-width="1" fill="none" fill-rule="evenodd">
        <g id="Home---Desktop" transform="translate(-1038.000000, -1753.000000)">
            <g id="Products" transform="translate(212.000000, 1515.000000)">
                <g id="LIPIPDS" transform="translate(719.000000, 215.000000)">
                    <g id="Page-1" transform="translate(107.000000, 23.000000)">
                        <path d="M51.3674564,48.6099844 L46.0341184,48.6099844 C46.0244091,48.4341532 46.0080308,48.2747105 46.0079327,48.1152678 C46.0063636,46.1589111 46.0180343,44.2022583 45.9985177,42.2460003 C45.9945947,41.8518857 46.1089485,41.7242328 46.4951622,41.7467424 C46.9971026,41.7761627 47.5020834,41.7540481 48.0835615,41.7540481 L48.0835615,46.9586914 L51.3674564,46.9586914 L51.3674564,48.6099844 Z M44.7045352,46.5101787 C44.4341464,47.6082105 43.7490046,48.3971309 42.612332,48.5220194 C41.2911832,48.6672455 39.9518907,48.6446373 38.5726823,48.6966659 L38.5726823,41.6934303 C40.0125982,41.7602678 41.432213,41.7405226 42.8264266,41.9202041 C43.7876455,42.0441054 44.3611797,42.8043952 44.6399047,43.7324207 C44.9150991,44.6486978 44.9315755,45.5881755 44.7045352,46.5101787 L44.7045352,46.5101787 Z M37.4715124,48.6120576 L32.1259152,48.6120576 L32.1259152,41.7896882 L34.1908539,41.7896882 L34.1908539,46.9660959 L37.4715124,46.9660959 L37.4715124,48.6120576 Z M54.5204231,40.9907965 C52.1059503,34.4188952 48.6381674,28.4558379 44.1714074,23.0833602 C43.3985877,22.1538538 42.5874214,21.2567296 41.7758627,20.3238666 C41.6650396,20.4300959 41.6048224,20.4821245 41.550882,20.5402742 C36.3810326,26.1247169 32.3825737,32.4630322 29.5261814,39.5298475 C28.4171657,42.2736436 27.6276736,45.1011596 27.5914844,48.0919685 C27.5532357,51.2520927 28.3290956,54.1492105 30.3956035,56.6102551 C35.1074494,62.2215513 43.042875,63.5780481 49.3174249,59.8177678 C53.6917016,57.196392 55.9697541,53.3481468 55.916304,48.1716404 C55.8907068,45.6910481 55.3693478,43.3016787 54.5204231,40.9907965 L54.5204231,40.9907965 Z" id="Fill-1" fill="#7ECDC1"></path>
                        <g id="Group-5" transform="translate(0.000000, 0.033962)">
                            <mask id="mask-2" fill="white">
                                <use xlink:href="#path-1"></use>
                            </mask>
                            <g id="Clip-4"></g>
                            <path d="M24.6183257,28.266886 L19.2395797,28.266886 C19.2279089,28.1036917 19.2050578,27.932007 19.2049597,27.7603223 C19.2029002,25.8028796 19.2131979,23.8454369 19.1968196,21.8881917 C19.1938774,21.5291248 19.2730228,21.3819242 19.6545289,21.4040389 C20.1731419,21.4341503 20.6947951,21.411542 21.2793135,21.411542 L21.2793135,26.6280325 C22.2084623,26.6280325 23.0391454,26.6268478 23.8697303,26.6283287 C24.7515096,26.6299083 24.6029282,26.5865675 24.6174431,27.354558 C24.6229352,27.6462936 24.6183257,27.9383255 24.6183257,28.266886 L24.6183257,28.266886 Z M17.9105849,26.174386 C17.6375482,27.2456631 16.9755517,28.0403096 15.8536883,28.1647045 C14.5164553,28.3131885 13.1614711,28.2985771 11.7825569,28.3559369 L11.7825569,21.4291153 C13.0217163,21.4291153 14.1980105,21.3868605 15.3700876,21.4402713 C16.7003573,21.5009879 17.543986,22.2431121 17.8874396,23.5376089 C18.1198739,24.413507 18.1324273,25.3041153 17.9105849,26.174386 L17.9105849,26.174386 Z M10.2432925,28.2630357 L8.17217513,28.2630357 C8.17217513,27.5379911 8.13304378,26.8184752 8.18502277,26.1056726 C8.22376182,25.5748223 8.02241681,25.4590166 7.54940806,25.4897204 C6.99754816,25.525558 6.44156918,25.4981121 5.82684413,25.4981121 L5.82684413,28.2573096 L3.75405954,28.2573096 L3.75405954,21.4478732 L5.79555867,21.4478732 L5.79555867,23.8323064 C6.5571979,23.8323064 7.22498074,23.8468191 7.89070403,23.8165102 C7.98897373,23.8119688 8.15324694,23.5984242 8.15824869,23.4762013 C8.18492469,22.8209561 8.1708021,22.1640325 8.1708021,21.4601153 L10.2432925,21.4601153 L10.2432925,28.2630357 Z M26.8065429,20.3953541 C24.1438459,13.3404847 20.3076988,6.99644331 15.3170298,1.36224268 C14.9505289,0.948481529 14.5793205,0.538866879 14.1542697,0.0647840764 C14.0460946,0.202507006 13.9998039,0.27102293 13.9443923,0.330653503 C8.71540455,5.95577134 4.70674606,12.3632936 1.85712084,19.5051408 C0.723096322,22.3472682 -0.0587460595,25.2759783 0.00343257443,28.3765707 C0.0526654991,30.8253732 0.575005254,33.146128 1.9481331,35.2057522 C5.82272504,41.017265 13.4861926,43.3180771 19.8718599,40.506851 C25.1552785,38.1806662 28.2350823,34.2284624 28.3265849,28.2445739 C28.3681681,25.5261503 27.7585429,22.9175102 26.8065429,20.3953541 L26.8065429,20.3953541 Z" id="Fill-3" fill="#7ECDC1" mask="url(#mask-2)"></path>
                        </g>
                        <path d="M40.652538,43.3978379 L40.652538,47.0967105 C40.9664715,47.0967105 41.2249933,47.105892 41.4826326,47.0949334 C42.2550599,47.0622551 42.6115573,46.7402105 42.6877604,45.9576086 C42.7289513,45.5354557 42.7454277,45.1029366 42.7036483,44.6820672 C42.5879215,43.518185 41.7981352,43.0296882 40.652538,43.3978379" id="Fill-6" fill="#7ECDC1"></path>
                        <path d="M13.8751033,23.0501389 L13.8751033,26.7804064 C14.1743257,26.7804064 14.4331419,26.7923522 14.6905849,26.7781357 C15.4670333,26.7352885 15.8084273,26.4217344 15.9008126,25.6375529 C15.9409247,25.296849 15.9470053,24.9485433 15.9324904,24.6052726 C15.8754116,23.267435 15.2208687,22.7679796 13.8751033,23.0501389" id="Fill-8" fill="#7ECDC1"></path>
                    </g>
                </g>
            </g>
        </g>
    </g>
</svg>