<?xml version="1.0" encoding="UTF-8"?>
<svg width="44px" height="68px" viewBox="0 0 44 68" version="1.1" xmlns="http://www.w3.org/2000/svg" xmlns:xlink="http://www.w3.org/1999/xlink">
    <!-- Generator: Sketch 44.1 (41455) - http://www.bohemiancoding.com/sketch -->
    <title>Page 1</title>
    <desc>Created with Sketch.</desc>
    <defs>
        <polygon id="path-1" points="0 67.7983335 43.9092428 67.7983335 43.9092428 0.0193875371 0 0.0193875371"></polygon>
    </defs>
    <g id="Welcome" stroke="none" stroke-width="1" fill="none" fill-rule="evenodd">
        <g id="Home---Desktop" transform="translate(-350.000000, -2042.000000)">
            <g id="Products" transform="translate(212.000000, 1515.000000)">
                <g id="Proteins" transform="translate(24.000000, 508.000000)">
                    <g id="Page-1" transform="translate(114.000000, 19.000000)">
                        <g id="Group-3" transform="translate(0.000000, 0.096705)">
                            <mask id="mask-2" fill="white">
                                <use xlink:href="#path-1"></use>
                            </mask>
                            <g id="Clip-2"></g>
                            <path d="M5.76227676,64.6252322 C4.66158747,63.5745902 3.7334517,62.3946206 3.06345692,61.0192664 C2.37806789,59.6122187 2.03560313,58.1179853 1.96288251,56.5089358 C1.65660574,56.466794 1.36744648,56.4269741 1.07346214,56.3863415 C0.949618799,59.0963013 3.52218277,63.6168481 5.76227676,64.6252322 L5.76227676,64.6252322 Z M34.3459634,8.12588567 L34.3459634,0.964222326 L9.60245431,0.964222326 L9.60245431,3.61996664 L10.8995927,3.61996664 C12.7371384,3.62008273 14.5746841,3.62205631 16.4121149,3.61857352 C16.7402193,3.61799305 17.0413264,3.72665614 16.9797493,4.08271348 C16.9498799,4.25522773 16.6314256,4.3924497 16.4239478,4.51051632 C16.336752,4.56008805 16.198893,4.51864283 16.0840104,4.51864283 L10.3992794,4.51864283 L9.58832376,4.51864283 L9.58832376,8.12971674 C11.3611906,7.30429525 13.1986214,7.56074477 15.0049191,7.55296654 C20.0580261,7.53125714 25.1111332,7.54959984 30.1643551,7.54263426 C31.5620157,7.54077677 32.9613995,7.4901602 34.3459634,8.12588567 L34.3459634,8.12588567 Z M0.986151436,55.4415764 C1.12745692,55.4683939 1.21913316,55.4924251 1.31230287,55.5024092 C5.41969713,55.9466972 9.5197389,56.4881551 13.6365535,56.8097328 C19.7718538,57.2888488 25.9166893,57.1863386 32.0526789,56.7083836 C33.6551749,56.5834675 35.254799,56.4207051 36.8564909,56.2842958 C37.3294621,56.2441276 37.6272376,56.5367981 37.4291802,56.8505976 C37.3293473,57.0087163 37.0671854,57.130614 36.8688982,57.1464026 C33.6072689,57.4045936 30.3477076,57.7284931 27.080564,57.8688496 C20.1081149,58.1684857 13.1504856,57.8845222 6.21675196,57.0625835 C5.59707572,56.9892127 4.97625065,56.9246649 4.19240731,56.8379434 C4.42665274,57.8278688 4.62850131,58.7012367 4.84275718,59.5714701 C4.88848042,59.757335 4.97487206,59.9336804 5.04920104,60.1115349 C5.17419321,60.4100101 5.29562402,60.7315878 4.90755091,60.903986 C4.51844386,61.0770807 4.32957702,60.788009 4.24835509,60.4700302 C3.96792689,59.371674 3.69347258,58.2709959 3.45463185,57.1628879 C3.35192689,56.6862098 3.39408877,56.6769224 2.87861097,56.7435598 C2.92835509,58.4435101 3.40316449,60.0235364 4.30694517,61.4447473 C6.57564491,65.011822 9.89712794,66.7926892 14.0310601,66.8602553 C19.86847,66.9555677 25.708752,66.9310721 31.5470809,66.8828935 C35.9730444,66.8465563 39.3050966,64.7902004 41.5366893,60.951468 C42.6903394,58.9670897 43.1002402,56.7859338 42.9623812,54.4314509 C28.9582037,56.6063378 14.9891802,56.6023907 0.986151436,54.4345854 L0.986151436,55.4415764 Z M1.80480418,53.656646 L1.80480418,52.9736706 C1.80480418,51.2517787 1.80089817,49.5297707 1.80560836,47.8078788 C1.8151436,44.3694352 1.83731593,40.9308755 1.83743081,37.4925481 C1.83743081,36.2190075 1.77010966,34.9455829 1.76896084,33.6721584 C1.76677807,31.5084164 1.79251175,29.3445583 1.80687206,27.1808163 C1.80790601,27.0260642 1.76080418,26.8419407 1.82720627,26.723758 C1.9261201,26.5474127 2.10625587,26.4176206 2.25181201,26.2679767 C2.39334726,26.4214517 2.55510183,26.561576 2.66745692,26.7344385 C2.72053264,26.816168 2.68066841,26.9607039 2.68043864,27.0766808 C2.67354569,31.289581 2.66044909,35.5024812 2.66079373,39.7152654 C2.6610235,44.2808562 2.67354569,48.8464471 2.68239164,53.4120379 C2.68262141,53.5236033 2.70261097,53.6351687 2.71651175,53.7788919 C2.93053786,53.8108175 3.1266423,53.8399569 3.38087728,53.8778032 C3.38087728,53.6052167 3.38099217,53.3952044 3.38087728,53.1851921 C3.38064752,49.1996021 3.37995822,45.2141281 3.38064752,41.2286542 C3.3807624,41.0355915 3.33653264,40.8148986 3.41327415,40.6571282 C3.49024543,40.4988934 3.69680418,40.3029283 3.83994778,40.3081525 C3.98481462,40.3133767 4.18241253,40.5204867 4.24605744,40.6834813 C4.31831854,40.8684175 4.27006789,41.1025771 4.27006789,41.3153757 C4.27029765,45.3008496 4.269953,49.2864397 4.26972324,53.2719136 L4.26972324,54.0084079 C17.2198538,55.7045271 30.0965744,55.5486142 42.9562924,53.5313816 L42.9562924,25.3093965 C28.9395927,27.4805685 14.972752,27.4732546 0.974663185,25.3095126 L0.974663185,53.5191918 C1.24957702,53.5647003 1.48784334,53.6040558 1.80480418,53.656646 L1.80480418,53.656646 Z M9.33535248,9.11174774 C9.34741514,9.18465417 9.35947781,9.2575606 9.37154047,9.33058312 L10.0823185,9.33058312 C13.6999687,9.32965437 17.3176188,9.32872563 20.9353838,9.32826126 C21.0882924,9.32826126 21.2718747,9.2807792 21.3872167,9.34880972 C21.5614935,9.45166815 21.6884386,9.63672045 21.8354883,9.78694484 C21.6856815,9.93206114 21.5552898,10.1124697 21.3796345,10.2099879 C21.2618799,10.2754643 21.0801358,10.2238029 20.9269974,10.2238029 C16.9264439,10.223919 12.9255457,10.2546837 8.92568146,10.2005843 C8.01730548,10.1882785 7.38326893,10.4802525 6.77151958,11.108548 C4.32429243,13.62173 2.74649608,16.6300489 1.73150914,19.968072 C1.29840209,21.3923014 1.0192376,22.8453218 0.965357702,24.3963248 C1.30770757,24.4462448 1.61513316,24.4909406 1.92370757,24.5359847 C1.95461097,24.4154801 1.97827676,24.3612647 1.98137859,24.3057722 C2.19597911,20.5307749 3.45015144,17.1020832 5.37742037,13.8984958 C5.56605744,13.5850446 5.74458486,13.2509289 5.99721149,12.9969173 C6.13162402,12.8619011 6.41515405,12.8785024 6.63136292,12.8266088 C6.65146736,13.0497396 6.68742559,13.2732187 6.68328982,13.4958852 C6.68179634,13.5770342 6.58449086,13.6560936 6.53118538,13.73643 C4.98934726,16.0551562 3.88532637,18.5725176 3.28540992,21.2973373 C3.04358225,22.3956935 2.94857441,23.5270201 2.7811906,24.6820297 C16.2914883,26.5821245 29.6223394,26.4960995 42.9490548,24.4094433 C42.9490548,24.1461443 42.9831749,23.9482057 42.9437702,23.7666361 C42.588094,22.12926 42.3543081,20.4488132 41.8268825,18.8689031 C40.7227467,15.5615286 38.9972115,12.6127655 36.2964386,10.3446558 C34.774705,9.06670364 33.044,8.40950096 31.0227572,8.42308385 C24.974423,8.4639486 18.9255144,8.43701501 12.8768355,8.43933687 C12.4943916,8.43945297 12.1,8.4071791 11.7319164,8.48705111 C10.9260157,8.66211941 10.1333264,8.89976186 9.33535248,9.11174774 L9.33535248,9.11174774 Z M22.0158538,0.019457193 C26.1508198,0.019457193 30.285671,0.0191089139 34.420752,0.0199215651 C35.1978172,0.0200376582 35.266517,0.0906222245 35.2668616,0.888413573 C35.2681253,3.1904224 35.2858172,5.49277951 35.2541097,7.79432396 C35.2466423,8.33856812 35.3975979,8.64575029 35.8653995,8.94561861 C38.1037702,10.3805285 39.6925953,12.4288741 40.9713525,14.730999 C42.8886266,18.1825611 43.9727728,21.8636391 43.8835091,25.8603741 C43.8428407,27.6776945 43.8427258,29.4961758 43.8490444,31.3140767 C43.857201,33.6143441 43.9102768,35.9146115 43.9092428,38.2147629 C43.9064856,43.899955 43.8948825,49.585031 43.8667363,55.2699909 C43.8319269,62.320321 38.3859217,67.7867938 31.4009504,67.7938755 C25.1028616,67.8002606 18.804658,67.7993319 12.5065692,67.7941077 C6.49258486,67.7891157 1.45682507,63.6674646 0.324543081,57.7115435 C0.0566370757,56.3026385 0.0824856397,54.8255867 0.0740992167,53.3791836 C0.051926893,49.5496226 0.0948929504,45.7194811 0.0921357702,41.8896879 C0.0905274151,39.6283117 0.0261932115,37.3668193 0.0343498695,35.1054431 C0.0481357702,31.2777395 -0.120396867,27.4326221 0.183237598,23.6269762 C0.613013055,18.2411881 2.82013577,13.5859734 6.81069452,9.8859722 C7.20301828,9.52225272 7.63738903,9.18384152 8.10312272,8.92832074 C8.55265796,8.68185523 8.69281462,8.38628235 8.68672585,7.87756267 C8.65834987,5.53724314 8.67339948,3.19622705 8.67500783,0.855559244 C8.67546736,0.105017761 8.75887206,0.0202698442 9.49607311,0.0200376582 C13.6694099,0.0189928208 17.8426319,0.019457193 22.0158538,0.019457193 L22.0158538,0.019457193 Z" id="Fill-1" fill="#7ECDC1" mask="url(#mask-2)"></path>
                        </g>
                        <path d="M21.4056554,15.1571881 C17.305154,14.973529 13.2723185,14.7927721 9.23936815,14.6125957 C8.90126893,14.5975036 8.52468407,14.5747494 8.55156658,14.1186198 C8.57879373,13.6580788 8.95974413,13.68954 9.29462663,13.7149644 C16.4806423,14.2602533 23.6713681,14.2856777 30.8648512,13.8976948 C32.259295,13.8224665 33.6510966,13.6985952 35.0442768,13.5981748 C35.2350966,13.5844758 35.4437232,13.5230626 35.6128303,13.579716 C35.7975614,13.6414775 35.9459896,13.8146883 36.1103864,13.9392561 C35.9656345,14.1064301 35.8415614,14.3891166 35.6726841,14.4197652 C35.0913786,14.5251777 34.495483,14.5624435 33.9034935,14.5900737 C29.7182089,14.7848778 25.5325796,14.9709749 21.4056554,15.1571881" id="Fill-4" fill="#7ECDC1"></path>
                        <path d="M11.1553097,28.9733392 L11.1553097,29.7177277 L11.1553097,40.1524021 C11.1553097,44.1357864 11.1604794,48.1192867 11.1473828,52.102671 C11.1460042,52.5028437 11.2222862,52.7055421 11.6638945,52.7255101 C12.2932209,52.7538368 12.9184115,52.8729483 13.5478527,52.9053383 C19.2474037,53.2000985 24.9476439,53.1768799 30.6465055,52.8954704 C31.728354,52.8420676 32.805952,52.7006662 33.8982548,52.5986205 L33.8982548,28.9746162 C26.2977431,29.8460105 18.7605316,29.8383484 11.1553097,28.9733392 M34.8274245,40.6812059 C34.8274245,44.5876205 34.8136386,48.4941511 34.8415551,52.4004496 C34.8460355,53.0205026 34.6038632,53.3142179 34.0540355,53.3798105 C32.6686674,53.545127 31.2814611,53.8001834 29.8929911,53.8139985 C24.6325211,53.8664725 19.371247,53.8540506 14.1104324,53.8238664 C13.1219833,53.8181778 12.1302026,53.648682 11.1481869,53.5003151 C10.3580251,53.3809714 10.2653149,53.228193 10.2665786,52.4363224 C10.2732418,48.1240465 10.2865681,43.8116546 10.2872574,39.4993787 C10.2878319,35.9643458 10.2733567,32.4293128 10.2670381,28.8942798 C10.2654298,28.0581778 10.3338997,27.9841104 11.1568031,28.0786102 C16.242307,28.6631386 21.3426308,28.9068179 26.4557065,28.6521098 C28.9954141,28.5255683 31.5286883,28.2672613 34.0647196,28.0654916 C34.707717,28.0142946 34.8255864,28.1024092 34.825012,28.7350002 C34.8220251,32.3885641 34.8130642,36.0422442 34.806401,39.6958082 C34.8057117,40.0242354 34.8062862,40.3527787 34.8062862,40.681322 C34.813294,40.681322 34.8203018,40.6812059 34.8274245,40.6812059" id="Fill-6" fill="#7ECDC1"></path>
                        <path d="M19.8432418,48.3623391 C23.9050277,48.4013464 27.9548658,48.2833958 31.9944794,47.8749805 C32.3297065,47.8410814 32.6425316,47.8544321 32.6681504,48.2809579 C32.6915864,48.6696374 32.397717,48.729077 32.0874193,48.7596095 C25.7295916,49.3831452 19.3722235,49.3840739 13.0143958,48.7601899 C12.6765264,48.7269873 12.3740407,48.649205 12.4302183,48.2296448 C12.481341,47.8479309 12.7838266,47.8486274 13.0941243,47.871846 C15.3435238,48.040297 17.5934977,48.200041 19.8432418,48.3623391" id="Fill-8" fill="#7ECDC1"></path>
                        <path d="M13.4831394,33.5014784 C15.2776042,33.6381199 16.9113483,33.786719 18.5483091,33.8779682 C19.4820742,33.9299778 20.4213535,33.903973 21.357646,33.8862108 C24.0465859,33.8350137 26.7358705,33.786719 29.4238914,33.7008102 C30.2785023,33.6735283 31.1303561,33.5381638 31.982095,33.4399491 C32.3188157,33.401058 32.6325598,33.4293847 32.6940219,33.8229401 C32.7567478,34.2243898 32.4721838,34.3585933 32.1263875,34.3799544 C30.3748888,34.4882692 28.624424,34.6254912 26.8714319,34.69387 C24.8490402,34.7725811 22.824236,34.8266805 20.8006956,34.821108 C19.430377,34.8172769 18.0599436,34.6983976 16.6903144,34.6194544 C15.4904815,34.5502629 14.2917974,34.4601747 13.0919645,34.3904028 C12.7547843,34.3707831 12.4498862,34.2956709 12.4554005,33.8959626 C12.4616042,33.4470308 12.8067112,33.4751253 13.1270037,33.4991566 C13.2981786,33.5120429 13.4710768,33.5014784 13.4831394,33.5014784" id="Fill-10" fill="#7ECDC1"></path>
                        <path d="M30.051012,39.3527765 C28.1439624,39.4415876 26.2376021,39.5453748 24.3297483,39.6122444 C23.4538841,39.6431251 22.5746883,39.622925 21.6983645,39.5887936 C18.9887457,39.483265 16.2795864,39.3620639 13.570542,39.2394697 C13.3436491,39.2292535 13.0878057,39.2176442 12.9023854,39.1081684 C12.7096125,38.9943973 12.585999,38.7608181 12.4321713,38.5797129 C12.6218423,38.4675671 12.8134663,38.2569743 13.0007248,38.2608054 C13.7255185,38.2757814 14.4480146,38.3766662 15.1729232,38.4139321 C17.6284219,38.5401252 20.0834611,38.703352 22.5405681,38.7529237 C24.1813201,38.7858942 25.8262078,38.6680597 27.4674193,38.5840084 C29.0084533,38.5051812 30.5465003,38.3674949 32.087764,38.2971425 C32.2768606,38.2885516 32.4774454,38.5364102 32.6727457,38.6653896 C32.5011112,38.8246692 32.3484324,39.0882004 32.1542809,39.1244215 C31.461999,39.253633 30.7554715,39.3058749 30.0543436,39.38714 L30.051012,39.3527765 Z" id="Fill-12" fill="#7ECDC1"></path>
                        <path d="M30.439246,36.9427663 C28.2817525,37.0510811 26.2829117,37.1985192 24.2818883,37.2372943 C22.6049483,37.2698004 20.9251363,37.1885352 19.2472773,37.1335071 C17.7220971,37.083471 16.1972616,37.0119577 14.6735749,36.9272098 C14.1019196,36.8954003 13.5333661,36.802642 12.9642381,36.7317091 C12.6801337,36.6964169 12.3675384,36.5949515 12.4762172,36.2524771 C12.5329692,36.0734616 12.8550997,35.8546262 13.0455749,35.865539 C14.1331676,35.927881 15.215246,36.1063159 16.3027238,36.147529 C18.5900345,36.2342505 20.8795279,36.2820808 23.168447,36.3030936 C24.5635802,36.3158639 25.9607812,36.2775532 27.3545358,36.2102192 C28.8768439,36.1366162 30.3967394,36.0083334 31.9168648,35.8913116 C32.2557681,35.8651907 32.6248856,35.7962314 32.6648648,36.2637381 C32.704729,36.7296195 32.3207916,36.7367011 31.9883217,36.7703681 C31.4194235,36.8280664 30.8516742,36.8964452 30.439246,36.9427663" id="Fill-14" fill="#7ECDC1"></path>
                        <path d="M22.0057556,44.5091648 C19.3922935,44.3525553 16.2636982,44.1669225 13.1353326,43.9754851 C12.7912595,43.9545883 12.3734319,43.9494802 12.4343196,43.4382065 C12.4901525,42.9690746 12.8870715,43.0488305 13.2051812,43.0814526 C17.0720115,43.4773299 20.9498705,43.6251163 24.8323248,43.5035669 C27.1427269,43.4312409 29.449223,43.2333023 31.7574423,43.0915527 C31.8527948,43.0857481 31.9482621,43.0788986 32.0433849,43.0699594 C32.3588522,43.0402396 32.6483561,43.0905079 32.669954,43.4767494 C32.6916668,43.8632231 32.3969932,43.9403089 32.0902569,43.9663137 C31.1760219,44.0440961 30.2629358,44.1471867 29.3470924,44.1923469 C27.075176,44.3047249 24.8018809,44.3905177 22.0057556,44.5091648" id="Fill-16" fill="#7ECDC1"></path>
                        <path d="M21.8629911,46.8859027 C19.4564324,46.7492612 16.4192836,46.5775596 13.3822496,46.4031878 C13.21073,46.3933199 13.0096856,46.4106178 12.8769963,46.3270308 C12.6977796,46.2139562 12.5715238,46.0150888 12.4224063,45.8530229 C12.6031164,45.7272942 12.7894559,45.4854724 12.9635029,45.4941794 C14.3201504,45.5613972 15.6736961,45.6904927 17.0297692,45.7751245 C21.7767144,46.0711618 26.5181452,45.9738758 31.2538319,45.5431706 C31.5397744,45.5170497 31.834448,45.44751 32.1098214,45.4927863 C32.3101765,45.5257567 32.4853723,45.71464 32.6717117,45.8339837 C32.5099572,46.0032473 32.3631373,46.299865 32.1841504,46.3212262 C31.0066047,46.4619309 29.8238893,46.5777918 28.6396804,46.6361866 C26.5946569,46.7369553 24.5472209,46.7900098 21.8629911,46.8859027" id="Fill-18" fill="#7ECDC1"></path>
                        <path d="M22.5136971,42.0892403 C20.1256345,41.9819703 17.7375718,41.8751647 15.349624,41.7673143 C15.0257702,41.7526865 14.7601619,41.6275382 14.7957755,41.2573176 C14.832423,40.8763002 15.1344491,40.8578414 15.4455509,40.8706116 C17.6812794,40.9630217 19.9180418,41.1336785 22.1530809,41.1142909 C24.9966527,41.0895631 27.8389608,40.9120569 30.6816136,40.7927132 C31.1203499,40.7742544 31.5598903,40.6687259 31.994376,40.6922927 C32.2254047,40.7047147 32.5925692,40.8642265 32.6423133,41.0339546 C32.7590339,41.4328502 32.4242663,41.541165 32.0844439,41.5579985 C29.1055405,41.7050884 26.126752,41.8534553 23.1478486,41.999036 C22.9379582,42.0092522 22.7272637,42.0001969 22.5169138,42.0001969 C22.5158799,42.0299167 22.5147311,42.0595204 22.5136971,42.0892403" id="Fill-20" fill="#7ECDC1"></path>
                        <path d="M29.9227802,32.1996227 C27.7859655,32.2689303 25.5519603,32.4011602 23.3181849,32.3979096 C20.8381013,32.3941947 18.3579029,32.2728774 15.8786235,32.1822088 C15.6821744,32.175011 15.4139238,32.0575249 15.3145504,31.9026567 C15.1146548,31.5905987 15.3985295,31.2992051 15.8741431,31.3197536 C16.9791979,31.3675839 18.0835634,31.4755505 19.1881587,31.4757826 C22.0336836,31.476247 24.8798977,31.4616193 27.7245034,31.3920796 C29.1711039,31.3567873 30.6139133,31.1753339 32.0605138,31.1008021 C32.2574225,31.090702 32.5957514,31.2803981 32.6435426,31.4445536 C32.7507279,31.8124525 32.4473232,31.9163557 32.1261117,31.9488618 C31.4239499,32.0201429 30.7233963,32.1074449 29.9227802,32.1996227" id="Fill-22" fill="#7ECDC1"></path>
                        <path d="M19.718376,51.6322272 C17.6840366,51.4915224 15.5089661,51.341298 13.3340104,51.1904932 C13.1813316,51.1799287 12.9962559,51.2147566 12.8840157,51.1399927 C12.7034204,51.0197203 12.5710757,50.8256128 12.418282,50.6626181 C12.5953159,50.5295755 12.7694778,50.2886825 12.9498433,50.2838066 C13.4627937,50.2698754 13.9773525,50.3737787 14.4927154,50.3931662 C17.6265953,50.5110006 20.7608198,50.6182706 23.8949295,50.7282107 C24.0287676,50.7328544 24.189718,50.6814252 24.2906997,50.73982 C24.4653211,50.8407049 24.6028355,51.0074145 24.755859,51.1464939 C24.6168512,51.3010138 24.5005901,51.5481758 24.3337807,51.5902015 C24.0260104,51.6677517 23.6886005,51.6303697 23.363483,51.6311824 C22.1966214,51.6337364 21.0297598,51.6322272 19.718376,51.6322272" id="Fill-24" fill="#7ECDC1"></path>
                    </g>
                </g>
            </g>
        </g>
    </g>
</svg>